<svg width="24" height="24" viewBox="0 0 24 24" fill="none" xmlns="http://www.w3.org/2000/svg">
<path d="M22.7535 14.9143H22.7197C22.489 14.9052 22.2714 14.8049 22.1146 14.6354C21.9578 14.466 21.8747 14.2412 21.8835 14.0105L22.221 5.48301L13.6935 5.82051C13.2172 5.83176 12.8085 5.46426 12.7897 4.98426C12.771 4.50426 13.146 4.09926 13.626 4.08051L23.0947 3.70551C23.3347 3.69801 23.571 3.78801 23.7435 3.96051C23.916 4.13301 24.006 4.36926 23.9985 4.60926L23.6235 14.078C23.6144 14.3027 23.5188 14.5152 23.3566 14.6711C23.1945 14.8269 22.9784 14.9141 22.7535 14.9143Z" fill="#EF4C49"/>
<path d="M0.868778 20.2942C0.666278 20.2942 0.467528 20.2267 0.302528 20.0842C-0.0612225 19.773 -0.102472 19.2217 0.208778 18.858L5.95753 12.1642C6.11503 11.9805 6.34753 11.868 6.59128 11.8605C6.83128 11.8492 7.07128 11.9467 7.24003 12.123L10.7538 15.723L22.5138 3.96297C22.855 3.62172 23.4025 3.62172 23.7438 3.96297C24.085 4.30422 24.085 4.85172 23.7438 5.19297L11.3613 17.5755C11.2 17.7367 10.9788 17.8305 10.7463 17.8305H10.7425C10.51 17.8305 10.2888 17.733 10.1275 17.568L6.66253 14.0167L1.52878 19.9905C1.35628 20.1892 1.11253 20.2942 0.868778 20.2942Z" fill="#EF4C49"/>
</svg>
