<svg width="24" height="24" viewBox="0 0 24 24" fill="none" xmlns="http://www.w3.org/2000/svg">
<path d="M1.24651 9.08574H1.28026C1.51096 9.09481 1.72862 9.19509 1.88542 9.36455C2.04222 9.53401 2.12534 9.75878 2.11651 9.98949L1.77902 18.517L10.3065 18.1795C10.7828 18.1682 11.1915 18.5357 11.2103 19.0157C11.229 19.4957 10.854 19.9007 10.374 19.9195L0.905265 20.2945C0.665265 20.302 0.429015 20.212 0.256515 20.0395C0.0840149 19.867 -0.00598526 19.6307 0.00151443 19.3907L0.376514 9.92199C0.385612 9.69727 0.481225 9.48478 0.643365 9.32893C0.805506 9.17308 1.02162 9.08594 1.24651 9.08574Z" fill="#32A75A"/>
<path d="M23.1312 3.70578C23.3337 3.70578 23.5325 3.77328 23.6975 3.91578C24.0612 4.22703 24.1025 4.77828 23.7912 5.14203L18.0425 11.8358C17.885 12.0195 17.6525 12.132 17.4087 12.1395C17.1687 12.1508 16.9287 12.0533 16.76 11.877L13.2462 8.27703L1.48622 20.037C1.14497 20.3783 0.597473 20.3783 0.256224 20.037C-0.0850277 19.6958 -0.0850277 19.1483 0.256224 18.807L12.6387 6.42453C12.8 6.26328 13.0212 6.16953 13.2537 6.16953H13.2575C13.49 6.16953 13.7112 6.26703 13.8725 6.43203L17.3375 9.98328L22.4712 4.00953C22.6437 3.81078 22.8875 3.70578 23.1312 3.70578Z" fill="#32A75A"/>
</svg>
