<svg width="25" height="24" viewBox="0 0 25 24" fill="none" xmlns="http://www.w3.org/2000/svg">
<path d="M23.5 14.7202C23.09 14.7202 22.75 15.0602 22.75 15.4702C22.75 18.4302 20.69 20.9102 17.92 21.5602L18.19 21.1102C18.4 20.7502 18.29 20.2902 17.93 20.0802C17.58 19.8702 17.11 19.9802 16.9 20.3402L15.85 22.0902C15.71 22.3202 15.71 22.6102 15.84 22.8402C15.97 23.0802 16.22 23.2202 16.49 23.2202C20.76 23.2202 24.24 19.7402 24.24 15.4702C24.25 15.0602 23.91 14.7202 23.5 14.7202Z" fill="#005655"/>
<path d="M8.5 -0.279785C4.23 -0.279785 0.75 3.20021 0.75 7.47021C0.75 7.88021 1.09 8.22021 1.5 8.22021C1.91 8.22021 2.25 7.88021 2.25 7.47021C2.25 4.51021 4.31 2.03021 7.08 1.38021L6.81 1.83021C6.6 2.19021 6.71 2.65021 7.07 2.86021C7.42 3.07021 7.89 2.96021 8.1 2.60021L9.15 0.850215C9.28 0.620215 9.29 0.340215 9.15 0.100215C9.02 -0.129785 8.77 -0.279785 8.5 -0.279785Z" fill="#005655"/>
<path d="M22 8.17C22 11.25 19.76 13.79 16.83 14.26C16.83 14.25 16.83 14.25 16.83 14.24C16.54 10.51 13.52 7.47 9.74 7.17C10.21 4.24 12.75 2 15.83 2C19.24 2 22 4.76 22 8.17Z" fill="#005655"/>
<path d="M10.31 13.6998C10.31 13.5498 10.14 13.3198 9.93 13.3198H7.87V14.0698H9.93C10.14 14.0798 10.31 13.9098 10.31 13.6998Z" fill="#005655"/>
<path d="M10.33 15.5801H9.93H7.87V16.3301H10.34C10.66 16.3301 10.88 16.1301 10.88 15.9501C10.88 15.7701 10.65 15.5801 10.33 15.5801Z" fill="#005655"/>
<path d="M15.33 14.3499C15.1 11.3199 12.68 8.8999 9.65 8.6699C9.49 8.6599 9.34 8.6499 9.17 8.6499C5.76 8.6499 3 11.4099 3 14.8299C3 18.2399 5.76 20.9999 9.17 20.9999C12.58 20.9999 15.35 18.2399 15.35 14.8299C15.35 14.6599 15.34 14.5099 15.33 14.3499ZM10.33 17.8299H9.67V18.2099C9.67 18.6199 9.33 18.9599 8.92 18.9599C8.51 18.9599 8.17 18.6199 8.17 18.2099V17.8299H7.12C6.71 17.8299 6.37 17.4899 6.37 17.0799V14.8299V12.5799C6.37 12.1699 6.71 11.8299 7.12 11.8299H8.17V11.4499C8.17 11.0399 8.51 10.6999 8.92 10.6999C9.33 10.6999 9.67 11.0399 9.67 11.4499V11.8299H9.93C10.93 11.8299 11.81 12.7099 11.81 13.7099C11.81 13.9999 11.74 14.2699 11.62 14.5199C12.08 14.8599 12.37 15.3799 12.37 15.9599C12.37 16.9899 11.46 17.8299 10.33 17.8299Z" fill="#005655"/>
</svg>
