<svg width="24" height="24" viewBox="0 0 24 24" fill="none" xmlns="http://www.w3.org/2000/svg">
<path d="M3.7236 12.0009L3.72359 12.0006C3.69525 7.43762 7.43659 3.69606 11.9999 3.69606C14.0212 3.69606 15.8755 4.41892 17.3153 5.61689L5.64434 17.3162C4.44642 15.8764 3.72359 14.0221 3.7236 12.0009ZM11.9999 2.22734C6.61153 2.22734 2.22637 6.6125 2.22637 12.0009C2.22637 14.6613 3.31129 17.0931 5.05328 18.8689C5.05447 18.8727 5.05606 18.8768 5.05818 18.8811C5.06293 18.8906 5.07084 18.9016 5.08363 18.9101C5.09674 18.9189 5.11197 18.923 5.12785 18.923H5.13569C6.91131 20.6912 9.34165 21.7745 12.0284 21.7745C17.4169 21.7745 21.802 17.3893 21.802 12.0009C21.802 6.61231 17.3881 2.22734 11.9999 2.22734ZM11.9999 20.3058C9.97833 20.3058 8.12387 19.5827 6.68416 18.3569L18.3559 6.68514C19.5817 8.12485 20.3048 9.97931 20.3048 12.0009C20.3048 16.5642 16.5632 20.3058 11.9999 20.3058Z" fill="#005655" stroke="#005655" stroke-width="0.1"/>
</svg>
