<svg width="15" height="15" viewBox="0 0 15 15" fill="none" xmlns="http://www.w3.org/2000/svg">
<path d="M4.28492 13.637H10.7159C12.4095 13.637 13.0845 12.6 13.1643 11.3359L13.4834 6.26723C13.5693 4.94177 12.5138 3.81881 11.1822 3.81881C10.8079 3.81881 10.4643 3.60404 10.2924 3.27267L9.85062 2.3829C9.56835 1.82449 8.83198 1.36426 8.20607 1.36426H6.80084C6.16879 1.36426 5.43242 1.82449 5.15015 2.3829L4.70833 3.27267C4.53651 3.60404 4.19287 3.81881 3.81855 3.81881C2.48696 3.81881 1.4315 4.94177 1.51741 6.26723L1.8365 11.3359C1.91014 12.6 2.59128 13.637 4.28492 13.637Z" stroke="white" stroke-width="0.920458" stroke-linecap="round" stroke-linejoin="round"/>
<path d="M6.57993 5.04639H8.42084" stroke="white" stroke-width="0.920458" stroke-linecap="round" stroke-linejoin="round"/>
<path d="M7.50037 11.1825C8.59878 11.1825 9.49469 10.2866 9.49469 9.18817C9.49469 8.08976 8.59878 7.19385 7.50037 7.19385C6.40195 7.19385 5.50604 8.08976 5.50604 9.18817C5.50604 10.2866 6.40195 11.1825 7.50037 11.1825Z" stroke="white" stroke-width="0.920458" stroke-linecap="round" stroke-linejoin="round"/>
</svg>
