<svg width="24" height="24" viewBox="0 0 24 24" fill="none" xmlns="http://www.w3.org/2000/svg">
<path fill-rule="evenodd" clip-rule="evenodd" d="M6.61999 3.07336C9.76538 3.07336 18.1874 3 18.1874 3C22.4589 3 21.9843 7.7998 21.9843 7.7998V14.2002C21.9843 19 19.4346 19 16.2893 19H8.69505C5.54967 19 3 19 3 14.2002C3 14.2002 3 10.3774 3 7.7998C3 5.22222 3.47461 3.07336 6.61999 3.07336Z" stroke="#005655" stroke-width="1.5" stroke-linecap="round" stroke-linejoin="round"/>
<path fill-rule="evenodd" clip-rule="evenodd" d="M12.2054 15.1788L13.9454 16.0938C14.1084 16.1788 14.2994 16.0407 14.2684 15.8597L13.9354 13.9207L15.3444 12.5498C15.4764 12.4208 15.4034 12.1977 15.2214 12.1707L13.2754 11.8878L12.4044 10.1238C12.3234 9.95875 12.0884 9.95875 12.0064 10.1238L11.1354 11.8878L9.19038 12.1707C9.00838 12.1977 8.93538 12.4208 9.06738 12.5498L10.4754 13.9207L10.1424 15.8597C10.1114 16.0407 10.3024 16.1788 10.4654 16.0938L12.2054 15.1788Z" stroke="#005655" stroke-width="1.2" stroke-linecap="round" stroke-linejoin="round"/>
<line x1="3" y1="8.25" x2="22" y2="8.25" stroke="#005655" stroke-width="1.5"/>
</svg>
