<svg width="14" height="14" viewBox="0 0 14 14" fill="none" xmlns="http://www.w3.org/2000/svg">
<path d="M2.48725 12.1145L0.8297 12.2113C0.620318 12.2235 0.439655 12.3624 0.374092 12.5617C0.357653 12.6116 0.384814 12.6654 0.434732 12.6818L3.80156 13.79C3.85148 13.8064 3.90528 13.7792 3.92172 13.7293C3.98728 13.5301 3.92448 13.311 3.76327 13.1768L2.48725 12.1145Z" fill="#F8F6F6"/>
<path d="M3.94729 13.5699C3.94729 13.6233 3.93908 13.6769 3.92185 13.7294C3.90544 13.7794 3.85155 13.8065 3.8015 13.7901L3.33815 13.6375C3.33815 13.6301 3.33842 13.6227 3.33842 13.6153C3.33842 13.4624 3.27141 13.3136 3.14942 13.2122L1.87398 12.1503L2.48722 12.1145L3.76321 13.1769C3.88219 13.2759 3.94729 13.4209 3.94729 13.5699Z" fill="#E5EAEE"/>
<path d="M5.89174 7.95208L7.00268 3.24767L5.5617 2.77338L5.50281 2.75399L4.20864 2.32805C4.12559 2.30073 4.03544 2.34146 4.00109 2.42185L2.1615 6.72426C1.77625 7.62533 2.04854 8.65285 2.871 9.20077C3.28774 9.47843 3.79417 9.57966 4.28681 9.49741C5.08451 9.36423 5.75117 8.75673 5.89174 7.95208Z" fill="#F8F6F6"/>
<path d="M7.00278 3.24759L5.89173 7.95193C5.75114 8.75663 5.08456 9.36413 4.28697 9.49733C3.80939 9.57693 3.31869 9.48421 2.90977 9.22573C3.19479 9.30833 3.4973 9.32584 3.7949 9.27605C4.59249 9.14285 5.25934 8.53535 5.39993 7.73065L6.47707 3.16882C6.485 3.13545 6.48172 3.10208 6.46968 3.07227L7.00278 3.24759Z" fill="#E5EAEE"/>
<path d="M4.28692 9.49702C3.7942 9.57933 3.28791 9.47804 2.87098 9.20058C2.04865 8.65263 1.77639 7.62511 2.1617 6.72393C2.16214 6.72262 2.17158 6.70098 2.18862 6.66138C2.84576 7.0323 3.65437 7.16513 4.39354 7.13545C5.00041 7.11143 5.55367 7.01048 6.10703 7.03972L5.89174 7.95194C5.75134 8.75635 5.0846 9.36393 4.28692 9.49702Z" fill="#FEE45A"/>
<path d="M6.10699 7.03968C6.0801 7.15363 6.05322 7.26758 6.02633 7.38153C5.98691 7.54855 5.9475 7.71559 5.90809 7.88263C5.87915 8.00522 5.8556 8.1241 5.8141 8.24404C5.74575 8.4416 5.64162 8.62486 5.50989 8.78805C5.33347 9.00659 5.10863 9.18575 4.85453 9.31267C4.75365 9.36305 4.65114 9.40345 4.54353 9.43685C4.18141 9.54924 3.77613 9.55799 3.41169 9.4497C3.27947 9.4104 3.1508 9.36037 3.02958 9.29543C2.9891 9.27383 2.94916 9.25058 2.90977 9.22569C3.19479 9.30829 3.4973 9.32579 3.7949 9.27601C4.59249 9.14281 5.25934 8.53531 5.39993 7.73061L5.56159 7.0457C5.74457 7.03449 5.92592 7.03011 6.10699 7.03968Z" fill="#FED402"/>
<path d="M11.5185 12.1145L13.176 12.2113C13.3854 12.2235 13.5661 12.3624 13.6317 12.5617C13.6481 12.6116 13.6209 12.6654 13.571 12.6818L10.2042 13.79C10.1543 13.8064 10.1005 13.7792 10.084 13.7293C10.0185 13.5301 10.0813 13.311 10.2425 13.1768L11.5185 12.1145Z" fill="#F8F6F6"/>
<path d="M13.6363 12.5916C13.6363 12.6315 13.6109 12.6684 13.571 12.6815L13.0398 12.8563C12.9512 12.7439 12.8174 12.6717 12.6689 12.6629L11.0294 12.5215L11.5185 12.1143L13.176 12.2111C13.3853 12.2234 13.5661 12.3623 13.6314 12.5615C13.6347 12.5713 13.6363 12.5814 13.6363 12.5916Z" fill="#E5EAEE"/>
<path d="M8.11373 7.95187L7.00278 3.24745L8.44376 2.77316L8.50265 2.75377L9.79683 2.32781C9.87987 2.30049 9.97002 2.34121 10.0044 2.4216L11.844 6.72402C12.2292 7.62509 11.9569 8.65261 11.1345 9.20053C10.7177 9.47818 10.2113 9.57941 9.71865 9.49716C8.92095 9.36401 8.25429 8.75652 8.11373 7.95187Z" fill="#F8F6F6"/>
<path d="M11.1345 9.20062C10.8585 9.38443 10.5434 9.49083 10.2188 9.51791C10.3651 9.46566 10.5054 9.39564 10.637 9.30812C11.4595 8.76025 11.7316 7.73262 11.3465 6.83163L9.50679 2.52911C9.49147 2.49328 9.46494 2.46538 9.43321 2.44787L9.797 2.32807C9.88015 2.30072 9.97014 2.34147 10.0046 2.42161L11.844 6.72414C12.2294 7.62512 11.957 8.65275 11.1345 9.20062Z" fill="#E5EAEE"/>
<path d="M9.7188 9.49702C10.2115 9.57933 10.7178 9.47804 11.1348 9.20058C11.9571 8.65263 12.2293 7.62511 11.844 6.72393C11.8436 6.72262 11.8342 6.70098 11.8171 6.66138C11.16 7.0323 10.3514 7.16513 9.61218 7.13545C9.00532 7.11143 8.45206 7.01048 7.8987 7.03972L8.11399 7.95194C8.25439 8.75635 8.92113 9.36393 9.7188 9.49702Z" fill="#FEE45A"/>
<path d="M11.7001 8.63102C11.6337 8.73329 11.5577 8.82911 11.4731 8.9174C11.3733 9.02161 11.2603 9.11652 11.1345 9.2005C10.9816 9.30249 10.8128 9.38225 10.6367 9.43682C10.5007 9.47894 10.3607 9.50575 10.2187 9.51778C10.3651 9.46554 10.5054 9.39552 10.6369 9.30799C11.4468 8.76833 11.7231 7.7634 11.3634 6.87254C11.5204 6.81318 11.6725 6.74289 11.8172 6.66138L11.844 6.72401C12.1197 7.36898 12.0587 8.07878 11.7001 8.63102Z" fill="#FED402"/>
<path d="M6.93033 0.24992C6.81381 0.4834 6.54948 0.905091 6.08649 1.1093C6.02224 1.13764 6.02224 1.2287 6.08649 1.25703C6.54948 1.46122 6.81381 1.88294 6.93033 2.11642C6.96001 2.17588 7.04541 2.17588 7.07508 2.11642C7.1916 1.88294 7.45594 1.46125 7.91893 1.25703C7.98318 1.2287 7.98318 1.13764 7.91893 1.1093C7.45594 0.905119 7.1916 0.4834 7.07508 0.24992C7.04541 0.190456 6.96001 0.190456 6.93033 0.24992V0.24992Z" fill="#FEE45A"/>
<path d="M7.91902 1.25697C7.45589 1.46116 7.19174 1.88288 7.07503 2.1163C7.04549 2.17569 6.96004 2.17569 6.9305 2.1163C6.87634 2.00856 6.7912 1.86056 6.66953 1.71256C6.81116 1.53963 6.89546 1.36674 7.14453 1.25697C7.20884 1.22858 7.20884 1.13736 7.14453 1.10927C6.89544 0.999507 6.81116 0.826585 6.66953 0.653664C6.79117 0.50566 6.87634 0.357383 6.9305 0.249615C6.96004 0.190233 7.04549 0.190233 7.07503 0.249615C7.19174 0.48334 7.45591 0.905059 7.91902 1.10924C7.98332 1.13736 7.98332 1.22858 7.91902 1.25697V1.25697Z" fill="#FED402"/>
<path d="M13.8263 12.4977C13.7338 12.2166 13.4832 12.0239 13.1878 12.0066L11.6695 11.918L10.894 9.56173C11.017 9.5099 11.1356 9.44642 11.2481 9.37147C12.1421 8.77593 12.4646 7.65418 12.0326 6.64359L10.1929 2.34112C10.1161 2.16144 9.91811 2.07214 9.73263 2.13313L7.00273 3.03166L4.27283 2.13316C4.0874 2.07206 3.88935 2.16142 3.81248 2.34115C3.81248 2.34115 1.97194 6.64597 1.97143 6.64723C1.91202 6.78717 1.86295 6.94266 1.83179 7.09141C1.64766 7.97054 1.99391 8.86288 2.75731 9.37147C2.86984 9.44644 2.98841 9.5099 3.11147 9.56173L2.33592 11.918L0.817648 12.0066C0.52227 12.0239 0.27164 12.2166 0.179135 12.4977C0.127384 12.655 0.213216 12.825 0.370492 12.8768L3.73735 13.985C3.81292 14.0099 3.8955 14.0037 3.96653 13.9678C4.03814 13.9317 4.0914 13.8698 4.11645 13.7936C4.20896 13.5126 4.12179 13.2087 3.89443 13.0193L2.72567 12.0462L3.50324 9.68381C3.64971 9.71455 3.79982 9.73044 3.95149 9.73044C4.07392 9.73044 4.19739 9.72027 4.32066 9.6997C5.22674 9.54844 5.93815 8.86318 6.09282 7.99349L7.00275 4.14022L7.91269 7.99349C8.06736 8.86321 8.77877 9.54847 9.68487 9.6997C9.80815 9.72027 9.93156 9.73047 10.054 9.73044C10.2057 9.73044 10.3557 9.71455 10.5022 9.68381L11.2798 12.0462L10.111 13.0193C9.88364 13.2086 9.7965 13.5125 9.889 13.7936C9.91406 13.8698 9.96731 13.9317 10.0389 13.9678C10.1085 14.0029 10.1908 14.0105 10.2681 13.985L10.9564 13.7584C11.0641 13.723 11.1226 13.6071 11.0871 13.4994C11.0517 13.3918 10.9358 13.3332 10.8281 13.3687L10.2635 13.5546C10.2674 13.4708 10.306 13.3908 10.3735 13.3346L11.5872 12.3242L13.1638 12.4162C13.2516 12.4213 13.33 12.4627 13.383 12.5278L11.7346 13.0703C11.6269 13.1058 11.5684 13.2217 11.6039 13.3293C11.6393 13.4369 11.7551 13.4955 11.8629 13.46L13.6349 12.8768C13.7922 12.825 13.878 12.655 13.8263 12.4977V12.4977ZM3.63196 13.3346C3.69949 13.3908 3.73806 13.4707 3.742 13.5546L0.622434 12.5278C0.675388 12.4627 0.753862 12.4213 0.841609 12.4162L2.41825 12.3242L3.63196 13.3346ZM5.94597 6.83016C5.68932 6.82762 5.43719 6.84709 5.21468 6.86679L5.12663 6.87469C5.0138 6.88481 4.93051 6.98451 4.94066 7.09737C4.95078 7.2102 5.05097 7.29359 5.16334 7.28334C5.39099 7.2629 5.61976 7.24291 5.8489 7.2402C5.8489 7.2402 5.77928 7.53509 5.7795 7.53495C5.7795 7.53495 5.69042 7.91277 5.6897 7.91674C5.56717 8.61813 4.98981 9.17202 4.25308 9.29502C3.8042 9.36994 3.35379 9.27585 2.98478 9.03C2.35638 8.61138 2.0766 7.87076 2.24052 7.14409C2.25501 7.07984 2.27274 7.01569 2.29424 6.95188C2.2947 6.95054 2.2952 6.9492 2.29566 6.94786C2.84407 7.20757 3.51568 7.3474 4.21369 7.34477C4.32698 7.34433 4.41845 7.25213 4.41804 7.13883C4.41757 7.02581 4.32583 6.93449 4.21292 6.93449H4.2121C3.56481 6.93741 2.94829 6.80724 2.45179 6.56723L4.17652 2.53338L6.75981 3.38363L5.94597 6.83016ZM7.24564 3.38366L9.82894 2.53341L11.5536 6.56723C11.0101 6.83049 10.3316 6.95918 9.62007 6.93071C9.39111 6.92166 9.16622 6.90106 8.94877 6.88112C8.64436 6.85325 8.35407 6.82704 8.05948 6.83016L7.24564 3.38366ZM9.75238 9.29502C9.01559 9.17202 8.43826 8.61813 8.31572 7.91674C8.31504 7.91277 8.15653 7.24009 8.15653 7.24009C8.40161 7.24294 8.65112 7.2658 8.91135 7.28966C9.13405 7.31006 9.3643 7.33118 9.60374 7.34064C10.3716 7.37141 11.1099 7.23282 11.7098 6.94797C11.7104 6.94958 11.711 6.95122 11.7116 6.95284C11.7196 6.97672 11.779 7.20169 11.7913 7.28613C11.7914 7.28607 11.7915 7.28602 11.7915 7.28594C11.8911 7.96572 11.6082 8.63859 11.0207 9.02998C10.6517 9.27585 10.2011 9.36994 9.75238 9.29502V9.29502Z" fill="white"/>
<path d="M10.4096 1.16529C10.4379 1.17858 10.4676 1.18487 10.4968 1.18487C10.5738 1.18487 10.6476 1.1413 10.6826 1.06701L10.8607 0.688538C10.909 0.586021 10.865 0.463811 10.7624 0.415589C10.6599 0.367312 10.5377 0.411322 10.4895 0.513866L10.3114 0.892341C10.2631 0.99483 10.3071 1.11704 10.4096 1.16529Z" fill="white"/>
<path d="M11.7845 3.14355C11.7934 3.25063 11.8831 3.33157 11.9887 3.33157C11.9944 3.33157 12.0002 3.33132 12.006 3.33083L12.4229 3.29585C12.5358 3.28638 12.6196 3.18717 12.6102 3.07426C12.6007 2.96135 12.5007 2.87735 12.3886 2.88698L11.9717 2.92197C11.8588 2.93146 11.775 3.03066 11.7845 3.14355Z" fill="white"/>
<path d="M11.5308 2.05818C11.5712 2.05818 11.612 2.04628 11.6476 2.0215L11.9912 1.78279C12.0842 1.71813 12.1072 1.59029 12.0425 1.49726C11.9779 1.40424 11.8501 1.38123 11.757 1.44587L11.4135 1.68457C11.3205 1.74923 11.2975 1.87708 11.3621 1.9701C11.402 2.02743 11.4658 2.05818 11.5308 2.05818Z" fill="white"/>
<path d="M3.32279 1.067C3.35775 1.14129 3.43154 1.18486 3.50854 1.18486C3.53778 1.18486 3.56754 1.17857 3.59574 1.16527C3.69826 1.11702 3.74224 0.994814 3.69402 0.892324L3.5159 0.51385C3.46765 0.411333 3.34544 0.367323 3.24295 0.415573C3.14043 0.463822 3.09645 0.586032 3.14467 0.688522L3.32279 1.067Z" fill="white"/>
<path d="M1.58254 3.29583L1.99936 3.33081C2.00519 3.33131 2.01099 3.33155 2.01676 3.33155C2.12226 3.33155 2.21197 3.25062 2.22095 3.14353C2.23044 3.03065 2.14657 2.93144 2.03366 2.92195L1.61684 2.88697C1.50464 2.87745 1.40472 2.96131 1.39526 3.07425C1.3858 3.18716 1.46963 3.28637 1.58254 3.29583Z" fill="white"/>
<path d="M2.01426 1.78284L2.35778 2.02154C2.3935 2.04635 2.43428 2.05822 2.47466 2.05822C2.53959 2.05822 2.60346 2.02748 2.64331 1.97012C2.70794 1.87709 2.68494 1.74925 2.59192 1.68459L2.2484 1.44588C2.15526 1.3812 2.0275 1.40428 1.96287 1.49728C1.89823 1.59033 1.92124 1.71818 2.01426 1.78284V1.78284Z" fill="white"/>
<path d="M6.00379 1.44456C6.40781 1.62276 6.64274 1.99927 6.74685 2.20783C6.7955 2.30537 6.89356 2.36595 7.00273 2.36598H7.00278C7.11192 2.36598 7.20997 2.30539 7.25872 2.20783C7.36282 1.99927 7.59778 1.62273 8.00177 1.44456C8.10538 1.39888 8.17234 1.2962 8.17234 1.18299C8.17234 1.06978 8.10538 0.967097 8.00177 0.921419C7.59775 0.743218 7.36282 0.366713 7.25866 0.158069C7.20998 0.0605581 7.11192 0 7.00278 0C7.00275 0 7.00273 0 7.00273 0C6.89356 0 6.7955 0.0606128 6.74685 0.158124C6.64274 0.366686 6.40781 0.743218 6.00379 0.921392C5.90018 0.96707 5.83322 1.06975 5.83322 1.18296C5.83322 1.29617 5.90018 1.39888 6.00379 1.44456V1.44456ZM7.00278 0.539717C7.13265 0.747786 7.33418 0.999838 7.62321 1.18299C7.33421 1.36611 7.13265 1.61819 7.00278 1.82626C6.87291 1.61819 6.67138 1.36614 6.38235 1.18299C6.67138 0.999865 6.87291 0.747813 7.00278 0.539717Z" fill="white"/>
</svg>
