<svg width="428" height="297" viewBox="0 0 428 297" fill="none" xmlns="http://www.w3.org/2000/svg">
<path d="M16.224 186.292H0V295.048C0 295.85 0.650029 296.5 1.45187 296.5H426.548C427.35 296.5 428 295.85 428 295.048V22.2044L410.262 44.3048C409.523 45.2248 408.054 44.9268 407.733 43.7918L399.592 15.0561C399.415 14.4313 398.844 14 398.195 14H375.138C374.731 14 374.343 14.1703 374.069 14.4695L358.271 31.6604C357.836 32.1344 357.14 32.265 356.562 31.9812L338.222 22.9723C337.408 22.5726 336.431 23.0081 336.185 23.8804L321.803 74.7429C321.475 75.9027 319.959 76.181 319.24 75.2132L304.169 54.9076C303.517 54.0289 302.164 54.1601 301.693 55.1476L299.598 59.5379C299.198 60.3774 298.122 60.629 297.391 60.0542L289.744 54.0444C289.033 53.4851 287.988 53.7062 287.564 54.5059L275.868 76.5682C275.552 77.1633 274.869 77.4633 274.217 77.2926L261.061 73.846C260.291 73.6442 259.502 74.1004 259.293 74.8686L244.195 130.242C244.079 130.666 243.778 131.015 243.375 131.19L221.771 140.624C221.07 140.93 220.251 140.639 219.9 139.96L204.903 110.946C204.352 109.88 202.819 109.905 202.303 110.988L195.978 124.242C195.82 124.574 195.541 124.834 195.199 124.968L180.716 130.66C180.309 130.82 179.996 131.154 179.864 131.571L171.173 158.893C171.027 159.352 170.662 159.709 170.2 159.846L150.549 165.637C150.233 165.73 149.958 165.928 149.77 166.197L136.807 184.721C136.255 185.509 135.103 185.553 134.493 184.808L124.823 172.985C124.339 172.394 123.48 172.279 122.857 172.722L92.2088 194.542C91.6925 194.91 90.9975 194.9 90.4918 194.518L80.4902 186.966C79.9641 186.569 79.2364 186.576 78.7181 186.983L69.5534 194.186C69.2976 194.387 68.9817 194.496 68.6563 194.496H48.9151C48.5105 194.496 48.1243 194.327 47.8495 194.031L28.6029 173.232C27.9814 172.56 26.9011 172.624 26.363 173.364L17.3983 185.694C17.1251 186.07 16.6885 186.292 16.224 186.292Z" fill="url(#paint0_linear_305_7742)"/>
<path d="M1.00018 186.292H15.486C16.4152 186.292 17.2882 185.847 17.8346 185.096L25.3251 174.793C26.4013 173.313 28.5619 173.186 29.8049 174.529L47.42 193.565C47.9695 194.159 48.742 194.496 49.5512 194.496H68.1555C68.8063 194.496 69.4382 194.278 69.9498 193.876L77.7801 187.722C78.8445 186.885 80.3457 186.895 81.3989 187.746L89.2828 194.113C90.2977 194.933 91.7347 194.975 92.796 194.216L121.751 173.517C122.996 172.627 124.719 172.856 125.688 174.04L133.281 183.324C134.499 184.813 136.804 184.727 137.908 183.15L149.48 166.614C149.857 166.075 150.406 165.68 151.038 165.494L169.462 160.064C170.386 159.791 171.116 159.077 171.408 158.158L179.656 132.229C179.921 131.396 180.547 130.727 181.361 130.407L194.616 125.198C195.331 124.917 195.906 124.364 196.214 123.659L201.011 112.691C201.998 110.434 205.172 110.354 206.271 112.56L219.295 138.697C219.985 140.081 221.638 140.682 223.056 140.063L242.74 131.469C243.545 131.117 244.148 130.419 244.379 129.571L258.916 76.2554C259.335 74.7191 260.913 73.8068 262.453 74.2103L273.106 77.0012C274.41 77.3426 275.777 76.7427 276.408 75.5524L286.687 56.1639C287.556 54.5242 289.719 54.1096 291.133 55.3117L295.675 59.1735C297.256 60.517 299.694 59.8182 300.323 57.8416L300.659 56.7878C301.399 54.4623 304.503 54.0314 305.848 56.0675L317.477 73.6676C318.852 75.748 322.036 75.2425 322.699 72.8388L335.728 25.5849C336.212 23.8296 338.173 22.9477 339.807 23.7504L355.589 31.5025C356.745 32.0701 358.136 31.809 359.007 30.861L373.639 14.939C374.188 14.3406 374.964 14 375.777 14H397.053C398.373 14 399.527 14.8907 399.862 16.1679L406.852 42.8513C407.477 45.2362 410.602 45.8066 412.029 43.7962L427.5 22" stroke="#C9F001" stroke-width="2" stroke-linecap="round"/>
<rect x="329" y="15" width="18" height="18" rx="9" fill="white" fill-opacity="0.25"/>
<rect x="329" y="15" width="18" height="18" rx="9" stroke="white" stroke-width="2"/>
<rect width="2" height="100" transform="translate(337 33)" fill="url(#paint1_linear_305_7742)"/>
<path d="M320.165 9V5.916H319.229V5.148H320.165V4.164H319.229V3.396H320.165V0.431999H321.413L322.553 3.396H323.969V0.431999H324.917V3.396H325.853V4.164H324.917V5.148H325.853V5.916H324.917V9H323.657L322.517 5.916H321.101V9H320.165ZM321.101 5.148H322.229L321.869 4.164H321.077L321.101 5.148ZM323.969 7.308H324.017L323.981 5.916H323.477L323.969 7.308ZM321.077 3.396H321.581L321.077 1.908H321.029L321.077 3.396ZM323.189 5.148H323.993L323.969 4.164H322.829L323.189 5.148ZM326.577 8.994L326.583 8.19L330.489 4.662C330.825 4.358 331.047 4.07 331.155 3.798C331.267 3.522 331.323 3.234 331.323 2.934C331.323 2.578 331.239 2.256 331.071 1.968C330.903 1.68 330.677 1.452 330.393 1.284C330.109 1.112 329.791 1.026 329.439 1.026C329.071 1.026 328.743 1.114 328.455 1.29C328.167 1.466 327.939 1.698 327.771 1.986C327.607 2.274 327.527 2.588 327.531 2.928H326.631C326.631 2.404 326.755 1.934 327.003 1.518C327.251 1.102 327.587 0.776 328.011 0.539999C328.435 0.3 328.915 0.18 329.451 0.18C329.975 0.18 330.445 0.304 330.861 0.551999C331.281 0.795999 331.611 1.128 331.851 1.548C332.095 1.964 332.217 2.428 332.217 2.94C332.217 3.3 332.173 3.618 332.085 3.894C332.001 4.166 331.867 4.42 331.683 4.656C331.503 4.888 331.273 5.128 330.993 5.376L327.525 8.508L327.387 8.148H332.217V8.994H326.577ZM333.54 10.254L333.594 9.816C333.754 9.828 333.87 9.796 333.942 9.72C334.014 9.644 334.058 9.542 334.074 9.414C334.09 9.286 334.094 9.148 334.086 9H333.54V7.734H334.566V9.24C334.566 9.608 334.472 9.884 334.284 10.068C334.1 10.252 333.852 10.314 333.54 10.254ZM339.17 9.174C338.742 9.174 338.348 9.098 337.988 8.946C337.628 8.794 337.318 8.578 337.058 8.298C336.798 8.014 336.608 7.676 336.488 7.284L337.328 7.032C337.472 7.46 337.708 7.784 338.036 8.004C338.368 8.224 338.742 8.33 339.158 8.322C339.542 8.314 339.872 8.228 340.148 8.064C340.428 7.9 340.642 7.672 340.79 7.38C340.938 7.088 341.012 6.75 341.012 6.366C341.012 5.778 340.84 5.306 340.496 4.95C340.156 4.59 339.706 4.41 339.146 4.41C338.99 4.41 338.826 4.432 338.654 4.476C338.482 4.516 338.322 4.574 338.174 4.65L337.73 3.948L341.09 0.845999L341.234 1.206H336.83V0.36H341.822V1.218L338.894 4.014L338.882 3.666C339.482 3.59 340.01 3.658 340.466 3.87C340.922 4.082 341.278 4.406 341.534 4.842C341.794 5.274 341.924 5.782 341.924 6.366C341.924 6.918 341.804 7.406 341.564 7.83C341.328 8.25 341.002 8.58 340.586 8.82C340.17 9.056 339.698 9.174 339.17 9.174ZM346.031 9.18C345.583 9.18 345.169 9.088 344.789 8.904C344.409 8.72 344.085 8.466 343.817 8.142C343.549 7.818 343.357 7.446 343.241 7.026L344.087 6.798C344.163 7.11 344.301 7.38 344.501 7.608C344.701 7.832 344.935 8.006 345.203 8.13C345.475 8.254 345.759 8.316 346.055 8.316C346.439 8.316 346.783 8.224 347.087 8.04C347.395 7.852 347.639 7.604 347.819 7.296C347.999 6.988 348.089 6.65 348.089 6.282C348.089 5.902 347.995 5.56 347.807 5.256C347.619 4.948 347.371 4.704 347.063 4.524C346.755 4.344 346.419 4.254 346.055 4.254C345.647 4.254 345.295 4.344 344.999 4.524C344.703 4.7 344.467 4.922 344.291 5.19L343.487 4.854L343.751 0.36H348.365V1.206H344.141L344.579 0.792L344.345 4.626L344.123 4.332C344.371 4.048 344.671 3.826 345.023 3.666C345.375 3.506 345.745 3.426 346.133 3.426C346.665 3.426 347.145 3.554 347.573 3.81C348.001 4.062 348.341 4.404 348.593 4.836C348.845 5.268 348.971 5.75 348.971 6.282C348.971 6.81 348.837 7.294 348.569 7.734C348.301 8.17 347.945 8.52 347.501 8.784C347.057 9.048 346.567 9.18 346.031 9.18ZM353.226 9.18C352.694 9.18 352.214 9.056 351.786 8.808C351.362 8.56 351.026 8.224 350.778 7.8C350.53 7.372 350.406 6.892 350.406 6.36V3C350.406 2.468 350.53 1.99 350.778 1.566C351.026 1.138 351.362 0.799999 351.786 0.551999C352.214 0.304 352.694 0.18 353.226 0.18C353.758 0.18 354.236 0.304 354.66 0.551999C355.088 0.799999 355.426 1.138 355.674 1.566C355.922 1.99 356.046 2.468 356.046 3V6.36C356.046 6.892 355.922 7.372 355.674 7.8C355.426 8.224 355.088 8.56 354.66 8.808C354.236 9.056 353.758 9.18 353.226 9.18ZM353.226 8.328C353.582 8.328 353.906 8.242 354.198 8.07C354.49 7.894 354.722 7.66 354.894 7.368C355.066 7.076 355.152 6.754 355.152 6.402V2.958C355.152 2.602 355.066 2.278 354.894 1.986C354.722 1.694 354.49 1.462 354.198 1.29C353.906 1.114 353.582 1.026 353.226 1.026C352.87 1.026 352.546 1.114 352.254 1.29C351.962 1.462 351.73 1.694 351.558 1.986C351.386 2.278 351.3 2.602 351.3 2.958V6.402C351.3 6.754 351.386 7.076 351.558 7.368C351.73 7.66 351.962 7.894 352.254 8.07C352.546 8.242 352.87 8.328 353.226 8.328Z" fill="white"/>
<defs>
<linearGradient id="paint0_linear_305_7742" x1="214" y1="-116.5" x2="214" y2="314.5" gradientUnits="userSpaceOnUse">
<stop offset="0.0992787" stop-color="#C9F001" stop-opacity="0.75"/>
<stop offset="0.851446" stop-color="#C9F001" stop-opacity="0"/>
</linearGradient>
<linearGradient id="paint1_linear_305_7742" x1="1" y1="0" x2="1" y2="100" gradientUnits="userSpaceOnUse">
<stop offset="0.461677" stop-color="white"/>
<stop offset="0.906453" stop-color="white" stop-opacity="0"/>
</linearGradient>
</defs>
</svg>
