<svg width="32" height="32" viewBox="0 0 32 32" fill="none" xmlns="http://www.w3.org/2000/svg">
<path d="M22.7083 19.976C21.8686 19.7953 21.2044 20.1852 20.6163 20.5256C20.014 20.8765 18.8687 21.8055 18.2122 21.5677C14.8511 20.1839 11.6899 17.242 10.3215 13.8674C10.0803 13.1969 11.005 12.0443 11.3533 11.4349C11.6912 10.845 12.073 10.1745 11.8988 9.32857C11.7415 8.56842 9.70626 5.97869 8.98658 5.27051C8.51195 4.80272 8.02571 4.54544 7.52658 4.50385C5.64999 4.42329 3.55414 6.92726 3.18656 7.52629C2.26567 8.80361 2.27083 10.5032 3.20203 12.5641C5.44621 18.0996 13.9341 26.4535 19.4903 28.7821C20.5157 29.2616 21.4533 29.502 22.2956 29.502C23.1197 29.502 23.8536 29.272 24.4843 28.8159C24.9602 28.5417 27.5668 26.3418 27.4984 24.4148C27.4571 23.9236 27.2005 23.4324 26.7388 22.9568C26.0358 22.2304 23.4628 20.1345 22.7083 19.976Z" fill="#C9F001"/>
<path fill-rule="evenodd" clip-rule="evenodd" d="M5.73791 6.09067C6.13332 5.43598 8.31187 3.05471 9.86652 3.12659C10.3312 3.1651 10.7421 3.44624 11.0758 3.7723C11.8422 4.5207 14.0362 7.35127 14.1607 7.94691C14.4637 9.40776 12.7229 10.2499 13.2557 11.7223C14.6139 15.0458 16.9542 17.386 20.2792 18.7429C21.7504 19.2756 22.5925 17.5349 24.0535 17.8391C24.6479 17.9637 27.4799 20.1575 28.2283 20.9239C28.5531 21.2564 28.8355 21.6684 28.874 22.1331C28.9318 23.7699 26.4028 25.9791 25.9098 26.2615C24.7467 27.0934 23.2293 27.0793 21.3794 26.2192C16.2173 24.0715 7.96782 15.9778 5.78028 10.6209C4.94326 8.78132 4.88549 7.25371 5.73791 6.09067Z" stroke="#005655" stroke-width="1.875" stroke-linecap="round" stroke-linejoin="round"/>
</svg>
