<svg width="392" height="32" viewBox="0 0 392 32" fill="none" xmlns="http://www.w3.org/2000/svg">
<path d="M10.737 21.5V13.03L8.84 14.185V12.554L10.737 11.42H12.228V21.5H10.737ZM14.8863 21.5V11.42H18.0433C18.1366 11.42 18.3093 11.4223 18.5613 11.427C18.8179 11.4317 19.0629 11.4503 19.2963 11.483C20.0849 11.581 20.7476 11.8633 21.2843 12.33C21.8256 12.7967 22.2339 13.3893 22.5093 14.108C22.7846 14.822 22.9223 15.606 22.9223 16.46C22.9223 17.3187 22.7846 18.1073 22.5093 18.826C22.2339 19.54 21.8256 20.1303 21.2843 20.597C20.7476 21.059 20.0849 21.339 19.2963 21.437C19.0629 21.4697 18.8179 21.4883 18.5613 21.493C18.3093 21.4977 18.1366 21.5 18.0433 21.5H14.8863ZM16.3843 20.107H18.0433C18.2019 20.107 18.3909 20.1023 18.6103 20.093C18.8296 20.0837 19.0233 20.065 19.1913 20.037C19.7046 19.939 20.1199 19.7173 20.4373 19.372C20.7593 19.022 20.9949 18.5927 21.1443 18.084C21.2936 17.5753 21.3683 17.034 21.3683 16.46C21.3683 15.8673 21.2913 15.319 21.1372 14.815C20.9832 14.3063 20.7453 13.8817 20.4233 13.541C20.1059 13.1957 19.6953 12.9763 19.1913 12.883C19.0233 12.8503 18.8273 12.8317 18.6033 12.827C18.3839 12.8177 18.1973 12.813 18.0433 12.813H16.3843V20.107Z" fill="white"/>
<path d="M80.737 21.5V13.03L78.84 14.185V12.554L80.737 11.42H82.228V21.5H80.737ZM87.0213 21.5L84.0953 11.42H85.6283L87.7493 19.043L89.8703 11.427L91.4103 11.42L93.5313 19.043L95.6523 11.42H97.1923L94.2593 21.5H92.8033L90.6403 13.961L88.4773 21.5H87.0213Z" fill="white"/>
<path d="M153.737 21.5V13.03L151.84 14.185V12.554L153.737 11.42H155.228V21.5H153.737ZM157.886 21.5V11.42H159.209L162.863 19.001L166.496 11.42H167.833V21.493H166.447V14.598L163.192 21.5H162.527L159.265 14.598V21.5H157.886Z" fill="#FFFFDE"/>
<path d="M176 30H144V34H176V30Z" fill="#C9F001" mask="url(#path-3-inside-1_305_7749)"/>
<path d="M225.945 21.71C225.292 21.71 224.704 21.556 224.181 21.248C223.658 20.9353 223.243 20.5083 222.935 19.967C222.632 19.4257 222.48 18.8097 222.48 18.119V14.906C222.48 14.1733 222.632 13.5293 222.935 12.974C223.243 12.4187 223.668 11.987 224.209 11.679C224.755 11.371 225.383 11.217 226.092 11.217C226.624 11.217 227.123 11.3173 227.59 11.518C228.057 11.7187 228.46 12.0173 228.801 12.414L227.73 13.415C227.539 13.1677 227.298 12.9717 227.009 12.827C226.724 12.6777 226.419 12.603 226.092 12.603C225.672 12.603 225.303 12.7033 224.986 12.904C224.669 13.1 224.419 13.359 224.237 13.681C224.06 14.003 223.971 14.3483 223.971 14.717V16.565L223.684 16.243C223.973 15.865 224.333 15.5663 224.762 15.347C225.191 15.1277 225.651 15.018 226.141 15.018C226.766 15.018 227.324 15.165 227.814 15.459C228.309 15.7483 228.696 16.1427 228.976 16.642C229.261 17.1413 229.403 17.7037 229.403 18.329C229.403 18.959 229.244 19.5307 228.927 20.044C228.614 20.5527 228.194 20.9587 227.667 21.262C227.144 21.5607 226.57 21.71 225.945 21.71ZM225.945 20.303C226.309 20.303 226.64 20.2143 226.939 20.037C227.238 19.8597 227.476 19.6217 227.653 19.323C227.83 19.0243 227.919 18.693 227.919 18.329C227.919 17.965 227.83 17.6337 227.653 17.335C227.48 17.0363 227.245 16.7983 226.946 16.621C226.647 16.4437 226.316 16.355 225.952 16.355C225.588 16.355 225.254 16.4437 224.951 16.621C224.652 16.7983 224.414 17.0363 224.237 17.335C224.06 17.6337 223.971 17.965 223.971 18.329C223.971 18.6883 224.06 19.0173 224.237 19.316C224.414 19.6147 224.652 19.855 224.951 20.037C225.25 20.2143 225.581 20.303 225.945 20.303ZM231.175 21.5V11.42H232.498L236.152 19.001L239.785 11.42H241.122V21.493H239.736V14.598L236.481 21.5H235.816L232.554 14.598V21.5H231.175Z" fill="white"/>
<path d="M299.237 21.5V13.03L297.34 14.185V12.554L299.237 11.42H300.728V21.5H299.237ZM305.815 21.5V17.335L302.406 11.42H304.114L306.557 15.655L309 11.42H310.708L307.299 17.335V21.5H305.815Z" fill="white"/>
<path d="M367.78 21.5L371.056 11.42H373.163L376.439 21.5H374.92L371.903 12.302H372.281L369.299 21.5H367.78ZM369.481 19.225V17.853H374.745V19.225H369.481ZM377.835 21.5V11.21H379.298V21.5H377.835ZM381.54 21.5V11.21H383.003V21.5H381.54Z" fill="white"/>
</svg>
