<svg width="74" height="74" viewBox="0 0 74 74" fill="none" xmlns="http://www.w3.org/2000/svg">
<path fill-rule="evenodd" clip-rule="evenodd" d="M31.2211 14.2634C29.2659 14.2634 27.6026 15.622 27.1357 17.4532H42.8352C42.3683 15.622 40.705 14.2634 38.7498 14.2634H31.2211ZM47.2708 17.4532H53.0486C59.1767 17.4532 64.1667 22.5038 64.1667 28.7063C64.1667 28.7063 63.9916 31.3321 63.9333 34.9886C63.9274 35.278 63.7873 35.5616 63.5568 35.7329C62.1532 36.7696 60.8692 37.6261 60.7525 37.6852C55.9084 40.9341 50.2793 43.2202 44.2826 44.3573C43.8916 44.4341 43.5064 44.2303 43.3079 43.8818C41.6271 40.9696 38.4872 39.0734 34.9854 39.0734C31.507 39.0734 28.338 40.9489 26.6075 43.8641C26.4062 44.2067 26.0268 44.4046 25.6387 44.3307C19.6916 43.1906 14.0625 40.9075 9.24758 37.7147L6.44618 35.7654C6.21273 35.6177 6.06682 35.3519 6.06682 35.0565C5.97928 33.5502 5.83337 28.7063 5.83337 28.7063C5.83337 22.5038 10.8234 17.4532 16.9514 17.4532H22.7001C23.2546 13.1705 26.8439 9.83301 31.2211 9.83301H38.7498C43.127 9.83301 46.7163 13.1705 47.2708 17.4532ZM63.1745 41.3775L63.0578 41.4366C57.1632 45.3944 50.0721 48.023 42.6309 49.1159C41.5804 49.2635 40.5299 48.5842 40.2381 47.5209C39.5961 45.099 37.5242 43.5041 35.0438 43.5041H35.0146H34.9562C32.4758 43.5041 30.404 45.099 29.762 47.5209C29.4702 48.5842 28.4196 49.2635 27.3691 49.1159C19.9279 48.023 12.8369 45.3944 6.94224 41.4366C6.91306 41.407 6.62125 41.2298 6.3878 41.3775C6.12517 41.5252 6.12517 41.8796 6.12517 41.8796L6.32944 56.9428C6.32944 63.1453 11.2902 68.1664 17.4183 68.1664H52.5525C58.6806 68.1664 63.6414 63.1453 63.6414 56.9428L63.8749 41.8796C63.8749 41.8796 63.8749 41.5252 63.6122 41.3775C63.4663 41.2889 63.2912 41.3184 63.1745 41.3775ZM37.1741 53.7536C37.1741 54.9941 36.2111 55.9687 34.9855 55.9687C33.789 55.9687 32.7969 54.9941 32.7969 53.7536V49.9434C32.7969 48.7325 33.789 47.7283 34.9855 47.7283C36.2111 47.7283 37.1741 48.7325 37.1741 49.9434V53.7536Z" fill="#C9F001"/>
<path d="M12.1786 45.1416C12.1786 45.1416 12.5928 50.2108 12.689 51.8091C12.8173 53.9529 13.6457 56.3474 15.0282 58.0099C16.9794 60.3666 19.2778 61.1979 22.3461 61.2037C25.954 61.2095 52.1894 61.2095 55.7973 61.2037C58.8657 61.1979 61.164 60.3666 63.1153 58.0099C64.4978 56.3474 65.3261 53.9529 65.4573 51.8091C65.5507 50.2108 65.9648 45.1416 65.9648 45.1416" stroke="#005655" stroke-width="3" stroke-linecap="round" stroke-linejoin="round"/>
<path d="M28.7799 15.5445V14.4625C28.7799 10.9041 31.6616 8.02246 35.2199 8.02246H42.7507C46.3062 8.02246 49.1907 10.9041 49.1907 14.4625L49.1937 15.5445" stroke="#005655" stroke-width="3" stroke-linecap="round" stroke-linejoin="round"/>
<path d="M38.9854 48.6453V44.8711" stroke="#005655" stroke-width="3" stroke-linecap="round" stroke-linejoin="round"/>
<path fill-rule="evenodd" clip-rule="evenodd" d="M12.0205 24.468V34.5801C17.6147 38.2697 24.3172 40.8538 31.673 41.8776C32.5538 38.6663 35.4501 36.3126 38.9705 36.3126C42.4355 36.3126 45.3901 38.6663 46.2126 41.9067C53.5976 40.883 60.3263 38.2988 65.9497 34.5801V24.468C65.9497 19.5272 61.9743 15.5488 57.0334 15.5488H20.9659C16.0251 15.5488 12.0205 19.5272 12.0205 24.468Z" stroke="#005655" stroke-width="3" stroke-linecap="round" stroke-linejoin="round"/>
</svg>
