<svg width="74" height="84" viewBox="0 0 74 84" fill="none" xmlns="http://www.w3.org/2000/svg">
<path opacity="0.1" fill-rule="evenodd" clip-rule="evenodd" d="M57.6816 -27C26.2491 -9.35773 7.73652 37.8658 44.6839 68.6942L43.4786 79.8785C25.1942 69.0364 13.2664 63.2155 -12.6089 58.4928C-0.637666 58.2522 11.1632 62.7246 34.9787 71.7502C36.2278 72.2235 37.5098 72.7094 38.8267 73.2078C32.4803 40.755 -13.5154 29.5342 -41.7744 63.4035C-28.3657 65.8043 -20.7771 71.3958 -13.4026 76.8295C-9.52276 79.6883 -5.70219 82.5034 -1.12449 84.7872C10.2566 88.2678 22.44 84.3002 29.8671 81.8815C32.7579 80.9401 34.9282 80.2333 36.05 80.2918L46.2109 85.6358L46.2137 85.6382C50.7857 64.68 48.7274 6.26433 48.7274 6.26433C52.0661 31.0023 53.5628 44.837 52.6931 69.1099C65.2142 60.7757 77.2499 44.6862 72.6412 25.1732C70.8493 17.5863 67.3255 9.00486 64.0234 0.9631C58.8325 -11.6781 54.1893 -22.9857 57.6816 -27Z" fill="#0863E8"/>
</svg>
