<svg width="281" height="273" viewBox="0 0 281 273" fill="none" xmlns="http://www.w3.org/2000/svg">
<path d="M271.882 114.292L242.821 154.407C239.228 159.368 238.259 165.761 240.225 171.564L250.148 200.864C254.008 212.258 246.385 224.311 234.436 225.709L192.663 230.591C185.207 231.463 178.973 236.662 176.778 243.84L172.036 259.343C167.367 274.608 147.051 277.575 138.213 264.282L84.2873 183.188C81.2858 178.674 76.4918 175.666 71.1213 174.926L17.3461 167.525C1.98018 165.41 -4.44203 146.711 6.38234 135.601L28.2228 113.184C36.6948 104.488 34.8928 90.1754 24.5293 83.852C11.2383 75.7409 12.8998 55.9407 27.3569 50.1581L45.0537 43.0808C52.2644 40.1972 56.9774 33.1974 56.9393 25.4317L56.9107 19.6586C56.8262 2.64071 77.5101 -5.81702 89.3731 6.3854L111.914 29.5706C118.074 35.907 127.803 37.1303 135.34 32.5173L183.865 2.81818C197.025 -5.23578 213.771 5.0133 212.585 20.3959L209.214 64.1483C208.364 75.1859 217.137 84.5893 228.207 84.5071L256.429 84.2951C271.929 84.1784 280.976 101.739 271.882 114.292Z" fill="#C9F001" fill-opacity="0.65"/>
<path d="M180.271 195.822C182.344 190.791 184.763 186.225 187.592 182.024C192.219 175.156 197.198 171.498 202.397 171.147C202.517 171.139 202.638 171.133 202.758 171.128C204.368 171.065 205.647 171.378 206.559 172.059C208.426 173.458 208.555 176.384 207.598 178.405C206.517 180.693 204.311 182.354 202.297 183.675C199.814 185.304 197.152 186.768 194.578 188.184C191.274 190.003 187.855 191.882 184.736 194.149C183.982 194.697 183.261 195.266 182.572 195.85C176.278 204.388 168.714 216.659 166.135 229.067C165.585 231.717 165.354 233.952 165.288 235.75C167.342 231.047 172.299 224.118 184.246 217.747C188.101 214.303 192.064 211.38 196.222 208.91C203.343 204.683 209.408 203.507 214.258 205.414C214.369 205.458 214.481 205.503 214.591 205.551C216.074 206.183 217.095 207.013 217.627 208.019C218.717 210.082 217.581 212.782 215.851 214.199C213.894 215.805 211.191 216.361 208.805 216.693C205.864 217.103 202.83 217.286 199.898 217.466C196.133 217.696 192.24 217.932 188.451 218.647C187.272 218.869 186.128 219.144 185.022 219.465C185.021 219.465 185.019 219.466 185.019 219.466C185.567 219.567 186.2 219.714 186.927 219.923C190.106 220.06 193.136 220.449 196.068 221.104C201.591 222.339 205.157 224.596 206.675 227.818C206.71 227.892 206.744 227.967 206.776 228.043C207.217 229.053 207.336 229.944 207.13 230.693C206.705 232.229 204.876 233.04 203.351 232.934C201.625 232.815 200.02 231.826 198.677 230.873C197.023 229.698 195.428 228.368 193.886 227.083C191.906 225.432 189.859 223.725 187.64 222.304C187.428 222.168 187.215 222.037 187.001 221.909C183.941 220.949 182.64 221.153 182.577 221.163C182.407 221.201 182.241 221.188 182.086 221.139C174.968 225.457 171.043 229.815 168.907 233.076C165.781 237.848 165.709 241.347 165.708 241.392C165.708 241.41 165.703 241.426 165.703 241.442C165.7 241.476 165.698 241.508 165.692 241.541C165.687 241.571 165.68 241.599 165.673 241.628C165.665 241.658 165.656 241.686 165.646 241.715C165.635 241.744 165.623 241.772 165.609 241.8C165.596 241.826 165.581 241.852 165.566 241.877C165.55 241.903 165.534 241.927 165.516 241.951C165.498 241.975 165.478 241.998 165.457 242.021C165.437 242.043 165.417 242.063 165.395 242.082C165.373 242.102 165.349 242.122 165.324 242.14C165.299 242.158 165.274 242.175 165.248 242.19C165.223 242.206 165.198 242.219 165.17 242.232C165.141 242.246 165.108 242.258 165.076 242.27C165.061 242.276 165.046 242.284 165.03 242.289C165.02 242.291 165.012 242.29 165.002 242.293C164.942 242.308 164.879 242.318 164.814 242.321C164.801 242.322 164.788 242.325 164.775 242.325C164.773 242.325 164.77 242.326 164.768 242.326C164.699 242.326 164.631 242.315 164.566 242.301C164.558 242.299 164.55 242.3 164.541 242.299C164.541 242.299 164.541 242.299 164.54 242.299C164.539 242.299 164.54 242.299 164.539 242.299C164.469 242.281 164.403 242.253 164.34 242.22C164.326 242.213 164.313 242.206 164.298 242.197C164.238 242.162 164.179 242.121 164.128 242.074C164.121 242.068 164.115 242.059 164.109 242.053C164.063 242.008 164.022 241.957 163.986 241.903C163.978 241.891 163.97 241.879 163.961 241.866C163.924 241.804 163.895 241.738 163.873 241.666C163.872 241.66 163.869 241.657 163.866 241.651C163.813 241.467 162.582 237.076 164.253 228.873C166.762 216.601 173.994 204.51 180.271 195.822Z" fill="#005655"/>
<path d="M201.5 178.807C202.597 178.807 203.486 177.918 203.486 176.821C203.486 175.725 202.597 174.836 201.5 174.836C200.404 174.836 199.515 175.725 199.515 176.821C199.515 177.918 200.404 178.807 201.5 178.807Z" fill="white"/>
<path d="M209.787 213.187C210.883 213.187 211.772 212.298 211.772 211.201C211.772 210.105 210.883 209.216 209.787 209.216C208.69 209.216 207.801 210.105 207.801 211.201C207.801 212.298 208.69 213.187 209.787 213.187Z" fill="white"/>
<path d="M202.67 230.093C203.584 230.093 204.324 229.352 204.324 228.438C204.324 227.525 203.584 226.784 202.67 226.784C201.756 226.784 201.016 227.525 201.016 228.438C201.016 229.352 201.756 230.093 202.67 230.093Z" fill="white"/>
<path d="M73.4144 203.358C77.7737 209.919 81.4195 216.952 84.1458 224.448C85.5287 228.25 86.6852 232.425 85.4846 236.289C84.1732 240.507 80.2368 243.478 76.0454 244.876C65.8071 248.292 54.2526 243.542 46.6917 235.838C39.1309 228.135 34.7537 217.939 30.6374 207.96C27.3965 200.105 24.1688 192.123 19.3104 185.097C17.2273 182.085 6.07775 170.958 9.87009 166.997C15.0298 161.409 32.9362 163.71 45.8115 173.908C56.4167 182.309 65.9595 192.141 73.4144 203.358Z" fill="#005655"/>
<path d="M24.5911 174.444C24.9449 174.025 25.5714 173.974 25.9894 174.327C43.9959 189.55 56.8927 207.814 64.5417 220.455C64.5834 220.524 64.6239 220.592 64.6656 220.661C63.2601 212.238 58.9759 194.774 46.6829 183.366C46.303 183.014 46.2803 182.421 46.6329 182.041C46.9854 181.661 47.5786 181.639 47.9585 181.991C56.9451 190.33 61.6915 201.694 64.0903 209.759C66.2854 217.138 66.9607 223.041 67.1287 224.847C73.6819 236.288 76.9299 244.419 76.9668 244.511C77.1681 245.02 76.9192 245.597 76.4094 245.799C76.4047 245.801 76.3999 245.803 76.3951 245.804C75.8889 245.996 75.3208 245.746 75.1207 245.242C75.0504 245.066 71.8905 237.215 65.4838 226.028C65.4457 225.975 65.4135 225.919 65.3873 225.86C63.0255 221.745 60.2265 217.184 56.9832 212.39C54.4891 212.933 46.7663 213.346 37.314 201.441C36.9913 201.034 37.0591 200.445 37.4653 200.123C37.8715 199.801 38.461 199.868 38.7826 200.275C46.6674 210.206 53.1325 210.905 55.8017 210.661C47.9311 199.273 37.6023 186.744 24.709 175.845C24.2898 175.489 24.2374 174.863 24.5911 174.444Z" fill="white"/>
<path d="M150.64 13.4052C146.243 14.3498 142.267 16.3281 138.951 19.0533L131.074 12.4881L125.21 18.6435L132.537 26.6213C130.524 30.1087 129.258 34.0606 128.934 38.2424L117.428 39.9969L118.149 48.4653L129.982 48.2509C131.138 52.1719 133.13 55.7034 135.737 58.6608L129.442 68.4144L136.26 73.4895L143.62 64.8662C147.097 66.6981 150.996 67.8046 155.101 68.0047L157.284 79.2352L165.718 78.1728L165.04 66.6826C168.133 65.6773 170.971 64.1456 173.461 62.203L182.059 69.6483L188.036 63.6061L180.138 54.6731C182.158 51.3274 183.484 47.5339 183.933 43.5057L193.954 41.9228L193.191 33.4591L183.275 33.6914C182.226 29.4846 180.226 25.6887 177.531 22.5216L183.891 13.0658L177.169 7.86324L169.78 16.1971C167.025 14.6809 163.994 13.6244 160.799 13.1206L158.148 0.862183L149.737 2.10208L150.64 13.4052ZM155.008 23.1338C164.548 22.3227 172.941 29.4 173.749 38.9404C174.56 48.4808 167.483 56.873 157.944 57.6865C148.402 58.4964 140.01 51.418 139.2 41.8776C138.39 32.3384 145.467 23.9449 155.008 23.1338Z" fill="#005655"/>
<path d="M71.7419 91.8617C71.7216 84.1412 77.1517 74.7497 83.8621 70.8776L141.752 37.4707C145.13 35.5209 148.193 35.3399 150.403 36.625L155.577 39.6444C155.583 39.648 155.589 39.6515 155.595 39.6551L155.628 39.6742V39.6754C157.809 40.9438 159.162 43.6368 159.173 47.472L159.112 201.27C159.132 208.98 153.702 218.382 146.992 222.255L89.1028 255.662C85.7249 257.611 82.6651 257.79 80.4545 256.503V256.504L75.2281 253.457C73.0461 252.188 71.693 249.49 71.6823 245.66L71.7419 91.8617Z" fill="#005655"/>
<path d="M86.1769 255.276L101.49 246.438L137.189 225.839L146.644 220.382C153.384 216.492 157.536 209.3 157.537 201.519L157.56 46.3715C157.56 42.1801 153.024 39.561 149.394 41.6548L137.03 48.7893C136.903 48.8632 136.787 48.9572 136.69 49.0668L127.74 59.1575C127.643 59.2683 127.527 59.3612 127.4 59.435L109.261 69.9009C108.996 70.0533 108.688 70.1129 108.385 70.0712L102.232 69.2077C101.93 69.1648 101.621 69.2255 101.357 69.378L90.1277 75.8586C83.2946 79.8022 79.0853 87.0914 79.0842 94.9799L79.0615 251.167C79.0591 254.819 83.0135 257.102 86.1769 255.276Z" fill="white"/>
<path d="M126.338 58.039L114.278 65.0008C113.613 65.3843 113.075 65.1568 113.075 64.4922C113.075 63.8276 113.613 62.9784 114.278 62.5948L126.338 55.6331C127.003 55.2496 127.541 55.4771 127.541 56.1417C127.541 56.8063 127.003 57.6555 126.338 58.039Z" fill="white"/>
<path d="M74.6203 119.918C74.8562 120.187 75.0575 120.504 75.204 120.837C75.3707 121.213 75.466 121.608 75.466 121.972L75.4648 134.755C75.4636 135.234 75.2957 135.57 75.0265 135.727L73.9331 136.361C74.2035 136.204 74.3714 135.868 74.3726 135.389L74.3738 122.605C74.375 122.242 74.2785 121.847 74.1118 121.47C73.9653 121.139 73.764 120.821 73.5281 120.552C73.3292 120.326 73.1053 120.133 72.8671 119.996L72.4514 119.756C72.0334 119.514 71.6534 119.493 71.3771 119.654L72.4693 119.019C72.7444 118.858 73.1256 118.881 73.5436 119.121L73.9593 119.361C74.1963 119.5 74.4214 119.692 74.6203 119.918Z" fill="white"/>
<path d="M74.4099 122.618L74.3169 135.402C74.3074 136.367 73.6297 136.746 72.7948 136.255L72.3815 136.012C71.5537 135.526 70.8843 134.356 70.8938 133.392L70.9867 120.608C70.9963 119.654 71.6811 119.27 72.5089 119.755L72.9222 119.998C73.7583 120.49 74.4194 121.664 74.4099 122.618Z" fill="#005655"/>
<path d="M109.476 64.8639C108.66 65.3344 108.002 66.4766 108.004 67.4139C108.006 68.3513 108.67 68.7301 109.486 68.2596C110.302 67.7891 110.961 66.6469 110.959 65.7095C110.955 64.7722 110.292 64.3934 109.476 64.8639Z" fill="white"/>
<path d="M126.215 224.152C126.358 224.123 126.493 224.109 126.613 224.109C126.847 224.109 127.03 224.162 127.12 224.263C127.255 224.415 127.255 224.758 127.121 225.157C126.714 226.38 125.243 227.677 123.972 227.933C123.552 228.018 123.205 227.975 123.069 227.82C122.936 227.669 122.935 227.326 123.068 226.927C123.48 225.684 124.923 224.414 126.215 224.152Z" fill="white"/>
<path d="M121.662 229.065C122.117 229.579 122.796 229.852 123.584 229.852C123.827 229.852 124.081 229.826 124.342 229.773C126.277 229.383 128.279 227.616 128.9 225.751C129.253 224.689 129.116 223.694 128.523 223.022C127.928 222.348 126.95 222.09 125.843 222.314C123.909 222.704 121.908 224.471 121.286 226.336C120.932 227.398 121.068 228.393 121.662 229.065ZM123.065 226.929C123.479 225.684 124.92 224.414 126.213 224.153C126.356 224.124 126.49 224.11 126.61 224.11C126.845 224.11 127.027 224.163 127.118 224.265C127.252 224.416 127.252 224.759 127.119 225.158C126.712 226.381 125.241 227.678 123.97 227.934C123.549 228.019 123.203 227.976 123.067 227.821C122.932 227.67 122.932 227.328 123.065 226.929Z" fill="#005655"/>
<path d="M39.9744 149.235C39.2812 149.235 38.7166 149.04 38.2879 148.649C37.578 148.003 37.3946 146.977 37.7424 145.599C38.3986 142.997 40.7986 140.634 44.3277 139.116C47.0076 137.962 49.99 137.454 52.6211 137.669C55.9906 133.381 58.8706 127.958 59.7687 121.987C60.5035 117.109 59.2267 113.965 55.9739 112.641C48.1356 123.946 37.871 129.073 32.2944 129.073C32.273 129.073 32.2516 129.073 32.2301 129.073C30.2673 129.058 28.8416 128.383 28.2163 127.171C27.7077 126.184 27.5171 124.417 29.4955 121.589C34.3443 114.662 47.1267 108.478 55.1974 110.43C56.0037 109.2 56.7791 107.898 57.5128 106.525C60.12 101.646 60.4499 97.5168 58.4918 94.2509C52.8617 84.8534 30.4888 84.7379 30.2625 84.7379C29.7444 84.7379 29.3251 84.3174 29.3251 83.8005C29.3251 83.2824 29.7456 82.8632 30.2625 82.8632C31.2261 82.8632 53.9229 82.9823 60.0998 93.2861C62.42 97.1571 62.1067 101.909 59.166 107.41C58.4847 108.685 57.77 109.9 57.0304 111.057C59.8032 112.319 62.6736 115.292 61.6231 122.268C60.7322 128.188 57.9749 133.607 54.6697 138.006C57.1412 138.644 61.9936 140.88 60.4464 148.482C60.3427 148.99 59.8473 149.317 59.3399 149.214C58.8325 149.11 58.5049 148.616 58.6074 148.107C59.7782 142.352 56.7314 140.393 53.9682 139.764C53.7717 139.72 53.5728 139.68 53.3727 139.646C49.3826 144.458 44.8768 147.795 41.9385 148.838C41.2 149.104 40.5437 149.235 39.9744 149.235ZM51.1061 139.487C45.9988 139.579 40.4568 142.509 39.5611 146.057C39.3646 146.839 39.467 147.186 39.5504 147.261C39.6695 147.37 40.1912 147.471 41.312 147.073C43.8382 146.175 47.6079 143.448 51.1061 139.487ZM51.9529 111.955C45.0019 111.955 35.2447 116.648 31.0319 122.666C29.923 124.249 29.505 125.578 29.8825 126.312C30.1696 126.867 31.0295 127.191 32.2432 127.199C32.2611 127.199 32.279 127.199 32.2968 127.199C37.2123 127.199 46.6813 122.389 54.042 112.114C53.3834 112.006 52.6842 111.955 51.9529 111.955Z" fill="#005655"/>
<path d="M247.211 47.0291L241.159 47.1708C240.697 47.1875 240.285 46.8695 240.173 46.4181C239.492 43.687 238.165 41.1072 236.337 38.9597C236.048 38.6202 236.021 38.1319 236.269 37.7627L240.228 31.8776L236.964 29.3526L232.38 34.5242C232.071 34.872 231.564 34.9589 231.158 34.735C229.286 33.7035 227.267 33.0127 225.16 32.6804C224.755 32.6161 224.431 32.31 224.344 31.9098L222.675 24.1893L218.591 24.792L219.153 31.8228C219.192 32.3195 218.859 32.7673 218.372 32.8722C215.523 33.4844 212.824 34.7886 210.566 36.6443C210.198 36.9468 209.666 36.9456 209.3 36.6395L204.469 32.6125L201.622 35.6009L206.152 40.5319C206.445 40.8511 206.497 41.3239 206.28 41.6991C204.896 44.0955 204.087 46.7063 203.874 49.4601C203.839 49.9198 203.491 50.295 203.035 50.3653L195.854 51.4611L196.203 55.5714L203.604 55.4368C204.058 55.4201 204.448 55.7203 204.575 56.1491C205.336 58.7325 206.629 61.0705 208.418 63.1013C208.712 63.4348 208.748 63.9231 208.507 64.2959L204.579 70.3811L207.889 72.8442L212.467 67.4808C212.661 67.2533 212.939 67.133 213.222 67.133C213.379 67.133 213.537 67.17 213.684 67.2474C216.073 68.5063 218.653 69.2114 221.351 69.3436C221.807 69.3663 222.189 69.6962 222.276 70.1452L223.635 77.1391L227.729 76.6234L227.306 69.4628C227.28 69.0113 227.561 68.5992 227.991 68.4599C230.026 67.7988 231.918 66.7924 233.614 65.4679C233.987 65.1761 234.515 65.1892 234.874 65.5001L240.224 70.1321L243.126 67.1985L238.182 61.6065C237.895 61.2813 237.85 60.8073 238.076 60.4357C239.462 58.1405 240.315 55.6321 240.61 52.9785C240.66 52.5342 241 52.1781 241.441 52.1078L247.578 51.1383L247.211 47.0291ZM223.392 64.0577C223.015 64.0899 222.638 64.1054 222.267 64.1054C215.489 64.1054 209.709 58.898 209.126 52.0256C208.827 48.5144 209.914 45.096 212.187 42.4007C214.459 39.7053 217.645 38.0569 221.157 37.7579C224.67 37.4601 228.087 38.5464 230.781 40.8189C233.476 43.0915 235.124 46.2776 235.422 49.79C236.039 57.04 230.642 63.4407 223.392 64.0577Z" fill="white"/>
<path d="M249.107 45.925C249.06 45.4045 248.61 44.9983 248.094 45.0222L241.892 45.1675C241.162 42.6698 239.944 40.3068 238.33 38.2581L242.395 32.2147C242.687 31.7811 242.592 31.1951 242.179 30.8759L237.449 27.2134C237.035 26.8942 236.445 26.949 236.098 27.3397L231.413 32.6244C229.744 31.7871 227.978 31.188 226.147 30.8366L224.422 22.8613C224.311 22.3503 223.822 22.0132 223.307 22.0895L217.386 22.9625C216.869 23.0387 216.5 23.5033 216.542 24.0238L217.111 31.132C214.534 31.805 212.089 32.9889 209.959 34.598L205.033 30.4912C204.631 30.1565 204.039 30.1911 203.678 30.5686L199.55 34.9017C199.189 35.2805 199.185 35.8724 199.537 36.2583L204.211 41.3465C203.017 43.5917 202.268 45.9976 201.976 48.5179L194.641 49.6363C194.124 49.7149 193.757 50.1806 193.801 50.7011L194.308 56.6624C194.352 57.1769 194.782 57.5712 195.297 57.5712C195.303 57.5712 195.309 57.5712 195.315 57.5712L202.902 57.433C203.686 59.7723 204.874 61.9209 206.443 63.8362L202.411 70.0821C202.128 70.5216 202.234 71.1052 202.653 71.4161L207.453 74.9881C207.872 75.3001 208.462 75.2334 208.8 74.8368L213.475 69.3591C215.687 70.418 218.035 71.0588 220.477 71.2708L221.868 78.4267C221.96 78.8983 222.373 79.2294 222.841 79.2294C222.883 79.2294 222.925 79.2271 222.966 79.2211L228.903 78.4743C229.421 78.4088 229.801 77.9526 229.77 77.4309L229.337 70.094C231.062 69.4604 232.687 68.598 234.184 67.5225L239.632 72.2391C240.027 72.5821 240.62 72.5583 240.987 72.1867L245.194 67.9334C245.561 67.5618 245.578 66.9698 245.232 66.578L240.148 60.8264C241.343 58.6801 242.128 56.373 242.489 53.9516L248.81 52.9534C249.326 52.8724 249.69 52.4044 249.644 51.8839L249.107 45.925ZM240.614 52.9773C240.319 55.6309 239.466 58.1393 238.08 60.4345C237.856 60.8061 237.899 61.2801 238.186 61.6053L243.13 67.1973L240.229 70.1309L234.878 65.4989C234.52 65.188 233.991 65.1749 233.618 65.4667C231.922 66.79 230.031 67.7964 227.995 68.4587C227.565 68.598 227.284 69.0101 227.31 69.4615L227.733 76.6222L223.639 77.1379L222.28 70.144C222.193 69.695 221.811 69.3639 221.355 69.3424C218.657 69.2102 216.077 68.5051 213.688 67.2462C213.542 67.1688 213.383 67.1318 213.226 67.1318C212.942 67.1318 212.665 67.2533 212.471 67.4796L207.894 72.843L204.584 70.3799L208.512 64.2947C208.752 63.9219 208.717 63.4336 208.422 63.1001C206.632 61.0693 205.34 58.7301 204.579 56.1479C204.453 55.7191 204.063 55.4189 203.608 55.4356L196.207 55.5702L195.858 51.4598L203.039 50.3641C203.495 50.2938 203.843 49.9198 203.879 49.4589C204.092 46.7063 204.902 44.0955 206.284 41.6979C206.501 41.3227 206.449 40.8499 206.156 40.5307L201.626 35.5997L204.473 32.6113L209.304 36.6383C209.671 36.9432 210.202 36.9456 210.57 36.6431C212.827 34.7874 215.526 33.4832 218.376 32.871C218.863 32.7661 219.197 32.3183 219.157 31.8216L218.595 24.7908L222.679 24.1881L224.348 31.9086C224.435 32.3088 224.759 32.6161 225.164 32.6792C227.271 33.0115 229.29 33.7023 231.162 34.7338C231.568 34.9577 232.076 34.8707 232.384 34.523L236.969 29.3514L240.232 31.8764L236.273 37.7615C236.024 38.1307 236.053 38.6202 236.341 38.9585C238.169 41.1071 239.496 43.687 240.177 46.4169C240.289 46.8671 240.701 47.1863 241.163 47.1696L247.215 47.0279L247.586 51.1359L241.449 52.1054C241.004 52.1757 240.663 52.533 240.614 52.9773Z" fill="#005655"/>
<path d="M230.784 40.8189C228.09 38.5464 224.671 37.4601 221.159 37.7579C217.647 38.0568 214.46 39.7053 212.189 42.4006C209.917 45.096 208.829 48.5132 209.128 52.0256C209.712 58.898 215.492 64.1065 222.269 64.1054C222.641 64.1054 223.017 64.0899 223.395 64.0577C230.643 63.4407 236.04 57.04 235.424 49.79C235.127 46.2776 233.478 43.0915 230.784 40.8189ZM211.105 51.8577C210.852 48.8741 211.775 45.9703 213.705 43.681C215.636 41.3918 218.342 39.9911 221.326 39.7374C224.309 39.4849 227.214 40.4068 229.504 42.3375C231.793 44.2682 233.192 46.9743 233.445 49.9591C233.969 56.1181 229.383 61.5565 223.225 62.0805C217.064 62.6022 211.628 58.0166 211.105 51.8577Z" fill="#005655"/>
<path d="M74.4057 84.7688L79.6523 61.7694C78.2421 61.5098 76.8069 61.3788 75.374 61.3788C69.1114 61.3788 63.1942 63.8467 58.7134 68.3286C54.2327 72.8094 51.7636 78.7266 51.7636 84.9892C51.7636 91.2518 54.2315 97.169 58.7134 101.65C63.1954 106.131 69.1114 108.6 75.374 108.6C81.9844 108.6 88.2482 105.848 92.7111 101.016L74.7308 85.7455C74.4486 85.5073 74.3223 85.1297 74.4057 84.7688Z" fill="white"/>
<path d="M94.7694 100.16L76.4759 84.6224L81.8142 61.2228C81.8726 60.9667 81.8273 60.6963 81.6868 60.4736C81.5462 60.2509 81.3235 60.0925 81.0674 60.0341C79.2022 59.6089 77.287 59.3933 75.3753 59.3933C68.5827 59.3933 62.1665 62.0684 57.3105 66.9244C52.4545 71.7803 49.7794 78.1966 49.7794 84.9892C49.7794 91.7818 52.4545 98.1981 57.3105 103.054C62.1665 107.91 68.5827 110.585 75.3753 110.585C82.9016 110.585 90.0123 107.295 94.8837 101.559C95.2375 101.141 95.1862 100.515 94.7694 100.16ZM75.3741 108.601C69.1115 108.601 63.1943 106.133 58.7136 101.651C54.2328 97.1702 51.7637 91.253 51.7637 84.9904C51.7637 78.7278 54.2316 72.8106 58.7136 68.3298C63.1955 63.8491 69.1115 61.38 75.3741 61.38C76.807 61.38 78.2422 61.511 79.6524 61.7707L74.4058 84.77C74.3236 85.1309 74.4487 85.5073 74.731 85.7467L92.7112 101.017C88.2483 105.848 81.9845 108.601 75.3741 108.601Z" fill="#005655"/>
<path d="M86.7912 62.2067L78.7706 82.6262L100.567 80.1321C99.9548 76.2362 98.3742 72.5498 95.9647 69.4138C93.554 66.2789 90.3977 63.8015 86.7912 62.2067Z" fill="white"/>
<path d="M102.673 80.8897C102.146 76.2743 100.37 71.8876 97.5387 68.2037C94.7075 64.5197 90.9259 61.6755 86.6012 59.977C86.357 59.8806 86.083 59.8853 85.8413 59.9913C85.5995 60.0961 85.4101 60.2927 85.3136 60.538L76.3187 83.4374C76.1913 83.7613 76.2437 84.1294 76.4557 84.4045C76.6451 84.6499 76.9369 84.7928 77.243 84.7928C77.2799 84.7928 77.318 84.7904 77.3561 84.7868L101.799 81.989C102.345 81.9259 102.735 81.434 102.673 80.8897ZM78.7711 82.6262L86.7917 62.2067C90.3983 63.8015 93.5546 66.2789 95.9641 69.4138C98.3736 72.5499 99.9541 76.2362 100.566 80.1322L78.7711 82.6262Z" fill="#005655"/>
<path d="M101.961 85.1931L81.5784 86.1674L98.9047 96.9477C100.907 93.4067 101.961 89.4095 101.961 85.3289C101.961 85.2824 101.961 85.2372 101.961 85.1931Z" fill="white"/>
<path d="M103.917 84.1056C103.891 83.5577 103.419 83.1206 102.878 83.1623L78.3032 84.3367C77.8696 84.3569 77.4992 84.6583 77.3896 85.0787C77.28 85.4992 77.4575 85.9422 77.8255 86.1709L98.7156 99.1678C98.8787 99.269 99.0598 99.3179 99.2384 99.3179C99.5696 99.3179 99.8947 99.1523 100.082 98.8498C102.609 94.7883 103.944 90.1121 103.944 85.3277C103.947 84.9191 103.937 84.5082 103.917 84.1056ZM81.5786 86.1673L101.961 85.1931C101.961 85.2383 101.961 85.2824 101.961 85.3277C101.961 89.4094 100.907 93.4054 98.9049 96.9464L81.5786 86.1673Z" fill="#005655"/>
<path d="M258.1 237.427C257.84 237.427 257.582 237.32 257.397 237.11C257.054 236.722 257.09 236.129 257.478 235.786C257.54 235.731 263.721 230.244 269.397 223.37C276.757 214.458 279.955 207.302 278.645 202.673C277.712 199.378 274.381 197.21 268.743 196.228C262.81 195.195 257.561 196.025 253.075 197.984C250.238 208.799 244.471 219.63 238.801 223.598C236.611 225.13 235.3 224.735 234.584 224.136C232.42 222.321 233.813 217.026 235.664 213.041C238.583 206.759 243.966 200.22 251.466 196.645C252.293 193.331 252.825 190.049 252.965 187.029C253.23 181.335 252.071 177.225 249.614 175.141C249.218 174.806 249.17 174.214 249.505 173.819C249.84 173.423 250.433 173.376 250.828 173.71C253.746 176.184 255.132 180.82 254.84 187.116C254.713 189.853 254.288 192.768 253.626 195.722C258.119 194.019 263.286 193.375 269.066 194.38C275.474 195.496 279.305 198.114 280.45 202.162C283.99 214.671 259.756 236.278 258.722 237.191C258.543 237.35 258.322 237.427 258.1 237.427ZM250.801 199.107C244.495 202.592 239.929 208.318 237.366 213.831C234.958 219.012 235.151 222.163 235.789 222.699C236.073 222.936 236.833 222.686 237.726 222.06C242.722 218.566 247.942 208.937 250.801 199.107Z" fill="#005655"/>
<path d="M148.904 209.063C145.968 206.54 145.728 206.336 145.793 205.642C145.822 205.334 146.008 205.034 146.271 204.868C147.245 204.144 153.637 197.076 154.159 192.747C154.261 191.905 154.125 191.276 153.745 190.826C153.253 190.243 152.914 190.222 152.803 190.216C151.914 190.16 150.558 191.424 149.118 192.76C146.893 194.824 144.125 197.393 140.392 197.961C136.008 198.629 134.375 196.713 132.307 194.289C130.544 192.223 128.351 189.65 123.454 187.45C119.741 185.781 116.753 185.434 114.573 186.415C112.61 187.299 111.965 188.996 111.877 189.255C111.043 193.161 112.377 195.566 113.668 197.892C115.137 200.539 116.656 203.276 114.501 207.556C111.373 213.769 102.778 244.367 107.155 253.944C107.776 255.3 108.601 256.092 109.682 256.364C118.597 258.61 154.554 259.381 168.004 250.532C170.82 248.68 172.446 246.512 172.838 244.09C174.89 231.381 156.011 215.167 148.904 209.063Z" fill="white"/>
<path d="M150.197 207.556C149.415 206.885 148.661 206.237 148.17 205.791C150.306 203.666 155.305 197.76 156.072 193.369C156.347 191.794 156.074 190.508 155.261 189.543C154.571 188.726 153.784 188.284 152.921 188.232C151.193 188.124 149.602 189.598 147.765 191.302C145.634 193.279 143.219 195.52 140.09 195.996C136.799 196.497 135.739 195.254 133.814 192.998C132.023 190.897 129.568 188.02 124.264 185.636C119.986 183.714 116.436 183.372 113.709 184.623C110.81 185.952 109.995 188.598 109.962 188.71C109.955 188.734 109.949 188.758 109.944 188.782C108.931 193.447 110.524 196.319 111.93 198.851C113.315 201.346 114.408 203.316 112.724 206.66C109.747 212.573 100.531 244.229 105.347 254.764C106.221 256.677 107.516 257.861 109.194 258.284C112.528 259.123 119.817 259.804 128.488 259.804C131.257 259.804 134.168 259.734 137.135 259.578C155.747 258.601 164.787 255.019 169.092 252.186C172.392 250.015 174.31 247.396 174.795 244.402C177.026 230.6 157.534 213.86 150.197 207.556ZM172.835 244.088C172.443 246.51 170.817 248.678 168.001 250.53C154.551 259.377 118.594 258.608 109.679 256.361C108.598 256.09 107.772 255.298 107.152 253.941C102.775 244.365 111.37 213.767 114.498 207.554C116.653 203.273 115.134 200.536 113.665 197.89C112.374 195.564 111.04 193.159 111.874 189.252C111.962 188.994 112.607 187.297 114.57 186.413C116.75 185.431 119.738 185.779 123.451 187.448C128.349 189.649 130.542 192.22 132.304 194.287C134.372 196.712 136.005 198.627 140.389 197.959C144.122 197.391 146.89 194.822 149.115 192.758C150.555 191.421 151.911 190.157 152.8 190.213C152.912 190.221 153.25 190.241 153.742 190.823C154.122 191.273 154.258 191.902 154.156 192.744C153.635 197.073 147.244 204.142 146.268 204.866C146.005 205.031 145.819 205.332 145.79 205.64C145.726 206.333 145.966 206.539 148.901 209.061C156.011 215.167 174.889 231.381 172.835 244.088Z" fill="#005655"/>
<path d="M135.011 208.361C132.106 208.361 128.927 208.144 125.486 207.71C118.738 206.859 113.422 205.439 113.368 205.425C112.868 205.29 112.572 204.776 112.707 204.275C112.842 203.775 113.358 203.48 113.857 203.613C114.063 203.668 134.63 209.117 146.48 204.827C146.967 204.651 147.504 204.902 147.68 205.389C147.857 205.876 147.605 206.413 147.118 206.59C143.859 207.77 139.808 208.361 135.011 208.361Z" fill="#005655"/>
<path d="M132.802 210.751C130.442 210.751 127.91 210.632 125.209 210.393C118.129 209.766 112.449 208.502 112.392 208.489C111.887 208.376 111.569 207.875 111.682 207.369C111.795 206.862 112.296 206.546 112.803 206.659C113.023 206.709 135.029 211.556 146.658 206.709C147.136 206.51 147.685 206.735 147.885 207.214C148.084 207.691 147.859 208.24 147.38 208.44C143.693 209.979 138.807 210.751 132.802 210.751Z" fill="#005655"/>
<path d="M140.221 210.658C141.307 210.658 142.188 209.778 142.188 208.692C142.188 207.606 141.307 206.725 140.221 206.725C139.135 206.725 138.255 207.606 138.255 208.692C138.255 209.778 139.135 210.658 140.221 210.658Z" fill="#005655"/>
<path d="M149.265 213.611C147.09 210.68 143.144 208.477 141.058 207.455C142.454 207.053 144.95 206.081 145.771 204.118C146.28 202.904 146.068 201.582 145.141 200.189C144.318 198.951 143.423 198.437 142.475 198.661C141.606 198.864 140.94 199.75 140.431 200.891C139.855 199.828 138.791 199.155 137.248 198.9C135.783 198.659 134.795 198.964 134.312 199.809C133.151 201.84 136.364 206.058 137.8 207.778C137.962 207.972 138.196 208.087 138.444 208.107C138.521 208.712 138.671 210.366 138.289 212.183C137.677 215.096 136.021 217.061 133.37 218.021C132.883 218.198 132.632 218.736 132.808 219.222C132.946 219.603 133.306 219.841 133.689 219.84C133.795 219.84 133.904 219.822 134.008 219.784C139.816 217.682 140.464 212.068 140.396 209.224C142.366 210.208 145.888 212.208 147.758 214.728C148.067 215.144 148.655 215.232 149.069 214.922C149.486 214.614 149.573 214.026 149.265 213.611ZM142.876 200.488C142.878 200.488 143.132 200.554 143.58 201.227C144.144 202.077 144.297 202.785 144.043 203.391C143.631 204.378 142.249 205.07 141.101 205.471C141.563 202.921 142.348 200.668 142.876 200.488ZM135.921 200.76C135.923 200.759 136.026 200.694 136.344 200.694C136.493 200.694 136.688 200.708 136.942 200.75C137.949 200.915 138.57 201.288 138.842 201.887C139.283 202.861 138.847 204.344 138.357 205.457C136.807 203.38 135.695 201.269 135.921 200.76Z" fill="#005655"/>
<path d="M120.305 246.722C119.709 246.679 119.264 246.475 118.97 246.112C118.675 245.748 118.551 245.247 118.598 244.609L119.053 238.353L119.905 238.993L117.575 238.823C117.085 238.788 116.711 238.643 116.451 238.389C116.215 238.115 116.112 237.754 116.145 237.307C116.177 236.861 116.33 236.529 116.602 236.314C116.897 236.079 117.29 235.979 117.779 236.015L120.109 236.184L119.173 236.694L119.415 233.374L120.267 234.014L117.937 233.844C117.448 233.809 117.073 233.664 116.813 233.41C116.577 233.136 116.475 232.775 116.507 232.329C116.54 231.882 116.692 231.551 116.964 231.335C117.26 231.1 117.652 231 118.141 231.036L120.471 231.205L119.536 231.715L119.97 225.746C120.021 225.044 120.219 224.524 120.564 224.185C120.933 223.827 121.425 223.671 122.042 223.715C122.553 223.753 122.99 223.923 123.353 224.228C123.737 224.534 124.014 224.982 124.185 225.572L128.856 240.317L127.771 240.239L128.792 226.196C128.839 225.557 129.034 225.08 129.378 224.762C129.722 224.445 130.192 224.308 130.787 224.351C131.383 224.395 131.828 224.598 132.123 224.962C132.417 225.326 132.541 225.827 132.495 226.465L132.047 232.625L131.195 231.985L133.556 232.157C134.046 232.193 134.409 232.347 134.646 232.621C134.905 232.875 135.019 233.226 134.986 233.673C134.954 234.119 134.79 234.46 134.495 234.696C134.222 234.911 133.842 235.001 133.352 234.966L130.99 234.794L131.926 234.284L131.684 237.603L130.833 236.964L133.194 237.136C133.684 237.171 134.047 237.326 134.284 237.6C134.543 237.854 134.657 238.205 134.624 238.651C134.592 239.098 134.428 239.439 134.133 239.675C133.86 239.89 133.479 239.98 132.99 239.944L130.628 239.773L131.564 239.263L131.123 245.327C131.072 246.029 130.862 246.559 130.494 246.918C130.148 247.256 129.667 247.403 129.05 247.358C128.539 247.321 128.102 247.15 127.74 246.846C127.377 246.541 127.099 246.093 126.907 245.502L122.234 230.788L123.319 230.867L122.3 244.878C122.254 245.516 122.058 245.994 121.715 246.311C121.392 246.63 120.922 246.767 120.305 246.722Z" fill="#005655"/>
<path d="M248.941 149.153L228.639 120.512C228.382 120.148 227.913 120.001 227.493 120.152L216.044 124.27L203.21 105.061C202.948 104.669 202.444 104.516 202.008 104.694L184.41 111.922L169.672 87.5894C169.418 87.1713 168.898 86.9998 168.446 87.1856L150.729 94.4618C150.715 94.4678 150.702 94.4761 150.689 94.4833C150.637 94.5071 150.588 94.5345 150.541 94.5666C150.522 94.5797 150.504 94.5952 150.486 94.6095C150.447 94.6417 150.41 94.675 150.376 94.7119C150.366 94.7215 150.355 94.7286 150.346 94.7393L141.265 105.454L138.338 100.702C138.083 100.287 137.565 100.119 137.116 100.304L119.396 107.583C119.377 107.591 119.36 107.604 119.341 107.612C119.312 107.627 119.283 107.642 119.254 107.66C119.214 107.685 119.177 107.712 119.141 107.742C119.116 107.762 119.092 107.783 119.07 107.805C119.034 107.841 119.004 107.88 118.975 107.921C118.961 107.939 118.945 107.952 118.933 107.971L98.7062 139.952C98.6062 140.109 98.5538 140.293 98.5526 140.478L98.5073 152.1C98.5073 152.102 98.5085 152.104 98.5085 152.106C98.5085 152.123 98.5121 152.141 98.5133 152.159C98.5157 152.212 98.5204 152.263 98.5312 152.312C98.5359 152.333 98.5443 152.353 98.5502 152.374C98.5633 152.419 98.5764 152.463 98.5955 152.506C98.605 152.528 98.6181 152.549 98.6288 152.57C98.6503 152.609 98.6717 152.646 98.6979 152.682C98.7051 152.692 98.7086 152.702 98.717 152.712C98.7253 152.724 98.7372 152.732 98.7467 152.743C98.7741 152.775 98.8039 152.806 98.8361 152.835C98.8551 152.852 98.8742 152.869 98.8944 152.886C98.929 152.913 98.9659 152.936 99.004 152.958C99.0242 152.97 99.0445 152.983 99.0659 152.994C99.11 153.016 99.1565 153.032 99.2029 153.047C99.2208 153.052 99.2386 153.061 99.2565 153.066C99.3232 153.082 99.3911 153.093 99.4626 153.097L230.373 157.997C230.385 157.997 230.398 157.998 230.41 157.998C230.41 157.998 230.41 157.998 230.411 157.998C230.491 157.998 230.57 157.985 230.647 157.966C230.67 157.96 230.69 157.953 230.713 157.947C230.738 157.938 230.764 157.933 230.788 157.924L248.507 150.647C248.787 150.531 248.999 150.295 249.084 150.005C249.168 149.713 249.116 149.401 248.941 149.153Z" fill="#005655"/>
<path d="M198.263 133.68C197.834 133.833 197.354 133.676 197.102 133.297L184.385 114.264L168.815 124.554C168.59 124.703 168.314 124.753 168.05 124.694C167.787 124.635 167.558 124.472 167.419 124.241L150.967 97.0785L129.036 122.958C128.83 123.201 128.518 123.328 128.203 123.306C127.887 123.282 127.6 123.107 127.433 122.836L119.76 110.378L100.536 140.773L100.496 151.149L228.437 155.938L209.735 129.553L198.263 133.68Z" fill="white"/>
</svg>
