<svg width="99" height="51" viewBox="0 0 99 51" fill="none" xmlns="http://www.w3.org/2000/svg">
<path fill-rule="evenodd" clip-rule="evenodd" d="M0 0H99V51H0V0Z" fill="white"/>
<path fill-rule="evenodd" clip-rule="evenodd" d="M28.0969 38.4414C25.4847 37.8421 29.1642 34.7734 30.6932 34.248C30.9161 33.772 32.047 33.4273 32.3973 32.8531C33.3531 32.361 34.1497 30.5555 35.1528 30.1946C35.1528 29.8826 38.5297 27.1582 39.1348 27.027C39.7244 26.4198 40.4886 25.8043 41.7151 25.2217C41.7151 24.8278 49.0108 20.9548 49.5681 21.0204C49.7437 20.5362 55.398 18.8789 54.3307 19.9864C51.5912 21.9065 48.0709 23.6789 44.997 25.4924C43.9138 25.7715 38.4342 29.4969 37.9088 29.8334C37.5898 30.3422 36.0454 30.8097 35.8379 31.3431C37.5261 30.6867 44.8696 27.6178 47.1634 28.7994C48.0237 30.1287 40.9036 33.4603 39.4219 34.2808C37.0326 35.405 31.5535 38.2691 28.0969 38.4414Z" fill="black"/>
<path fill-rule="evenodd" clip-rule="evenodd" d="M28.0345 38.1944C26.8876 37.1358 29.4202 35.5277 30.5512 34.6577C30.7581 34.6085 31.1885 34.0095 31.3478 34.2556C28.6878 37.4639 34.0873 35.388 33.6097 34.6331C32.7972 34.8382 32.0011 35.7409 31.2522 35.8148C30.7587 35.0435 32.7971 32.8361 34.1356 32.4913C34.1356 32.2122 34.9635 32.2371 33.8803 32.2696C33.6097 32.7538 32.9245 32.6964 33.6415 32.2204C35.4895 29.2253 39.9337 27.0671 43.0877 24.63C44.1868 24.1786 46.3054 22.4882 47.4995 22.2832C47.4995 21.84 52.708 20.1498 53.6797 19.8789C53.8554 19.9691 50.9083 21.799 50.3505 22.004C50.3505 22.0122 44.2983 25.4751 44.2186 25.4833C44.2186 25.6063 43.3589 26.0249 43.1514 26.1067C42.2598 26.7221 33.7376 31.7851 34.359 32.1053C34.869 32.1873 41.288 29.7584 42.3712 29.4055C45.0471 28.7409 48.4081 28.0926 45.5412 30.3162C43.343 31.7851 40.7308 33.3525 37.9748 34.5667C37.927 34.6651 37.7046 34.7143 37.5608 34.7554C35.1546 35.864 31.0129 37.9812 28.0345 38.1944Z" fill="white"/>
<path fill-rule="evenodd" clip-rule="evenodd" d="M41.0484 36.0531C40.2842 35.5854 47.3082 30.8588 48.6148 29.9646C48.8377 29.8251 52.2784 27.1909 52.5331 28.1593C50.6051 29.5706 48.6621 30.9903 46.942 32.459C46.942 32.7215 54.6035 27.3552 54.9697 28.6842C54.2213 29.505 53.075 30.2109 52.1669 30.9821C51.8963 31.1134 49.6975 32.6969 49.6975 32.976C52.7879 30.9903 55.8777 28.7747 59.3342 26.9449C59.6373 26.8054 60.1791 26.5427 60.3697 26.9367C58.2834 28.7255 55.5274 30.3011 53.6476 32.172C52.6605 33.4766 54.2855 32.3278 54.9697 31.8272C56.3559 31.0229 57.7893 30.1368 59.9552 28.865C60.0194 28.7091 61.8191 27.6423 62.2813 27.4865C62.9978 26.8136 68.9874 23.7611 68.6685 23.7201C67.2509 24.0318 58.3944 26.0421 58.3944 25.1973C61.0384 24.3358 64.9099 23.7614 67.952 23.4167C68.0152 23.4495 74.1794 22.4401 74.1794 22.3417C75.2467 22.1366 76.3782 21.9067 77.5086 21.6934C79.6272 21.6934 79.0222 21.2995 80.6143 21.2256C80.7268 21.1026 83.5614 20.7497 83.5614 20.7497C83.7843 20.5774 86.9702 20.3229 86.9229 20.2737C85.3462 20.3639 90.3949 19.7977 90.6173 19.6829C93.1339 19.4693 89.8689 20.2901 89.6142 20.0191C89.4077 20.2406 84.4689 20.7494 83.9435 20.856C83.6097 21.0859 82.3036 21.1105 82.0324 21.1105C82.0324 21.4632 80.1203 21.2336 80.8537 21.4222C80.28 21.7178 79.8023 21.4714 79.7381 21.4714C79.5784 22.0458 78.4962 21.3566 78.3365 21.89C77.6514 21.9228 72.4111 22.842 72.1723 23.1291C72.6175 23.1291 76.3453 23.2029 73.9396 23.2029C73.6057 23.088 71.2324 23.3836 70.595 23.4164C68.6037 24.7949 66.1821 26.0421 64.4148 27.4783C63.6182 27.7735 63.1236 28.4384 62.4395 28.8488C62.025 29.3409 56.6091 33.4766 58.6316 32.9596C63.0286 31.0724 67.0106 28.9224 70.7373 26.6906C71.3433 26.1572 70.5786 25.7386 71.5981 25.7386C72.936 26.2556 69.3197 27.5934 73.7798 25.8453C76.3288 25.1888 72.7126 27.2648 72.7126 27.2648C73.6216 27.0761 79.4346 25.6238 76.5353 27.5682C76.5353 27.8802 82.2384 24.5649 81.9189 25.7304C81.5054 25.9109 74.5918 29.2997 76.1059 29.4886C78.9246 28.9306 82.1747 27.0594 82.8752 25.5169C82.8752 23.3751 78.0171 23.6048 77.8106 23.1619C81.3144 23.2275 85.0103 24.475 82.5732 26.8136C81.601 27.5685 77.3006 30.3583 75.3889 29.5955C74.768 29.0618 76.2338 28.4792 76.5677 28.0855C74.6406 28.2249 69.4003 32.5575 67.9977 31.8357C67.9977 31.5237 77.7459 26.9451 76.392 26.83C71.6304 27.618 69.8456 28.7337 66.6284 30.5964C63.4585 31.819 66.4209 29.6611 66.4369 29.5706C63.6814 30.6538 61.5155 32.4837 58.457 33.3208C57.5171 33.3208 57.6445 33.1486 57.6121 32.8199C59.571 29.981 63.7605 27.273 67.4718 24.9671C67.2011 24.9671 61.1642 28.4133 60.7821 28.8075C54.9681 32.3193 52.8022 33.9113 52.5151 32.8527C53.1361 31.7285 54.7293 30.3995 56.1463 29.5621C56.4011 29.16 57.3892 28.6678 57.8669 28.2739C57.8669 28.2659 52.0529 31.7203 50.4921 32.9842C48.0869 34.4283 47.8958 33.8129 49.5208 32.4016C52.8654 29.8907 53.8053 29.2669 53.8053 29.0782C51.114 30.4649 48.5809 31.9913 46.1598 33.5502C45.7299 33.7142 45.4428 33.8293 45.1244 33.5748C45.5543 32.7541 47.0833 31.7531 47.9436 31.0147C47.9436 30.8258 45.0124 33.0414 44.8373 33.1893C43.9637 33.7145 42.0202 35.7661 41.0484 36.0531ZM18.5414 34.699C17.0442 34.1984 20.3893 31.7039 20.644 30.9081C20.9948 30.5961 23.0652 28.0196 23.5274 28.0196C23.4319 27.6502 25.646 26.2882 24.7061 26.3459C23.6548 25.8863 28.1149 24.0892 28.3537 23.4653C30.2017 22.1935 32.177 20.7494 33.7697 19.4035C34.2797 19.4035 37.1785 16.2525 37.5606 17.237C34.9802 19.0341 32.2561 20.8722 29.9464 22.7676C29.9464 23.3666 37.4014 19.1571 37.7676 19.0833C37.7676 18.8862 43.2631 16.2851 43.3109 16.2687C43.6452 16.1374 44.7443 15.4643 44.9513 16.0308C43.9796 16.7777 38.5318 20.4128 38.6278 20.6176C41.7336 19.4196 43.996 20.2239 40.635 22.3901C40.1568 23.178 37.6248 24.8353 36.86 25.4262C31.4446 29.3814 27.1437 32.7951 26.8884 31.0144C27.0476 30.7681 27.2069 30.5136 27.3661 30.2593C29.2618 28.0686 31.3799 26.058 33.594 24.0559C33.8174 23.9903 36.1584 21.8567 36.0948 21.8567C33.9602 22.8414 32.9726 23.5553 31.4595 24.8271C30.9495 25.0407 26.0276 28.8316 25.55 29.4142C24.3076 30.3911 19.5768 34.5678 18.5414 34.699ZM4.89031 34.3053C2.73985 33.5338 7.75775 28.43 9.60518 27.478C9.71663 27.1579 12.7274 25.2952 13.1573 25.1886C13.3165 24.8602 17.8403 22.456 18.207 22.456C18.4777 22.1771 22.5716 20.3226 23.2403 20.2567C23.2403 20.1829 25.3111 19.4773 25.55 19.3788C26.4421 18.5338 32.0491 13.5199 30.6952 12.8225C27.1272 12.3632 21.5999 15.2678 19.2106 16.4494C15.8973 18.312 11.8994 20.7245 10.5934 23.2521C10.5934 24.8274 19.9276 20.0517 21.0108 19.5185C22.8428 18.8211 23.9737 18.6568 21.7118 19.5514C20.342 20.216 12.903 24.0808 10.5456 23.9085C8.8887 22.9076 13.7315 19.6498 14.8306 18.7145C15.1012 18.6653 17.7458 16.983 17.7776 16.86C18.9086 16.2774 20.5968 15.2188 21.9506 14.8333C21.9506 14.3737 28.306 12.6915 28.5766 12.6341C33.6264 12.0761 30.3609 14.751 29.5961 16.0639C29.3414 16.2446 26.6491 18.8536 26.5695 19.0838C26.7924 19.0428 28.0826 18.7555 28.2741 19.0508C24.4514 19.7974 24.4349 21.3894 21.9342 22.8092C19.736 24.8195 16.3431 26.756 14.3524 28.8075C11.7875 30.1286 8.50607 34.1249 4.89031 34.3053Z" fill="black"/>
<path fill-rule="evenodd" clip-rule="evenodd" d="M18.8431 34.1817C18.8431 33.8947 22.1404 29.3322 23.0326 28.9877C23.2555 28.6102 23.8132 27.9455 24.259 27.7156C26.3453 25.2785 30.2959 23.6619 33.5455 21.6598C36.9219 20.593 29.882 24.8353 29.882 24.9422C30.0571 24.8766 32.9877 23.3584 31.5065 24.376C31.1244 24.4252 24.8163 29.3814 24.0839 30.0709C22.1882 31.1867 20.9458 33.1644 18.8431 34.1817ZM4.9373 34.059C3.82227 31.9828 10.6558 26.7806 13.3157 25.4103C13.5068 25.2052 14.8925 24.4501 15.2114 24.3435C17.3937 22.8499 20.6587 21.8408 23.1753 20.5443C23.6217 20.5033 24.4655 20.1258 24.88 19.9863C20.0377 23.9167 14.9402 27.7735 9.84324 31.6465C8.63319 32.3604 6.70564 33.8047 4.9373 34.059ZM27.5086 31.1949C28.0186 29.4634 31.8095 26.2223 33.4659 24.7618C33.8167 23.8593 36.7154 22.0869 37.5911 21.2989C38.0375 21.1267 41.6373 19.7482 41.8443 20.5359C40.8248 22.0374 38.7704 23.3748 37.2727 24.6059C37.2727 24.7946 33.641 27.2973 33.2589 27.6092C31.5543 28.6678 29.8655 30.3826 27.5086 31.1949ZM66.5491 30.1693C66.9312 29.8331 69.1623 27.7159 70.1335 28.2162C67.3133 29.7836 67.3133 29.7836 66.5491 30.1693ZM70.3559 27.8061C70.5475 27.601 72.7616 26.567 73.0323 26.567C72.3312 26.9607 71.4396 27.6584 70.3559 27.8061Z" fill="white"/>
<path fill-rule="evenodd" clip-rule="evenodd" d="M60.9268 24.9096C61.1497 24.7538 64.4629 24.0725 64.9411 24.1217C63.6031 24.4339 62.2811 24.6717 60.9268 24.9096Z" fill="#F7F8F6"/>
<path fill-rule="evenodd" clip-rule="evenodd" d="M23.6374 24.5495C22.3791 23.9013 25.549 22.4818 25.549 21.9238C21.376 24.3609 23.4145 21.7267 24.1952 22.1288C25.7247 22.1288 30.5988 17.4269 32.4303 17.1973C33.3542 17.583 29.6429 19.2076 29.0698 19.8066C27.4447 20.7665 26.378 21.8743 25.0714 22.9493C25.0714 23.1051 30.3758 19.8886 31.5063 19.4536C31.7292 19.224 35.2499 17.0658 35.5684 17.7225C32.2392 19.7984 28.9259 21.8746 25.5331 23.9177C24.8798 24.2294 24.434 24.5082 23.6374 24.5495Z" fill="black"/>
<path fill-rule="evenodd" clip-rule="evenodd" d="M28.0977 24.3357C28.0977 23.9089 32.7011 21.8245 30.7576 22.8257C30.0411 23.3755 28.7504 23.7774 28.0977 24.3357Z" fill="#F7F8F6"/>
<path fill-rule="evenodd" clip-rule="evenodd" d="M34.7877 22.1366C34.7877 21.6442 35.5365 21.4392 34.5488 21.2259C34.7558 20.7992 39.9807 18.2391 40.2354 18.1652C41.2651 17.6338 42.3221 17.1166 43.4054 16.6143C43.4054 17.0738 39.9329 18.9365 39.0249 19.7488C37.8297 20.6021 36.5714 21.5868 34.7877 22.1366Z" fill="white"/>
<path fill-rule="evenodd" clip-rule="evenodd" d="M91.7651 19.8386C91.7333 19.215 93.3891 19.7402 93.1667 19.3875C94.3937 19.3875 92.7846 19.8717 92.2751 19.6089C92.1631 19.6912 91.8601 19.8386 91.7651 19.8386ZM94.632 19.207V19.2973C94.4723 19.3137 94.329 19.6666 94.2176 19.3221C94.4256 19.2891 94.4256 19.2891 94.632 19.207Z" fill="#000807"/>
</svg>
