<svg width="25" height="24" viewBox="0 0 25 24" fill="none" xmlns="http://www.w3.org/2000/svg">
<path d="M10.2604 14.3677C9.68545 13.7937 9.33545 13.0137 9.33545 12.1387C9.33545 10.3857 10.7474 8.97266 12.4994 8.97266C13.3664 8.97266 14.1644 9.32366 14.7294 9.89766" stroke="#005655" stroke-width="1.5" stroke-linecap="round" stroke-linejoin="round"/>
<path d="M15.6046 12.6992C15.3726 13.9892 14.3566 15.0072 13.0676 15.2412" stroke="#005655" stroke-width="1.5" stroke-linecap="round" stroke-linejoin="round"/>
<path d="M7.15451 17.4739C5.56751 16.2279 4.22351 14.4079 3.24951 12.1389C4.23351 9.85994 5.58651 8.02994 7.18351 6.77394C8.77051 5.51794 10.6015 4.83594 12.4995 4.83594C14.4085 4.83594 16.2385 5.52794 17.8355 6.79294" stroke="#005655" stroke-width="1.5" stroke-linecap="round" stroke-linejoin="round"/>
<path d="M19.9475 8.99023C20.6355 9.90423 21.2405 10.9592 21.7495 12.1362C19.7825 16.6932 16.3065 19.4382 12.4995 19.4382C11.6365 19.4382 10.7855 19.2982 9.96753 19.0252" stroke="#005655" stroke-width="1.5" stroke-linecap="round" stroke-linejoin="round"/>
<path d="M20.3868 4.25L4.61279 20.024" stroke="#005655" stroke-width="1.5" stroke-linecap="round" stroke-linejoin="round"/>
</svg>
