<svg width="18" height="18" viewBox="0 0 18 18" fill="none" xmlns="http://www.w3.org/2000/svg">
<path fill-rule="evenodd" clip-rule="evenodd" d="M8.11164 3.18485C7.65198 3.18485 7.26093 3.50427 7.15116 3.93479H10.8422C10.7324 3.50427 10.3413 3.18485 9.88167 3.18485H8.11164ZM11.885 3.93508H13.2434C14.6841 3.93508 15.8572 5.12249 15.8572 6.58071C15.8572 6.58071 15.8161 7.19802 15.8023 8.05768C15.801 8.12573 15.768 8.19239 15.7138 8.23267C15.3839 8.4764 15.082 8.67777 15.0545 8.69166C13.9157 9.45549 12.5923 9.99295 11.1824 10.2603C11.0905 10.2783 10.9999 10.2304 10.9533 10.1485C10.5581 9.46382 9.81993 9.01802 8.99666 9.01802C8.17888 9.01802 7.43382 9.45896 7.02699 10.1443C6.97965 10.2249 6.89046 10.2714 6.79922 10.254C5.40103 9.986 4.07763 9.44924 2.94563 8.6986L2.28702 8.2403C2.23213 8.20559 2.19783 8.14309 2.19783 8.07365C2.17725 7.71951 2.14294 6.58071 2.14294 6.58071C2.14294 5.12249 3.3161 3.93508 4.75682 3.93508H6.10836C6.23871 2.92822 7.08256 2.14355 8.11164 2.14355H9.88167C10.9108 2.14355 11.7546 2.92822 11.885 3.93508ZM15.6239 9.5591L15.5965 9.57299C14.2107 10.5035 12.5435 11.1215 10.7941 11.3784C10.5471 11.4131 10.3001 11.2534 10.2315 11.0034C10.0806 10.434 9.59349 10.0591 9.01034 10.0591H9.00348H8.98976C8.40661 10.0591 7.91951 10.434 7.76858 11.0034C7.69997 11.2534 7.45299 11.4131 7.20601 11.3784C5.45656 11.1215 3.78944 10.5035 2.40361 9.57299C2.39675 9.56604 2.32814 9.52438 2.27326 9.5591C2.21151 9.59382 2.21151 9.67714 2.21151 9.67714L2.25954 13.2185C2.25954 14.6768 3.42583 15.8572 4.86655 15.8572H13.1267C14.5674 15.8572 15.7337 14.6768 15.7337 13.2185L15.7886 9.67714C15.7886 9.67714 15.7886 9.59382 15.7268 9.5591C15.6925 9.53827 15.6514 9.54521 15.6239 9.5591ZM9.5112 12.4689C9.5112 12.7606 9.2848 12.9897 8.99665 12.9897C8.71537 12.9897 8.48211 12.7606 8.48211 12.4689V11.5732C8.48211 11.2885 8.71537 11.0524 8.99665 11.0524C9.2848 11.0524 9.5112 11.2885 9.5112 11.5732V12.4689Z" fill="#72747D"/>
</svg>
