<svg width="30" height="30" viewBox="0 0 30 30" fill="none" xmlns="http://www.w3.org/2000/svg">
<path fill-rule="evenodd" clip-rule="evenodd" d="M4.77062 16.9682V16.6986C4.81016 15.9012 5.06573 15.1286 5.51097 14.4605C6.25207 13.6578 6.7594 12.6742 6.97972 11.6129C6.97972 10.7926 6.97972 9.96063 7.05136 9.14035C7.42154 5.1913 11.3263 2.46094 15.1832 2.46094H15.2787C19.1357 2.46094 23.0404 5.1913 23.4225 9.14035C23.4942 9.96063 23.4225 10.7926 23.4822 11.6129C23.7055 12.6767 24.2123 13.6633 24.951 14.4722C25.3996 15.1344 25.6555 15.9042 25.6913 16.6986V16.9564C25.718 18.0278 25.349 19.0724 24.6525 19.8977C23.732 20.8628 22.483 21.4631 21.1418 21.5852C17.209 22.007 13.241 22.007 9.30822 21.5852C7.96855 21.4579 6.72131 20.8584 5.79755 19.8977C5.11176 19.0718 4.74775 18.0333 4.77062 16.9682Z" stroke="#005655" stroke-width="1.84615" stroke-linecap="round" stroke-linejoin="round"/>
<path d="M12.2218 25.6631C12.8363 26.4344 13.7387 26.9335 14.7293 27.0501C15.7198 27.1667 16.7169 26.891 17.4998 26.2842C17.7406 26.1047 17.9572 25.896 18.1446 25.6631" stroke="#005655" stroke-width="1.84615" stroke-linecap="round" stroke-linejoin="round"/>
</svg>
