<svg width="30" height="30" viewBox="0 0 30 30" fill="none" xmlns="http://www.w3.org/2000/svg">
<path d="M5.99285 8.82103C5.99285 7.25978 7.2591 5.99353 8.8191 5.99353H10.1054C10.8504 5.99353 11.5666 5.69853 12.0966 5.17228L12.9954 4.27228C14.0966 3.16603 15.8866 3.16103 16.9929 4.26228L17.0041 4.27228L17.9041 5.17228C18.4329 5.69853 19.1491 5.99353 19.8954 5.99353H21.1804C22.7416 5.99353 24.0079 7.25978 24.0079 8.82103V10.1048C24.0079 10.8523 24.3029 11.5673 24.8291 12.0973L25.7291 12.9973C26.8354 14.0985 26.8416 15.8873 25.7404 16.9948L25.7291 17.006L24.8291 17.906C24.3029 18.4335 24.0079 19.151 24.0079 19.896V21.1823C24.0079 22.7435 22.7416 24.0085 21.1804 24.0085H19.8954C19.1491 24.0085 18.4329 24.3048 17.9041 24.831L17.0041 25.7298C15.9041 26.8373 14.1141 26.8423 13.0066 25.741C13.0029 25.7373 12.9991 25.7335 12.9954 25.7298L12.0966 24.831C11.5666 24.3048 10.8504 24.0085 10.1054 24.0085H8.8191C7.2591 24.0085 5.99285 22.7435 5.99285 21.1823V19.896C5.99285 19.151 5.6966 18.4335 5.17035 17.906L4.2716 17.006C3.1641 15.9048 3.1591 14.1148 4.26035 13.0085L4.2716 12.9973L5.17035 12.0973C5.6966 11.5673 5.99285 10.8523 5.99285 10.1048V8.82103" stroke="#005655" stroke-width="1.875" stroke-linecap="round" stroke-linejoin="round"/>
<path d="M10.5498 15.0004L13.5173 17.9667L19.4498 12.0342" stroke="#005655" stroke-width="1.875" stroke-linecap="round" stroke-linejoin="round"/>
</svg>
