<svg width="30" height="30" viewBox="0 0 30 30" fill="none" xmlns="http://www.w3.org/2000/svg">
<path fill-rule="evenodd" clip-rule="evenodd" d="M23.5812 6.40367C24.1275 6.59492 24.4925 7.10992 24.4925 7.68867V16.1549C24.4925 18.5212 23.6325 20.7799 22.1137 22.5299C21.35 23.4112 20.3838 24.0974 19.3575 24.6524L14.91 27.0549L10.455 24.6512C9.4275 24.0962 8.46 23.4112 7.695 22.5287C6.175 20.7787 5.3125 18.5187 5.3125 16.1499V7.68867C5.3125 7.10992 5.6775 6.59492 6.22375 6.40367L14.4512 3.51242C14.7437 3.40992 15.0625 3.40992 15.3537 3.51242L23.5812 6.40367Z" stroke="#005655" stroke-width="1.875" stroke-linecap="round" stroke-linejoin="round"/>
<path d="M11.6531 14.8959L14.0181 17.2621L18.8906 12.3896" stroke="#005655" stroke-width="1.875" stroke-linecap="round" stroke-linejoin="round"/>
</svg>
