<svg width="20" height="20" viewBox="0 0 20 20" fill="none" xmlns="http://www.w3.org/2000/svg">
<path fill-rule="evenodd" clip-rule="evenodd" d="M5.66988 -0.000732422H14.3399C17.7299 -0.000732422 19.9999 2.37927 19.9999 5.91927V14.0903C19.9999 17.6203 17.7299 19.9993 14.3399 19.9993H5.66988C2.27988 19.9993 -0.00012207 17.6203 -0.00012207 14.0903V5.91927C-0.00012207 2.37927 2.27988 -0.000732422 5.66988 -0.000732422ZM9.98988 7.06027C9.51988 7.06027 9.12988 6.66927 9.12988 6.19027C9.12988 5.70027 9.51988 5.31027 10.0099 5.31027C10.4899 5.31027 10.8799 5.70027 10.8799 6.19027C10.8799 6.66927 10.4899 7.06027 9.98988 7.06027ZM10.8699 13.7803C10.8699 14.2603 10.4799 14.6503 9.98988 14.6503C9.50988 14.6503 9.11988 14.2603 9.11988 13.7803V9.36027C9.11988 8.87927 9.50988 8.48027 9.98988 8.48027C10.4799 8.48027 10.8699 8.87927 10.8699 9.36027V13.7803Z" fill="#005655"/>
</svg>
