<svg width="84" height="84" viewBox="0 0 84 84" fill="none" xmlns="http://www.w3.org/2000/svg">
<g clip-path="url(#clip0_305_7263)">
<path d="M18.6055 18.1863C19.285 18.1863 19.8359 17.6354 19.8359 16.9558C19.8359 16.2762 19.285 15.7253 18.6055 15.7253C17.9259 15.7253 17.375 16.2762 17.375 16.9558C17.375 17.6354 17.9259 18.1863 18.6055 18.1863Z" fill="black"/>
<path d="M65.3945 18.1863C66.0741 18.1863 66.625 17.6354 66.625 16.9558C66.625 16.2762 66.0741 15.7253 65.3945 15.7253C64.715 15.7253 64.1641 16.2762 64.1641 16.9558C64.1641 17.6354 64.715 18.1863 65.3945 18.1863Z" fill="black"/>
<path d="M41.0579 63.4757H40.994C40.8326 63.4673 40.6744 63.4272 40.5286 63.3577C40.3827 63.2882 40.2519 63.1906 40.1438 63.0706C40.0356 62.9505 39.9522 62.8104 39.8982 62.6581C39.8442 62.5058 39.8207 62.3443 39.8291 62.1829C39.8915 60.5239 40.2424 58.8883 40.866 57.3497L40.948 57.1593C41.1582 56.6998 41.3278 56.2227 41.455 55.7336C41.6381 54.9743 41.7241 54.1948 41.7109 53.4138C41.7109 51.4582 41.3204 50.5411 40.8676 49.4763C40.3754 48.3279 39.8275 47.0367 39.8275 44.5774C39.8128 43.5902 39.923 42.6051 40.1556 41.6456C40.4173 40.6439 40.7596 39.6651 41.1793 38.7187C41.2926 38.4496 41.4008 38.1954 41.4943 37.946C42.0161 36.5547 42.0456 34.8829 41.5829 32.9765C41.527 32.6683 41.5908 32.3503 41.7612 32.0874C41.9317 31.8245 42.196 31.6366 42.5002 31.5619C42.8045 31.4872 43.1258 31.5313 43.3986 31.6854C43.6714 31.8394 43.8752 32.0917 43.9684 32.3908C44.5508 34.7861 44.4918 36.9436 43.7929 38.8073C43.6829 39.1043 43.5648 39.3799 43.4401 39.6736C43.0693 40.5098 42.768 41.3751 42.5394 42.2608C42.3563 43.0202 42.2703 43.7997 42.2835 44.5807C42.2835 46.5363 42.674 47.4534 43.1268 48.5182C43.619 49.6666 44.1669 50.9578 44.1669 53.4171C44.1815 54.4043 44.0713 55.3893 43.8388 56.3489C43.6793 56.9629 43.468 57.5622 43.2072 58.1404L43.1333 58.3143C42.6205 59.5882 42.334 60.9418 42.2868 62.3142C42.2688 62.628 42.1315 62.9231 41.9031 63.139C41.6746 63.355 41.3723 63.4754 41.0579 63.4757Z" fill="#A17855"/>
<path d="M58.3611 65.789L57.8574 67.6183L57.1798 70.0792L54.2513 80.7154C54.0848 81.31 53.728 81.8336 53.2355 82.2061C52.743 82.5786 52.142 82.7793 51.5246 82.7776H32.4851C31.8676 82.7796 31.2664 82.5789 30.7739 82.2064C30.2814 81.8339 29.9246 81.3101 29.7584 80.7154L26.8217 70.071L26.1441 67.6101L25.6404 65.789C25.5261 65.3711 25.5101 64.9324 25.5938 64.5074C25.6775 64.0823 25.8585 63.6825 26.1227 63.3391C26.3869 62.9958 26.727 62.7183 27.1164 62.5285C27.5059 62.3387 27.934 62.2418 28.3672 62.2452H55.6343C56.0675 62.2418 56.4956 62.3387 56.8851 62.5285C57.2745 62.7183 57.6146 62.9958 57.8788 63.3391C58.143 63.6825 58.324 64.0823 58.4077 64.5074C58.4914 64.9324 58.4754 65.3711 58.3611 65.789Z" fill="#B28B6A"/>
<path d="M55.6327 62.2453H50.7109C51.1441 62.2418 51.5722 62.3388 51.9616 62.5286C52.351 62.7184 52.6911 62.9959 52.9553 63.3392C53.2195 63.6825 53.4005 64.0824 53.4842 64.5075C53.5679 64.9325 53.5519 65.3712 53.4376 65.789L52.9339 67.6183L52.2563 70.0793L49.3278 80.7154C49.1613 81.31 48.8045 81.8337 48.312 82.2062C47.8196 82.5786 47.2186 82.7794 46.6011 82.7777H51.523C52.1404 82.7794 52.7414 82.5786 53.2339 82.2062C53.7264 81.8337 54.0832 81.31 54.2497 80.7154L57.1782 70.0793L57.8558 67.6183L58.3594 65.789C58.4738 65.3712 58.4897 64.9325 58.4061 64.5075C58.3224 64.0824 58.1414 63.6825 57.8772 63.3392C57.613 62.9959 57.2729 62.7184 56.8834 62.5286C56.494 62.3388 56.0659 62.2418 55.6327 62.2453ZM42.9425 54.6426C42.6896 54.6428 42.4427 54.5651 42.2355 54.42C42.0284 54.2749 41.8709 54.0695 41.7847 53.8317C41.6984 53.594 41.6876 53.3354 41.7535 53.0912C41.8195 52.8471 41.9591 52.6291 42.1534 52.4671L47.2163 48.2507C47.3405 48.1473 47.4839 48.0694 47.6382 48.0214C47.7925 47.9734 47.9548 47.9562 48.1158 47.9709C48.2767 47.9856 48.4332 48.0319 48.5763 48.1071C48.7194 48.1822 48.8462 48.2849 48.9496 48.4091C49.0531 48.5333 49.131 48.6766 49.179 48.831C49.227 48.9853 49.2442 49.1476 49.2295 49.3085C49.2148 49.4695 49.1685 49.6259 49.0933 49.769C49.0181 49.9121 48.9155 50.039 48.7913 50.1424L43.7284 54.3588C43.5076 54.5423 43.2296 54.6427 42.9425 54.6426Z" fill="#A17855"/>
<path d="M56.1011 47.37C58.8902 44.6416 59.7725 41.0206 58.0719 39.2821C56.3712 37.5436 52.7316 38.3461 49.9426 41.0745C47.1535 43.8029 46.2712 47.4239 47.9719 49.1624C49.6725 50.9009 53.3121 50.0984 56.1011 47.37Z" fill="#19AC66"/>
<path d="M41.3429 60.0354C41.055 60.0357 40.7762 59.9347 40.5554 59.75L35.7401 55.7403C35.6159 55.6369 35.5133 55.51 35.4381 55.3669C35.3629 55.2239 35.3167 55.0674 35.302 54.9064C35.2723 54.5814 35.3729 54.2578 35.5818 54.007C35.7907 53.7561 36.0906 53.5985 36.4157 53.5688C36.7407 53.5391 37.0643 53.6398 37.3151 53.8487L42.1304 57.86C42.3245 58.0219 42.4641 58.2396 42.5301 58.4837C42.5961 58.7277 42.5853 58.9861 42.4993 59.2238C42.4133 59.4615 42.2561 59.6669 42.0492 59.8121C41.8423 59.9574 41.5956 60.0353 41.3429 60.0354Z" fill="#A17855"/>
<path d="M36.566 54.767C38.2666 53.0285 37.3843 49.4074 34.5953 46.6791C31.8062 43.9507 28.1666 43.1482 26.466 44.8867C24.7654 46.6251 25.6477 50.2462 28.4367 52.9746C31.2258 55.7029 34.8654 56.5054 36.566 54.767Z" fill="#19AC66"/>
<path d="M65.4765 1.23047H18.5234C15.8052 1.23047 13.6016 3.43407 13.6016 6.15234V27.761C13.6016 30.4793 15.8052 32.6829 18.5234 32.6829H65.4765C68.1948 32.6829 70.3984 30.4793 70.3984 27.761V6.15234C70.3984 3.43407 68.1948 1.23047 65.4765 1.23047Z" fill="#107F47"/>
<path d="M65.4766 1.23047H63.0156C64.321 1.23047 65.5729 1.74902 66.4959 2.67205C67.4189 3.59508 67.9375 4.84698 67.9375 6.15234V27.761C67.9375 29.0664 67.4189 30.3183 66.4959 31.2413C65.5729 32.1643 64.321 32.6829 63.0156 32.6829H65.4766C66.7819 32.6829 68.0338 32.1643 68.9569 31.2413C69.8799 30.3183 70.3984 29.0664 70.3984 27.761V6.15234C70.3984 4.84698 69.8799 3.59508 68.9569 2.67205C68.0338 1.74902 66.7819 1.23047 65.4766 1.23047Z" fill="#0D7341"/>
<path d="M60.553 32.6829H23.4453C23.4453 30.0722 22.4082 27.5684 20.5621 25.7223C18.7161 23.8762 16.2123 22.8391 13.6016 22.8391V11.0742C16.2123 11.0742 18.7161 10.0371 20.5621 8.19105C22.4082 6.34499 23.4453 3.84119 23.4453 1.23047H60.553C60.553 3.84119 61.5901 6.34499 63.4361 8.19105C65.2822 10.0371 67.786 11.0742 70.3967 11.0742V22.8391C67.786 22.8391 65.2822 23.8762 63.4361 25.7223C61.5901 27.5684 60.553 30.0722 60.553 32.6829Z" fill="#19AC66"/>
<path d="M70.3984 22.8391V11.0742C67.7877 11.0742 65.2839 10.0371 63.4379 8.19105C61.5918 6.34499 60.5547 3.84119 60.5547 1.23047H58.0938C58.0938 3.84119 59.1309 6.34499 60.9769 8.19105C62.823 10.0371 65.3268 11.0742 67.9375 11.0742V23.1492C68.3897 23.0324 68.8497 22.9485 69.314 22.8982C69.6741 22.8589 70.0362 22.8392 70.3984 22.8391Z" fill="#17A454"/>
<path d="M42.002 28.9785C39.22 28.9788 36.524 28.0144 34.3734 26.2497C32.2228 24.485 30.7506 22.0292 30.2077 19.3007C29.6649 16.5722 30.0849 13.7399 31.3963 11.2864C32.7076 8.8329 34.8292 6.91003 37.3994 5.84543C39.9696 4.78084 42.8294 4.6404 45.4915 5.44806C48.1537 6.25571 50.4534 7.96148 51.9989 10.2747C53.5443 12.5879 54.2398 15.3654 53.9669 18.134C53.6939 20.9025 52.4694 23.4908 50.5021 25.4577C49.3884 26.5774 48.0637 27.4652 46.6047 28.0695C45.1457 28.6738 43.5812 28.9828 42.002 28.9785Z" fill="#FED947"/>
<path d="M50.5001 8.45564C49.3864 7.3359 48.0617 6.44817 46.6027 5.84382C45.1437 5.23948 43.5792 4.93053 42 4.93486C41.3127 4.9361 40.6267 4.99483 39.9492 5.11041C42.119 5.48622 44.1439 6.45084 45.8028 7.89898C47.4618 9.34712 48.6911 11.2231 49.3565 13.3223C50.022 15.4214 50.0981 17.663 49.5764 19.8024C49.0548 21.9419 47.9555 23.8969 46.3985 25.4542C44.6492 27.2129 42.3946 28.3818 39.9492 28.7978C40.6266 28.9147 41.3126 28.974 42 28.9749C44.3772 28.9746 46.7009 28.2695 48.6774 26.9487C50.6539 25.6279 52.1944 23.7508 53.1041 21.5546C54.0139 19.3584 54.2521 16.9418 53.7886 14.6102C53.3251 12.2787 52.1807 10.1369 50.5001 8.45564Z" fill="#FECC30"/>
<path d="M18.6055 15.7139C18.3621 15.7139 18.1242 15.7861 17.9219 15.9213C17.7195 16.0565 17.5618 16.2487 17.4687 16.4735C17.3755 16.6983 17.3512 16.9458 17.3986 17.1844C17.4461 17.4231 17.5633 17.6424 17.7354 17.8145C17.9075 17.9865 18.1267 18.1037 18.3654 18.1512C18.6041 18.1987 18.8515 18.1743 19.0763 18.0812C19.3012 17.9881 19.4934 17.8303 19.6286 17.628C19.7638 17.4256 19.8359 17.1877 19.8359 16.9444C19.8359 16.618 19.7063 16.3051 19.4755 16.0743C19.2448 15.8436 18.9318 15.7139 18.6055 15.7139ZM65.4765 -0.0114746H18.5234C16.8924 -0.00930423 15.3288 0.639584 14.1755 1.7929C13.0222 2.94622 12.3733 4.50983 12.3711 6.14087V27.7495C12.3733 29.3806 13.0222 30.9442 14.1755 32.0975C15.3288 33.2508 16.8924 33.8997 18.5234 33.9019H41.7727C42.0221 35.4211 41.9368 36.773 41.4955 37.9313C41.402 38.1806 41.2937 38.4349 41.1805 38.704C40.7606 39.6521 40.4199 40.6332 40.1616 41.6374C39.929 42.5969 39.8188 43.582 39.8335 44.5692C39.8335 47.0302 40.3864 48.3246 40.8753 49.4681C41.3281 50.528 41.7186 51.4451 41.7186 53.4056C41.7322 54.1867 41.6456 54.9664 41.461 55.7255C41.3553 56.1399 41.2171 56.5453 41.0476 56.9379L37.9813 54.3851C38.8016 51.5074 37.873 48.1786 35.5105 45.8391C32.9084 43.2633 29.094 42.4069 26.0178 43.7063C25.7235 43.8277 25.4881 44.0589 25.3616 44.351C24.0409 47.4092 24.9071 51.199 27.5157 53.7813C29.2293 55.5028 31.5493 56.4841 33.9781 56.5146C34.7589 56.5161 35.5357 56.4022 36.2832 56.1767L40.1961 59.4366C40.08 59.9539 39.9907 60.4768 39.9287 61.0034H28.3655C27.7395 61.0003 27.1213 61.1431 26.56 61.4205C25.9987 61.6979 25.5098 62.1022 25.1319 62.6013C24.7551 63.0911 24.4975 63.6618 24.3796 64.2684C24.2617 64.875 24.2867 65.5007 24.4527 66.0959L28.5641 81.0256C28.804 81.8801 29.3173 82.6325 30.0254 83.1676C30.7336 83.7027 31.5976 83.9911 32.4852 83.9885H51.5164C52.403 83.9891 53.2655 83.6994 53.972 83.1638C54.6785 82.6282 55.1904 81.8761 55.4293 81.0223L58.6581 69.2967C58.6946 69.2083 58.7205 69.1157 58.7352 69.0211L59.5555 66.0959C59.7212 65.5007 59.7463 64.8752 59.6287 64.2687C59.5111 63.6622 59.2541 63.0914 58.8779 62.6013C58.4996 62.1022 58.0103 61.698 57.4488 61.4207C56.8872 61.1433 56.2689 61.0004 55.6426 61.0034H42.4126C42.5347 60.0742 42.7768 59.1649 43.1328 58.298L43.2066 58.1241C43.8014 56.8243 44.1257 55.4171 44.1598 53.9881L48.2516 50.5821C48.9964 50.8071 49.7704 50.921 50.5484 50.9201C52.9771 50.8892 55.2971 49.908 57.0109 48.1868C59.6195 45.6045 60.4841 41.8146 59.165 38.7565C59.0376 38.465 58.8025 38.234 58.5088 38.1117C55.4342 36.8091 51.6181 37.6655 49.0161 40.2445C46.6536 42.5824 45.7217 45.9113 46.5453 48.7889L43.9367 50.9627C43.7547 50.1147 43.4796 49.2894 43.1164 48.5018C42.6652 47.442 42.2731 46.5249 42.2731 44.5643C42.2596 43.7832 42.3461 43.0036 42.5307 42.2445C42.7578 41.3583 43.0591 40.4928 43.4314 39.6572C43.5561 39.3635 43.6726 39.0879 43.7841 38.791C44.3321 37.3308 44.4847 35.6902 44.2452 33.897H65.4765C67.1077 33.8952 68.6715 33.2465 69.8249 32.0931C70.9784 30.9397 71.6271 29.3758 71.6288 27.7446V6.14087C71.6271 4.5097 70.9784 2.94584 69.8249 1.79242C68.6715 0.639012 67.1077 -0.00973747 65.4765 -0.0114746ZM35.581 53.824C33.5007 54.4688 31.0184 53.7846 29.2531 52.0374C27.4878 50.2901 26.8053 47.8505 27.4484 45.803C29.5288 45.1599 32.011 45.8424 33.7763 47.5896C35.5416 49.3369 36.2258 51.7749 35.581 53.824ZM50.7617 41.9902C52.5254 40.2429 55.0077 39.5588 57.0896 40.2035C57.7344 42.2527 57.0437 44.6988 55.2849 46.4379C53.5262 48.177 51.039 48.871 48.9587 48.2344C48.3139 46.177 49.003 43.7309 50.7617 41.9902ZM14.832 6.14087C14.8333 5.16225 15.2227 4.22408 15.9147 3.53209C16.6066 2.8401 17.5448 2.45077 18.5234 2.44946H22.1328C21.864 4.28952 21.0082 5.99356 19.6927 7.30789C18.3771 8.62222 16.6723 9.47655 14.832 9.74368V6.14087ZM18.5234 31.4409C17.5448 31.4396 16.6066 31.0503 15.9147 30.3583C15.2227 29.6663 14.8333 28.7282 14.832 27.7495V24.1402C16.6711 24.4086 18.3745 25.2635 19.6887 26.5777C21.0029 27.892 21.8578 29.5953 22.1263 31.4344L18.5234 31.4409ZM53.0635 80.3693C52.9685 80.7042 52.7665 80.9987 52.4883 81.2079C52.2101 81.417 51.871 81.5293 51.523 81.5276H32.4852C32.1372 81.5291 31.7982 81.4167 31.5201 81.2075C31.2419 80.9984 31.0398 80.704 30.9446 80.3693L28.0981 70.0547H55.9018L53.0635 80.3693ZM55.6344 63.4709C55.8816 63.4692 56.1258 63.525 56.3476 63.6341C56.5695 63.7432 56.7628 63.9024 56.9124 64.0992C57.0574 64.2884 57.1566 64.5087 57.2022 64.7427C57.2477 64.9767 57.2384 65.218 57.1749 65.4478L56.581 67.5938H27.4205L26.8266 65.4363C26.7624 65.2066 26.7527 64.9651 26.7983 64.731C26.8439 64.4969 26.9434 64.2766 27.0891 64.0878C27.2383 63.8909 27.4314 63.7316 27.653 63.6225C27.8746 63.5134 28.1186 63.4575 28.3655 63.4594L55.6344 63.4709ZM69.1679 27.7561C69.167 28.7349 68.7778 29.6733 68.0857 30.3654C67.3937 31.0575 66.4552 31.4466 65.4765 31.4475H61.8671C62.1355 29.6084 62.9905 27.9051 64.3047 26.5909C65.6189 25.2766 67.3222 24.4217 69.1613 24.1533L69.1679 27.7561ZM69.1679 21.6743C66.6736 21.9556 64.3484 23.0748 62.5726 24.8489C60.7968 26.6229 59.6753 28.9469 59.3914 31.4409H24.6102C24.3273 28.9456 23.2061 26.62 21.4299 24.8447C19.6537 23.0693 17.3275 21.9493 14.832 21.6677V12.2227C17.3275 11.9411 19.6537 10.8211 21.4299 9.04572C23.2061 7.27038 24.3273 4.94483 24.6102 2.44946H59.3914C59.6739 4.94469 60.7948 7.27021 62.5707 9.04558C64.3467 10.8209 66.6726 11.9411 69.1679 12.2227V21.6743ZM69.1679 9.75024C67.3288 9.48181 65.6255 8.62691 64.3112 7.31269C62.997 5.99846 62.1421 4.29513 61.8737 2.45603H65.4831C66.4618 2.45689 67.4002 2.84609 68.0923 3.53817C68.7844 4.23026 69.1736 5.16868 69.1745 6.14743L69.1679 9.75024ZM65.3945 18.1814C65.6378 18.1814 65.8757 18.1093 66.0781 17.974C66.2804 17.8388 66.4381 17.6467 66.5313 17.4218C66.6244 17.197 66.6488 16.9496 66.6013 16.7109C66.5538 16.4722 66.4366 16.253 66.2645 16.0809C66.0924 15.9088 65.8732 15.7916 65.6345 15.7441C65.3958 15.6966 65.1484 15.721 64.9236 15.8141C64.6987 15.9073 64.5066 16.065 64.3714 16.2673C64.2362 16.4697 64.164 16.7076 64.164 16.9509C64.1657 17.2761 64.2961 17.5874 64.5267 17.8168C64.7573 18.0461 65.0692 18.1749 65.3945 18.1749V18.1814ZM42.0008 3.69306C39.3796 3.6926 36.8171 4.46953 34.6375 5.92558C32.4579 7.38162 30.7591 9.45136 29.756 11.873C28.7528 14.2947 28.4904 16.9594 29.0019 19.5302C29.5134 22.101 30.7758 24.4624 32.6295 26.3156C35.1147 28.8008 38.4854 30.197 42 30.197C43.7402 30.197 45.4634 29.8542 47.0712 29.1883C48.679 28.5223 50.1399 27.5462 51.3704 26.3156C52.6009 25.0851 53.5771 23.6242 54.243 22.0164C54.909 20.4087 55.2518 18.6855 55.2518 16.9452C55.2518 15.205 54.909 13.4817 54.243 11.874C53.5771 10.2662 52.6009 8.80532 51.3704 7.57478C50.143 6.34023 48.6828 5.36146 47.0745 4.69516C45.4662 4.02885 43.7417 3.68824 42.0008 3.69306ZM49.6313 24.5766C47.8657 26.3431 45.5421 27.4428 43.0566 27.6882C40.571 27.9337 38.0773 27.3096 36.0003 25.9224C33.9232 24.5353 32.3915 22.4708 31.666 20.0809C30.9405 17.6909 31.0662 15.1233 32.0216 12.8157C32.977 10.508 34.7031 8.60299 36.9056 7.42529C39.1082 6.24759 41.6509 5.87006 44.1006 6.35703C46.5504 6.844 48.7554 8.16534 50.3401 10.0959C51.9248 12.0264 52.791 14.4467 52.7912 16.9444C52.7952 18.3623 52.518 19.7669 51.9757 21.077C51.4333 22.387 50.6365 23.5765 49.6313 24.5766Z" fill="#002222"/>
<path d="M46.72 15.7223C47.0933 15.709 47.3333 15.7557 47.44 15.8623C47.56 15.9557 47.62 16.1557 47.62 16.4623C47.62 16.729 47.4667 16.9023 47.16 16.9823C46.8667 17.049 46.5067 17.0823 46.08 17.0823C46.08 17.3757 46.0933 17.8023 46.12 18.3623L46.72 18.3223C47.0933 18.309 47.3333 18.3557 47.44 18.4623C47.56 18.5557 47.62 18.7557 47.62 19.0623C47.62 19.2623 47.5333 19.4157 47.36 19.5223C47.1867 19.6157 46.9667 19.6623 46.7 19.6623H46.18C46.2067 20.729 46.22 21.5223 46.22 22.0423V22.9223C46.22 23.149 46.1 23.3623 45.86 23.5623C45.6333 23.7623 45.28 23.8623 44.8 23.8623C44.5467 23.8623 44.3333 23.8223 44.16 23.7423C43.9867 23.649 43.86 23.549 43.78 23.4423C43.4067 22.9623 43.0467 22.4157 42.7 21.8023C42.3667 21.1757 42.0067 20.4423 41.62 19.6023C41.2733 19.589 40.7667 19.5823 40.1 19.5823C39.7133 19.5823 39.4267 19.589 39.24 19.6023C39.24 19.8157 39.2533 20.149 39.28 20.6023C39.3067 21.269 39.32 21.7423 39.32 22.0223C39.32 22.3023 39.3067 22.5357 39.28 22.7223C39.2267 23.1223 39.1133 23.4223 38.94 23.6223C38.78 23.8223 38.5067 23.9223 38.12 23.9223C37.8133 23.9223 37.58 23.8357 37.42 23.6623C37.26 23.489 37.16 23.2023 37.12 22.8023C37.1067 22.4023 37.1133 21.9757 37.14 21.5223C37.1667 21.069 37.1867 20.769 37.2 20.6223C37.2267 20.409 37.2533 20.089 37.28 19.6623C36.7333 19.6623 36.3333 19.609 36.08 19.5023C35.84 19.3823 35.72 19.1357 35.72 18.7623C35.72 18.589 35.8333 18.469 36.06 18.4023C36.3 18.3357 36.6933 18.309 37.24 18.3223L37.34 18.3423V18.3023C37.34 18.0357 37.3267 17.6357 37.3 17.1023C36.74 17.1023 36.3333 17.0423 36.08 16.9223C35.84 16.8023 35.72 16.5557 35.72 16.1823C35.72 15.9957 35.8333 15.8757 36.06 15.8223C36.2867 15.7557 36.68 15.729 37.24 15.7423L37.2 15.1223C37.1067 14.0023 37.06 13.0423 37.06 12.2423C37.06 11.9223 37.18 11.6757 37.42 11.5023C37.66 11.329 37.9333 11.2423 38.24 11.2423C38.7867 11.2423 39.1667 11.3623 39.38 11.6023C39.7933 12.0557 40.1667 12.6157 40.5 13.2823C40.8467 13.949 41.24 14.8023 41.68 15.8423H41.82C42.8067 15.8423 43.56 15.8357 44.08 15.8223C44.0267 14.3823 44 13.3223 44 12.6423C44 12.2557 44.0867 11.9223 44.26 11.6423C44.4333 11.349 44.7 11.2023 45.06 11.2023C45.3667 11.2023 45.64 11.2623 45.88 11.3823C46.12 11.5023 46.24 11.7023 46.24 11.9823C46.24 12.5423 46.2133 13.329 46.16 14.3423C46.1333 14.6757 46.1067 15.149 46.08 15.7623L46.72 15.7223ZM39.2 14.2623C39.2267 14.8223 39.24 15.3357 39.24 15.8023C39.3733 15.8157 39.5 15.8223 39.62 15.8223C39.74 15.809 39.86 15.809 39.98 15.8223C39.78 15.3823 39.52 14.8623 39.2 14.2623ZM39.94 17.0023C39.62 17.0023 39.38 17.009 39.22 17.0223V18.3823L41.12 18.4223L40.5 17.0023H39.94ZM42.78 18.4223C43.0733 18.409 43.54 18.4023 44.18 18.4023L44.12 17.0423L42.16 17.0223C42.3867 17.5557 42.5933 18.0223 42.78 18.4223ZM44.08 21.0223C44.16 20.769 44.2 20.3823 44.2 19.8623V19.6423C44 19.629 43.7067 19.6223 43.32 19.6223C43.5067 20.0357 43.76 20.5023 44.08 21.0223Z" fill="#002222"/>
</g>
<defs>
<clipPath id="clip0_305_7263">
<rect width="84" height="84" fill="white"/>
</clipPath>
</defs>
</svg>
