<svg width="260" height="274" viewBox="0 0 260 274" fill="none" xmlns="http://www.w3.org/2000/svg">
<path opacity="0.1" fill-rule="evenodd" clip-rule="evenodd" d="M232.406 0C157.279 49.3421 119.425 170.026 216.685 240.3L215.628 268.333C168.264 244.537 137.583 232.128 72.3978 224.872C102.135 222.195 132.266 231.272 193.075 249.59C196.264 250.55 199.538 251.536 202.9 252.548C181.48 172.922 65.1159 152.993 0.699739 242.15C34.4713 245.795 54.3187 258.386 73.6064 270.623C83.7538 277.061 93.7463 283.4 105.53 288.287C134.445 294.969 164.063 282.985 182.118 275.679C189.146 272.835 194.422 270.701 197.223 270.651L223.431 282.183L223.431 282.183C231.167 229.255 215.906 84.3007 215.906 84.3007C228.506 145.258 234.63 179.412 236.68 239.943C266.38 217.038 293.527 174.926 278.675 127.186C272.901 108.625 262.646 87.8896 253.035 68.4586C237.929 37.9141 224.416 10.5919 232.406 0Z" fill="url(#paint0_linear_298_12213)"/>
<defs>
<linearGradient id="paint0_linear_298_12213" x1="282.751" y1="19.1049" x2="80.7473" y2="356.731" gradientUnits="userSpaceOnUse">
<stop offset="0.0884423" stop-color="#797A79"/>
<stop offset="1" stop-color="#DDE0DE"/>
</linearGradient>
</defs>
</svg>
