<svg width="32" height="32" viewBox="0 0 32 32" fill="none" xmlns="http://www.w3.org/2000/svg">
<path fill-rule="evenodd" clip-rule="evenodd" d="M12.3692 16.0375C11.8223 16.0375 11.3899 16.4625 11.3899 17C11.3899 17.525 11.8223 17.9625 12.3692 17.9625H20V23.9375C20 27 17.4691 29.5 14.3405 29.5H8.1468C5.03089 29.5 2.5 27.0125 2.5 23.95V10.0625C2.5 6.9875 5.0436 4.5 8.15952 4.5H14.3659C17.4691 4.5 20 6.9875 20 10.05V16.0375H12.3692ZM24.5377 12.6752L28.1877 16.3127C28.3752 16.5002 28.4752 16.7377 28.4752 17.0002C28.4752 17.2502 28.3752 17.5002 28.1877 17.6752L24.5377 21.3127C24.3502 21.5002 24.1002 21.6002 23.8627 21.6002C23.6127 21.6002 23.3627 21.5002 23.1752 21.3127C22.8002 20.9377 22.8002 20.3252 23.1752 19.9502L25.1752 17.9627H20.0002V16.0377H25.1752L23.1752 14.0502C22.8002 13.6752 22.8002 13.0627 23.1752 12.6877C23.5502 12.3002 24.1627 12.3002 24.5377 12.6752Z" fill="#C9F001"/>
<path d="M20.77 9.23637V8.07012C20.77 5.52637 18.7075 3.46387 16.1638 3.46387H10.07C7.52751 3.46387 5.46501 5.52637 5.46501 8.07012V21.9826C5.46501 24.5264 7.52751 26.5889 10.07 26.5889H16.1763C18.7125 26.5889 20.77 24.5326 20.77 21.9964V20.8176" stroke="#005655" stroke-width="1.875" stroke-linecap="round" stroke-linejoin="round"/>
<path d="M29.2619 15.0264H14.2106" stroke="#005655" stroke-width="1.875" stroke-linecap="round" stroke-linejoin="round"/>
<path d="M25.6015 11.3828L29.2615 15.0266L25.6015 18.6716" stroke="#005655" stroke-width="1.875" stroke-linecap="round" stroke-linejoin="round"/>
</svg>
