<svg width="428" height="360" viewBox="0 0 428 360" fill="none" xmlns="http://www.w3.org/2000/svg">
<path d="M290.28 283.677H273.989C274.469 281.883 275.528 280.298 277.001 279.167C278.473 278.037 280.278 277.424 282.134 277.424C283.991 277.424 285.795 278.037 287.268 279.167C288.741 280.298 289.799 281.883 290.28 283.677Z" fill="#C9F001"/>
<path d="M307.148 283.677H290.857C291.337 281.883 292.396 280.298 293.869 279.167C295.341 278.037 297.146 277.424 299.002 277.424C300.859 277.424 302.663 278.037 304.136 279.167C305.609 280.298 306.667 281.883 307.148 283.677Z" fill="#C9F001"/>
<path d="M324.018 283.677H307.727C308.208 281.883 309.266 280.297 310.739 279.167C312.212 278.036 314.016 277.423 315.873 277.423C317.729 277.423 319.533 278.036 321.006 279.167C322.479 280.297 323.538 281.883 324.018 283.677Z" fill="#C9F001"/>
<path d="M303.712 137.238C300.972 137.238 298.293 138.052 296.015 139.575C293.737 141.099 291.961 143.264 290.913 145.798C289.864 148.331 289.59 151.118 290.125 153.807C290.659 156.496 291.979 158.966 293.917 160.905C295.855 162.844 298.324 164.164 301.011 164.699C303.699 165.234 306.485 164.96 309.017 163.911C311.549 162.862 313.713 161.085 315.236 158.806C316.759 156.527 317.572 153.847 317.573 151.105C317.573 149.284 317.215 147.48 316.519 145.797C315.823 144.115 314.802 142.586 313.514 141.298C312.227 140.01 310.699 138.989 309.017 138.292C307.335 137.595 305.533 137.237 303.712 137.238ZM304.797 157.778V159.754H302.634V157.954H300.829V155.79H303.712C303.949 155.79 304.184 155.744 304.403 155.654C304.622 155.563 304.821 155.43 304.989 155.263C305.157 155.095 305.29 154.897 305.381 154.678C305.471 154.459 305.518 154.224 305.518 153.987C305.518 153.75 305.471 153.515 305.381 153.296C305.29 153.077 305.157 152.878 304.989 152.71C304.821 152.543 304.622 152.41 304.403 152.32C304.184 152.229 303.949 152.183 303.712 152.184C302.755 152.19 301.828 151.848 301.104 151.221C300.379 150.594 299.907 149.726 299.776 148.777C299.644 147.828 299.861 146.864 300.387 146.063C300.913 145.263 301.711 144.681 302.634 144.425V142.45H304.797V144.25H306.596V146.413H303.712C303.234 146.413 302.776 146.603 302.438 146.942C302.1 147.28 301.91 147.738 301.91 148.217C301.91 148.695 302.1 149.153 302.438 149.492C302.776 149.83 303.234 150.02 303.712 150.02C304.669 150.014 305.596 150.355 306.32 150.982C307.044 151.608 307.517 152.476 307.649 153.424C307.782 154.372 307.566 155.336 307.041 156.137C306.516 156.938 305.719 157.521 304.797 157.778Z" fill="#C9F001"/>
<path d="M173.121 113.296C173.121 113.296 153.817 93.7004 168.224 84.656C168.224 84.656 170.296 74.3869 181.219 75.329C192.142 76.2711 200.241 76.0548 202.124 75.268C204.007 74.4811 206.173 91.0624 188.846 84.185C188.846 84.185 185.927 85.0329 187.528 90.403C189.129 95.773 190.636 107.267 185.739 103.122C185.739 103.122 186.542 97.3746 183.127 98.6936C179.712 100.013 179.147 102.745 180.56 105.665C180.56 105.665 175.287 113.108 173.121 113.296Z" fill="#000D0D"/>
<path d="M195.34 95.5844C195.887 95.3356 196.465 95.1621 197.058 95.0686C197.626 94.9737 198.201 94.9261 198.777 94.9263C199.353 94.9246 199.928 94.9716 200.496 95.0668C201.089 95.1598 201.668 95.334 202.214 95.5844C201.668 95.8348 201.089 96.0089 200.496 96.102C199.928 96.1972 199.353 96.2441 198.777 96.2425C198.201 96.2427 197.626 96.1951 197.058 96.1002C196.465 96.0067 195.887 95.8332 195.34 95.5844Z" fill="#005655"/>
<path d="M199.675 101.096C199.98 101.085 200.269 100.957 200.481 100.737C200.693 100.517 200.812 100.224 200.812 99.9184C200.812 99.6129 200.693 99.3194 200.481 99.0997C200.269 98.88 199.98 98.7513 199.675 98.7407C199.369 98.7513 199.08 98.88 198.868 99.0997C198.656 99.3194 198.538 99.6129 198.538 99.9184C198.538 100.224 198.656 100.517 198.868 100.737C199.08 100.957 199.369 101.085 199.675 101.096Z" fill="#005655"/>
<path d="M136.339 212.841C134.202 213.167 132.042 213.312 129.881 213.275C127.716 213.235 125.556 213.033 123.42 212.672C119.142 211.924 114.971 210.66 110.997 208.908L110.724 208.79L110.762 208.495C111.977 199.302 113.978 190.231 116.742 181.38C119.418 172.49 122.97 163.888 127.345 155.701C129.554 151.613 132.036 147.679 134.775 143.925L136.895 141.158C137.643 140.263 138.37 139.367 139.135 138.473C140.696 136.745 142.338 135.111 144.012 133.505C147.348 130.278 150.93 127.314 154.724 124.64C156.629 123.301 158.643 122.127 160.747 121.131C161.805 120.639 162.895 120.219 164.009 119.874C165.132 119.543 166.287 119.332 167.455 119.247L167.42 119.253C168.129 119.044 168.817 118.768 169.474 118.428C170.137 118.097 170.757 117.684 171.319 117.2C171.883 116.717 172.35 116.131 172.695 115.474C173.004 114.791 173.149 114.046 173.118 113.298C173.182 114.053 173.068 114.812 172.785 115.515C172.46 116.204 172.007 116.825 171.451 117.346C170.893 117.863 170.272 118.307 169.602 118.668C168.937 119.04 168.237 119.348 167.513 119.586L167.501 119.59L167.478 119.592C166.345 119.713 165.228 119.954 164.147 120.312C163.067 120.685 162.014 121.13 160.994 121.645C158.958 122.696 157.005 123.901 155.151 125.247C151.448 127.97 147.961 130.974 144.722 134.235C143.093 135.855 141.506 137.525 139.973 139.225L137.794 141.872L135.72 144.616C133.039 148.343 130.611 152.247 128.455 156.301C124.165 164.44 120.624 172.953 117.876 181.735C116.492 186.124 115.282 190.568 114.217 195.048C113.146 199.522 112.211 204.048 111.556 208.59L111.321 208.177C115.221 209.969 119.307 211.321 123.506 212.208C127.726 213.071 132.054 213.284 136.339 212.841Z" fill="#005655"/>
<path d="M147.444 209.503C149.492 208.432 151.458 207.212 153.326 205.852C155.18 204.486 156.938 202.995 158.587 201.389C160.216 199.768 161.74 198.046 163.15 196.231C163.849 195.322 164.529 194.397 165.149 193.438C165.463 192.955 165.755 192.485 166.036 191.981L166.904 190.469C169.22 186.446 171.557 182.436 174.081 178.528C174.706 177.546 175.355 176.581 176.04 175.624C176.21 175.385 176.385 175.146 176.576 174.91C176.77 174.639 177.001 174.397 177.263 174.193C177.837 173.856 178.488 173.673 179.153 173.662C180.338 173.596 181.526 173.638 182.702 173.79C183.868 173.92 185.018 174.097 186.17 174.32L185.843 174.47C187.893 171.154 189.852 167.786 191.861 164.447C193.809 161.072 195.79 157.717 197.706 154.323L197.679 154.547L194.64 144.982L194.617 144.908L194.625 144.803L194.828 142.045C194.912 141.127 194.878 140.208 194.91 139.291C194.958 138.371 194.846 137.461 194.817 136.548C194.797 136.092 194.751 135.639 194.678 135.189L194.497 133.839C194.202 132.078 193.609 130.381 192.744 128.819L192.401 128.264C192.271 128.092 192.13 127.93 191.997 127.762C191.728 127.433 191.43 127.129 191.106 126.853L190.599 126.486C190.427 126.37 190.24 126.283 190.063 126.179C189.879 126.093 189.69 126.014 189.503 125.948C189.334 125.891 189.159 125.848 188.983 125.821L188.382 125.757L188.378 125.18C188.351 123.764 188.501 122.35 188.825 120.971C188.995 120.231 189.292 119.527 189.703 118.889L189.883 118.64C189.962 118.543 190.048 118.452 190.14 118.368C190.333 118.205 190.553 118.077 190.791 117.991C191.198 117.853 191.627 117.795 192.056 117.82C192.778 117.867 193.493 117.984 194.193 118.168L196.165 118.662C197.426 119 198.716 119.214 200.017 119.3C200.633 119.333 201.25 119.294 201.856 119.183C202.36 119.063 202.8 118.756 203.084 118.322C203.721 117.253 204.102 116.051 204.197 114.81C204.459 112.17 204.399 109.508 204.018 106.882L203.939 106.269L204.556 106.236C205.005 106.242 205.451 106.172 205.877 106.031C206.024 105.98 206.156 105.892 206.259 105.775C206.326 105.657 206.351 105.52 206.329 105.385C206.245 104.964 206.061 104.568 205.791 104.232L205.555 103.932C205.471 103.822 205.39 103.71 205.314 103.598C205.158 103.374 205.016 103.143 204.88 102.91C203.809 101.046 203.184 98.958 203.055 96.8113C202.998 95.7256 203.059 94.7304 202.93 93.7191C202.8 92.704 202.599 91.6992 202.329 90.712C201.775 88.7219 201.006 86.7978 200.038 84.9731L200.151 84.9059C201.228 86.6959 202.107 88.5972 202.775 90.5767C203.111 91.5742 203.369 92.5967 203.545 93.6346C203.718 94.6808 203.698 95.7696 203.789 96.7519C203.983 98.7605 204.639 100.697 205.707 102.409C205.839 102.62 205.979 102.825 206.123 103.024C206.194 103.124 206.268 103.221 206.343 103.315L206.595 103.621C206.985 104.091 207.25 104.653 207.366 105.254C207.424 105.636 207.347 106.027 207.148 106.358C206.936 106.655 206.644 106.886 206.306 107.023C205.755 107.233 205.171 107.345 204.581 107.352L205.119 106.706C205.579 109.432 205.703 112.204 205.487 114.96C205.418 115.669 205.289 116.371 205.101 117.058C204.913 117.789 204.601 118.483 204.181 119.11C203.708 119.815 202.989 120.318 202.165 120.519C201.443 120.666 200.705 120.724 199.969 120.692C198.569 120.62 197.181 120.397 195.828 120.029C194.579 119.656 193.302 119.385 192.009 119.22C191.761 119.203 191.513 119.231 191.276 119.303C191.076 119.385 191.026 119.418 190.843 119.684C190.519 120.185 190.283 120.737 190.145 121.317C189.836 122.572 189.684 123.86 189.691 125.152L189.087 124.512C191.356 124.914 192.804 126.506 193.809 128.181C194.736 129.881 195.357 131.731 195.643 133.646L195.802 135.061C195.866 135.53 195.904 136.003 195.914 136.476C195.925 137.419 196.017 138.364 195.948 139.302C195.894 140.239 195.911 141.183 195.798 142.114L195.498 144.907L195.482 144.728L198.22 154.384L198.255 154.507L198.193 154.609C196.163 157.936 194.199 161.301 192.203 164.648C190.266 168.029 188.279 171.382 186.383 174.787L186.28 174.971L186.057 174.936C184.925 174.76 183.776 174.625 182.633 174.54C181.504 174.436 180.369 174.434 179.24 174.535C178.742 174.557 178.257 174.698 177.824 174.945C177.638 175.107 177.476 175.294 177.342 175.501C177.177 175.722 177.017 175.956 176.859 176.196C176.224 177.146 175.624 178.135 175.014 179.116L167.856 191.026C165.561 195.121 162.618 198.818 159.141 201.972C157.422 203.556 155.58 205 153.632 206.292C151.686 207.573 149.634 208.687 147.5 209.622L147.444 209.503Z" fill="#005655"/>
<path d="M167.47 119.42C169.179 122.264 170.856 125.11 172.592 127.911C173.472 129.304 174.339 130.701 175.274 132.046C176.167 133.399 177.154 134.689 178.226 135.906C178.719 136.488 179.291 136.998 179.924 137.424C180.155 137.584 180.427 137.674 180.708 137.683C180.758 137.681 180.806 137.67 180.852 137.65L181.075 137.555C181.224 137.48 181.367 137.394 181.502 137.296C182.083 136.836 182.556 136.254 182.888 135.591C183.259 134.89 183.572 134.16 183.825 133.408C184.09 132.639 184.275 131.874 184.491 131.051C184.72 130.223 185.052 129.426 185.478 128.679C186.323 127.208 187.553 125.994 189.034 125.167C187.752 126.182 186.73 127.487 186.052 128.976C185.72 129.701 185.478 130.464 185.331 131.248C185.195 132.041 185.029 132.895 184.807 133.707C184.59 134.542 184.289 135.353 183.909 136.127C183.524 136.961 182.959 137.7 182.255 138.29C182.062 138.443 181.853 138.576 181.633 138.687L181.288 138.84C181.142 138.897 180.988 138.933 180.831 138.948C180.281 138.975 179.735 138.83 179.272 138.532C178.519 138.051 177.839 137.465 177.253 136.791C175.108 134.211 173.248 131.406 171.708 128.426C170.117 125.511 168.702 122.504 167.47 119.42Z" fill="#005655"/>
<path d="M194.635 144.857C193.622 147.557 192.455 150.188 191.223 152.786C189.996 155.387 188.671 157.94 187.299 160.469C185.902 162.984 184.443 165.47 182.852 167.876L181.634 169.664L180.342 171.404C179.904 171.977 179.425 172.525 178.961 173.077C178.494 173.627 177.954 174.12 177.45 174.628C179.087 172.28 180.598 169.846 181.978 167.337C183.377 164.843 184.776 162.349 186.147 159.835L190.314 152.316C191.715 149.813 193.133 147.317 194.635 144.857Z" fill="#005655"/>
<path d="M159.012 122.359C160.217 121.967 161.471 121.747 162.737 121.707C164.023 121.652 165.307 121.849 166.517 122.287C167.753 122.756 168.828 123.569 169.615 124.631C170.38 125.701 170.908 126.922 171.163 128.213C171.699 130.727 171.873 133.304 171.681 135.868C171.402 138.436 170.695 140.94 169.592 143.276C169.357 143.875 169.035 144.426 168.759 145.003L168.324 145.856L167.848 146.684L166.889 148.334L165.86 149.935C164.489 152.07 162.997 154.114 161.468 156.125C158.411 160.147 155.162 164.003 151.871 167.816L151.568 168.167L151.184 167.928C148.039 165.97 144.903 163.999 141.775 162.013L137.099 159.007C135.539 158.008 133.986 156.997 132.44 155.975C134.065 156.866 135.683 157.771 137.291 158.689L142.127 161.43C145.341 163.273 148.545 165.133 151.739 167.009L151.052 167.121C154.245 163.24 157.413 159.341 160.437 155.345C163.417 151.329 166.354 147.239 168.474 142.766C169.563 140.559 170.283 138.189 170.606 135.75C170.853 133.292 170.763 130.813 170.338 128.38C170.154 127.184 169.717 126.042 169.055 125.029C168.38 124.024 167.436 123.228 166.331 122.733C165.194 122.249 163.973 121.991 162.737 121.975C161.484 121.941 160.232 122.071 159.012 122.359Z" fill="#005655"/>
<path d="M153.162 215.06L152.928 214.892C152.038 214.256 147.574 211.015 147.102 209.695C146.875 209.065 145.192 203.999 143.518 198.661C138.982 184.228 139.305 183.156 139.411 182.803C139.673 181.933 141.426 179.822 144.265 176.451C147.07 173.119 150.561 168.973 151.085 167.346L151.832 167.588C151.26 169.361 148.009 173.222 144.865 176.956C142.665 179.569 140.391 182.27 140.163 183.03C140.078 183.31 140.125 185.247 144.267 198.426C146.023 204.026 147.662 208.932 147.841 209.43C148.13 210.24 151.156 212.642 153.152 214.086C154.945 212.717 156.853 211.506 158.856 210.467C160.719 209.673 162.344 208.407 163.57 206.793C164.252 205.793 164.892 205.795 165.211 205.883C165.59 205.989 166.24 206.421 166.332 208.126C166.475 210.939 161.562 214.059 161.001 214.406L160.589 213.738C162.003 212.864 165.65 210.16 165.549 208.168C165.489 207.066 165.176 206.689 165 206.64C164.859 206.602 164.563 206.731 164.218 207.236C162.907 208.97 161.166 210.332 159.169 211.187C157.124 212.079 153.429 214.858 153.392 214.886L153.162 215.06Z" fill="#005655"/>
<path d="M160.752 214.019L160.765 214.012L160.77 214.01C162.985 213.012 165.223 212.071 167.449 211.1L167.475 211.089L167.503 211.084C168.139 210.977 168.772 210.843 169.414 210.759L170.383 210.674L170.868 210.632L171.356 210.632L172.333 210.635C172.658 210.653 172.983 210.692 173.308 210.719C173.635 210.74 173.959 210.785 174.28 210.852C174.601 210.915 174.927 210.96 175.245 211.04C176.527 211.348 177.76 211.835 178.906 212.488C180.084 213.134 181.143 213.978 182.035 214.983L182.842 215.917L181.456 215.874C181.345 215.871 181.237 215.862 181.129 215.848C181.006 215.85 180.865 215.874 180.734 215.884C180.453 215.921 180.175 215.974 179.9 216.043L179.048 216.291L178.198 216.59C177.069 217.019 175.955 217.515 174.849 218.031C172.641 219.075 170.491 220.237 168.408 221.512C166.363 222.917 164.233 224.193 162.029 225.331C159.834 226.513 157.51 227.438 155.104 228.09C154.801 228.169 154.493 228.231 154.182 228.276C153.868 228.339 153.549 228.372 153.229 228.374C152.589 228.358 151.955 228.24 151.353 228.024C150.175 227.591 149.06 227.004 148.036 226.278C146.021 224.825 144.131 223.206 142.387 221.436L141.077 220.122L140.753 219.798C140.633 219.682 140.521 219.56 140.416 219.43C140.214 219.182 140.028 218.934 139.84 218.685C139.096 217.688 138.385 216.677 137.676 215.663C136.247 213.643 134.908 211.569 133.549 209.505L129.498 203.296C128.17 201.211 126.861 199.114 125.57 197.006C124.274 194.899 123.024 192.76 121.818 190.591C121.217 189.499 120.638 188.406 120.124 187.223L119.941 186.762C119.887 186.585 119.843 186.383 119.8 186.194C119.766 186.013 119.749 185.83 119.751 185.646C119.737 185.47 119.738 185.294 119.754 185.119C119.773 184.785 119.814 184.452 119.877 184.123C119.927 183.802 119.996 183.484 120.082 183.171C120.778 180.757 121.703 178.415 122.844 176.176C123.93 173.941 125.088 171.748 126.315 169.599C128.776 165.304 131.385 161.102 134.178 157.024L134.289 157.095C133.055 159.233 131.825 161.372 130.64 163.535C129.434 165.686 128.265 167.856 127.133 170.044C126.01 172.235 124.892 174.427 123.889 176.664C122.853 178.86 122.013 181.143 121.377 183.486C121.303 183.768 121.245 184.055 121.203 184.344C121.153 184.622 121.121 184.903 121.109 185.185C121.097 185.317 121.097 185.45 121.111 185.582C121.109 185.707 121.121 185.831 121.147 185.953L121.228 186.283L121.392 186.68C121.874 187.757 122.471 188.838 123.052 189.912C124.229 192.062 125.496 194.176 126.74 196.301C127.996 198.421 129.269 200.531 130.561 202.632L134.482 208.904C135.782 210.999 137.077 213.101 138.405 215.176C139.069 216.213 139.738 217.249 140.43 218.26C140.604 218.51 140.78 218.761 140.96 218.998C141.045 219.113 141.137 219.221 141.236 219.323L141.555 219.664L142.813 221.018C144.468 222.831 146.301 224.473 148.284 225.92C149.264 226.641 150.34 227.221 151.48 227.645C152.043 227.842 152.633 227.947 153.229 227.957C153.526 227.953 153.822 227.919 154.112 227.857C154.412 227.813 154.709 227.749 155 227.665C157.348 226.971 159.598 225.979 161.694 224.714C163.826 223.492 165.881 222.14 167.846 220.664C168.878 219.946 169.947 219.308 171.031 218.695C172.114 218.08 173.218 217.505 174.344 216.969C175.469 216.43 176.613 215.927 177.798 215.498L178.697 215.192L179.625 214.933C179.949 214.855 180.277 214.796 180.609 214.757C180.785 214.744 180.95 214.719 181.135 214.719C181.333 214.735 181.532 214.757 181.729 214.784L181.15 215.675C180.355 214.77 179.419 213.999 178.379 213.391C177.323 212.766 176.19 212.281 175.009 211.948C174.715 211.861 174.411 211.808 174.111 211.735C173.812 211.659 173.507 211.605 173.2 211.573C172.894 211.535 172.588 211.485 172.28 211.456L171.351 211.416L170.885 211.396L170.42 211.418L169.486 211.462C168.865 211.517 168.248 211.623 167.627 211.701L167.68 211.685C165.393 212.5 163.117 213.345 160.819 214.133L160.824 214.131L160.811 214.137L160.752 214.019Z" fill="#005655"/>
<path d="M155.919 258.767C150.039 258.31 146.19 257.914 146.19 257.914L147.318 246.042C147.945 246.155 148.584 246.324 149.23 246.393L151.161 246.6L155.029 246.914L157.467 247.045C157.15 247.89 156.893 248.755 156.696 249.636C156.464 250.627 156.276 251.63 156.138 252.634C156 253.643 155.906 254.659 155.856 255.675C155.793 256.706 155.814 257.74 155.919 258.767Z" fill="#005655"/>
<path d="M155.049 246.299C152.47 246.348 149.89 246.262 147.32 246.042C144.681 245.659 132.438 241.52 132.438 241.52C111.161 232.476 111.161 208.542 111.161 208.542C114.935 210.248 118.888 211.523 122.947 212.343C122.743 215.927 123.54 219.497 125.247 222.654C126.975 225.825 129.504 228.488 132.582 230.375C134.103 231.335 135.719 232.137 137.402 232.771C138.224 233.122 139.095 233.354 139.941 233.649C140.806 233.874 141.665 234.138 142.543 234.32C143.421 234.502 144.292 234.715 145.182 234.834C146.066 234.978 146.95 235.123 147.84 235.204C149.62 235.43 151.388 235.505 153.169 235.649C160.273 236.105 167.396 236.172 174.508 235.85L185.146 235.411C188.659 235.23 192.181 235.308 195.684 235.643C196.547 235.731 197.405 235.867 198.254 236.051L199.526 236.327L200.749 236.722C201.565 236.984 202.358 237.316 203.118 237.713C203.507 237.882 203.89 238.114 204.278 238.327L205.432 238.98C206.955 239.87 208.46 240.786 209.889 241.79C211.322 242.722 212.596 243.878 213.663 245.214C213.9 245.503 214.077 245.837 214.181 246.196C214.286 246.555 214.316 246.931 214.271 247.303C214.246 247.48 214.198 247.653 214.127 247.817L214.02 248.074L213.863 248.319C213.688 248.613 213.349 249.09 213.142 249.416C212.229 250.838 210.91 251.952 209.356 252.615C208.974 252.803 208.554 252.935 208.159 253.104C207.761 253.274 207.353 253.419 206.936 253.537L205.683 253.894C205.265 254.026 204.84 254.133 204.41 254.214L201.833 254.741L199.213 255.117C192.217 256.033 185.096 256.083 178.012 256.008C174.464 256.027 170.922 255.857 167.374 255.763L156.936 255.28C157.112 254.465 157.268 253.637 157.381 252.809C157.525 251.799 157.619 250.79 157.67 249.767C157.719 248.862 157.708 247.955 157.638 247.052L158.905 247.121L162.779 247.271C167.944 247.447 173.116 247.516 178.281 247.535C183.453 247.535 188.619 247.503 193.784 247.384C198.95 247.277 204.115 247.081 209.281 246.794C204.109 246.6 198.941 246.47 193.778 246.406C188.613 246.324 183.453 246.305 178.288 246.28L162.797 246.293L155.049 246.299Z" fill="#005655"/>
<path d="M206.866 258.855C194.003 261.219 169.523 259.821 155.92 258.767C156.297 257.808 156.599 256.82 156.822 255.813C156.86 255.638 156.891 255.462 156.929 255.293C160.402 255.569 163.875 255.876 167.354 256.095C170.902 256.284 174.444 256.547 177.998 256.622C185.101 256.823 192.229 256.879 199.331 256.077L201.995 255.738C202.879 255.587 203.757 255.405 204.641 255.242C205.083 255.161 205.521 255.054 205.951 254.923L207.261 254.559C207.699 254.435 208.128 254.285 208.546 254.107C208.966 253.932 209.405 253.794 209.819 253.593L211.041 252.941C211.443 252.709 211.812 252.408 212.195 252.138C212.558 251.831 212.903 251.505 213.229 251.159C213.528 250.801 213.806 250.426 214.063 250.037C214.339 249.617 214.52 249.372 214.809 248.914L215.009 248.594L215.166 248.237C215.269 247.996 215.343 247.743 215.386 247.484C215.426 247.219 215.439 246.949 215.423 246.681C215.389 246.419 215.339 246.16 215.273 245.904C215.179 245.672 215.091 245.433 214.984 245.201L214.608 244.568C213.472 243.11 212.107 241.847 210.565 240.83C209.092 239.789 207.568 238.848 206.032 237.945L204.873 237.28C204.478 237.06 204.108 236.828 203.682 236.64C202.869 236.211 202.022 235.85 201.149 235.561L199.845 235.135L198.51 234.84C197.628 234.638 196.734 234.491 195.833 234.401C192.265 234.074 188.678 234.014 185.101 234.219L174.463 234.708C170.921 234.871 167.379 234.94 163.837 234.959C160.295 234.934 156.76 234.878 153.218 234.69C149.691 234.592 146.177 234.213 142.711 233.554C141.846 233.385 141.006 233.14 140.147 232.933C139.32 232.657 138.461 232.444 137.646 232.112C135.994 231.517 134.404 230.761 132.901 229.854C129.844 228.089 127.304 225.552 125.535 222.497C124.659 220.963 123.995 219.317 123.56 217.605C123.096 215.891 122.889 214.118 122.946 212.343C127.352 213.239 131.875 213.406 136.336 212.838C138.68 216.426 140.473 219.029 140.912 219.474C142.417 220.986 149.199 228.706 153.719 228.142C158.239 227.571 165.085 223.269 167.467 221.544C170.651 219.255 179.334 214.764 181.59 215.328C181.59 215.328 177.027 209.483 167.567 211.39L160.797 214.074C161.104 213.88 166.069 210.744 165.937 208.147C165.831 206.09 164.809 205.67 163.894 207.018C162.624 208.69 160.941 210.002 159.01 210.825C156.898 211.747 153.155 214.569 153.155 214.569C153.155 214.569 147.927 210.831 147.469 209.565C160.076 203.644 166.338 192.524 166.338 192.524C166.338 192.524 166.558 192.154 166.94 191.502C201.625 179.159 208.904 181.975 208.904 181.975C233.578 188.384 206.829 223.432 206.829 223.432C204.804 222.51 202.748 221.701 200.673 220.942C198.598 220.17 196.504 219.468 194.404 218.784C192.298 218.119 190.185 217.467 188.054 216.89C186.944 216.583 185.834 216.288 184.718 216.018C186.123 214.676 187.452 213.265 188.743 211.835C190.116 210.317 191.439 208.762 192.743 207.194C194.034 205.607 195.313 204.014 196.535 202.377C197.764 200.74 198.955 199.078 200.052 197.334C198.554 198.746 197.15 200.232 195.777 201.75C194.404 203.268 193.087 204.823 191.777 206.397C190.492 207.978 189.213 209.571 187.991 211.214C186.825 212.769 185.69 214.35 184.637 215.999C183.628 215.755 182.619 215.529 181.597 215.328C183.615 216.25 185.678 217.059 187.753 217.818C189.828 218.59 191.921 219.292 194.021 219.976C196.128 220.641 198.24 221.287 200.372 221.87C202.503 222.453 204.647 223.005 206.829 223.432L218.507 231.152C230.18 238.879 225.284 255.462 206.866 258.855Z" fill="#005655"/>
<path d="M146.332 256.399C145.208 256.365 144.101 256.346 143.001 256.38C141.914 256.402 140.831 256.52 139.765 256.733C138.725 256.909 137.746 257.34 136.914 257.989C136.515 258.326 136.19 258.744 135.961 259.214C135.736 259.714 135.581 260.243 135.5 260.785C135.421 260.215 135.455 259.634 135.601 259.077C135.77 258.502 136.075 257.977 136.491 257.546C137.346 256.72 138.429 256.17 139.601 255.966C140.724 255.743 141.872 255.677 143.014 255.77C144.141 255.842 145.256 256.053 146.332 256.399Z" fill="#005655"/>
<path d="M147.317 277.037C144.446 274.917 136.485 278.028 136.629 273.644C136.767 269.266 136.629 260.786 136.629 260.786C121.797 257.249 124.762 243.401 124.762 243.401C121.797 243.545 112.475 245.1 112.049 247.641C111.629 250.187 129 283.679 129 283.679H150.326C150.326 283.679 150.188 279.157 147.317 277.037ZM131.188 262.762C131.6 262.677 132.025 262.666 132.441 262.731C132.827 262.786 133.206 262.885 133.57 263.025C133.932 263.169 134.277 263.354 134.598 263.577C134.951 263.814 135.257 264.114 135.5 264.462C135.086 264.547 134.659 264.557 134.24 264.493C133.853 264.439 133.475 264.338 133.112 264.192C132.749 264.051 132.404 263.868 132.084 263.646C131.737 263.404 131.434 263.105 131.188 262.762ZM134.943 269.987C134.556 269.933 134.177 269.832 133.814 269.686C133.451 269.543 133.106 269.358 132.786 269.134C132.437 268.898 132.133 268.601 131.89 268.256C132.302 268.171 132.727 268.161 133.143 268.225C133.53 268.277 133.909 268.376 134.272 268.52C134.636 268.66 134.982 268.845 135.3 269.071C135.649 269.308 135.953 269.605 136.196 269.95C135.784 270.04 135.359 270.052 134.943 269.987ZM134.943 267.09C134.556 267.035 134.177 266.934 133.814 266.788C133.451 266.648 133.106 266.465 132.786 266.243C132.438 266.003 132.135 265.703 131.89 265.359C132.302 265.274 132.727 265.263 133.143 265.327C133.529 265.382 133.908 265.481 134.272 265.622C134.635 265.765 134.98 265.95 135.3 266.174C135.649 266.41 135.953 266.707 136.196 267.052C135.784 267.142 135.359 267.155 134.943 267.09Z" fill="#000D0D"/>
<path d="M124.651 244.113C125.844 243.423 127.108 242.864 128.42 242.444C129.722 241.991 131.069 241.681 132.437 241.519C131.245 242.21 129.981 242.77 128.668 243.188C127.366 243.639 126.019 243.949 124.651 244.113Z" fill="#005655"/>
<path d="M171.796 259.761C172.073 261.159 172.205 262.583 172.188 264.008C172.207 265.434 172.075 266.858 171.796 268.256C171.517 266.858 171.386 265.434 171.404 264.008C171.388 262.583 171.519 261.159 171.796 259.761Z" fill="#005655"/>
<path d="M187.945 260.149C187.926 261.029 188.041 261.907 188.286 262.752C188.519 263.575 188.894 264.351 189.395 265.044C189.643 265.391 189.923 265.714 190.231 266.009C190.386 266.155 190.527 266.32 190.696 266.453C190.868 266.583 191.037 266.718 191.205 266.855C191.539 267.134 191.93 267.336 192.29 267.594C192.668 267.824 193.069 268.013 193.455 268.256C193.018 268.153 192.585 268.021 192.149 267.884C191.725 267.713 191.314 267.512 190.919 267.282C190.116 266.808 189.416 266.178 188.861 265.429C188.315 264.677 187.949 263.81 187.79 262.895C187.631 261.98 187.684 261.04 187.945 260.149Z" fill="#005655"/>
<path d="M200.618 274.07C196.38 274.353 192.262 266.205 192.262 266.205C183.066 270.357 170.534 267.052 170.534 267.052C168.415 280.957 170.534 283.679 170.534 283.679H214.88C215.011 278.166 204.856 273.788 200.618 274.07ZM190.162 271.524C190.365 271.159 190.63 270.832 190.945 270.558C191.236 270.302 191.556 270.081 191.898 269.9C192.238 269.717 192.597 269.576 192.97 269.479C193.375 269.374 193.795 269.342 194.212 269.385C194.013 269.751 193.749 270.079 193.434 270.351C193.144 270.608 192.824 270.829 192.481 271.01C192.141 271.189 191.782 271.328 191.409 271.424C191.003 271.532 190.58 271.566 190.162 271.524ZM191.535 273.374C191.734 273.006 191.999 272.679 192.318 272.408C192.898 271.894 193.592 271.524 194.343 271.33C194.748 271.224 195.168 271.192 195.584 271.235C195.385 271.603 195.12 271.931 194.801 272.201C194.222 272.717 193.528 273.085 192.776 273.274C192.372 273.382 191.951 273.416 191.535 273.374ZM196.826 274.089C196.537 274.344 196.219 274.563 195.879 274.741C195.537 274.924 195.176 275.065 194.801 275.162C194.396 275.267 193.976 275.3 193.56 275.262C193.758 274.892 194.024 274.563 194.343 274.29C194.633 274.035 194.95 273.814 195.29 273.631C195.631 273.451 195.993 273.312 196.368 273.217C196.772 273.106 197.193 273.072 197.609 273.117C197.41 273.487 197.144 273.816 196.826 274.089Z" fill="#000D0D"/>
<path d="M186.111 174.628C187.619 176.193 189.208 177.676 190.831 179.114C192.446 180.557 194.154 181.891 195.945 183.107C196.834 183.709 197.764 184.248 198.73 184.719C199.666 185.193 200.675 185.505 201.716 185.642C202.207 185.7 202.705 185.646 203.172 185.484C203.396 185.404 203.608 185.296 203.804 185.162C203.988 185.004 204.16 184.831 204.316 184.646C204.959 183.809 205.501 182.899 205.932 181.935C206.844 179.98 207.652 177.978 208.352 175.937C209.069 173.896 209.738 171.836 210.361 169.759C211.609 165.609 212.787 161.433 213.841 157.226C216.014 148.835 217.714 140.329 218.934 131.748C219.235 129.63 219.37 127.491 219.337 125.352C219.278 123.25 218.837 121.177 218.037 119.234C217.199 117.322 215.916 115.639 214.295 114.324C212.658 113.036 210.752 112.132 208.719 111.68L208.244 111.581L208.25 111.124C208.254 110.618 208.23 110.112 208.177 109.609C208.13 109.113 208.039 108.622 207.907 108.142C207.811 107.718 207.606 107.326 207.313 107.005C207.069 106.777 206.776 106.777 206.367 106.949L206.158 107.036L205.962 106.954C205.876 106.923 205.784 106.915 205.694 106.931C205.61 106.951 205.537 107.003 205.491 107.077C205.339 107.341 205.253 107.638 205.241 107.943C205.21 108.689 205.27 109.437 205.421 110.169C205.519 110.886 205.769 111.573 206.153 112.186C206.229 112.305 206.329 112.406 206.447 112.485C206.564 112.564 206.696 112.618 206.834 112.644C207.142 112.654 207.444 112.567 207.699 112.395L208.225 112.074L208.302 112.681C208.499 114.237 208.745 115.802 209.07 117.336C209.228 118.099 209.426 118.853 209.664 119.596C209.775 119.952 209.922 120.297 210.104 120.623C210.174 120.753 210.27 120.867 210.386 120.957C210.408 120.971 210.433 120.98 210.458 120.986C210.507 120.972 210.553 120.946 210.59 120.91L210.911 120.62L211.054 121.028C211.344 121.929 211.715 122.803 212.161 123.639C212.346 124.031 212.634 124.365 212.994 124.607C213.258 124.749 213.565 124.289 213.71 123.879L213.87 123.426L214.066 123.871L214.364 124.546L214.384 124.591L214.383 124.626V124.633L214.363 124.55C214.531 124.889 214.727 125.213 214.948 125.519C215.139 125.821 215.418 126.058 215.747 126.198C216.058 126.307 216.368 126.075 216.573 125.776C216.777 125.456 216.951 125.119 217.093 124.767C217.717 123.35 218.037 121.817 218.035 120.269C218.105 121.83 217.848 123.388 217.281 124.844C217.145 125.216 216.975 125.574 216.771 125.914C216.66 126.095 216.51 126.249 216.333 126.365C216.237 126.428 216.128 126.47 216.015 126.488C215.902 126.506 215.786 126.499 215.675 126.469C215.278 126.325 214.936 126.061 214.697 125.714C214.453 125.4 214.236 125.066 214.048 124.716L214.028 124.68L214.028 124.633L214.027 124.626L214.047 124.707L213.713 124.013L214.069 124.005C213.992 124.258 213.87 124.496 213.708 124.706L213.561 124.867C213.495 124.915 213.426 124.958 213.354 124.997C213.271 125.025 213.185 125.043 213.098 125.052C213.014 125.044 212.931 125.029 212.85 125.009C212.38 124.752 211.998 124.359 211.753 123.882C211.261 123.029 210.846 122.135 210.514 121.208L210.978 121.326C210.873 121.43 210.744 121.505 210.603 121.546C210.433 121.584 210.256 121.558 210.104 121.474C209.892 121.342 209.715 121.161 209.588 120.946C209.371 120.587 209.192 120.207 209.054 119.811C208.788 119.05 208.566 118.275 208.389 117.489C208.026 115.93 207.748 114.365 207.516 112.782L208.118 113.068C207.717 113.342 207.238 113.479 206.752 113.457C206.502 113.424 206.26 113.339 206.043 113.209C205.826 113.08 205.638 112.907 205.49 112.702C205.007 111.994 204.687 111.189 204.551 110.343C204.368 109.534 204.287 108.705 204.31 107.876C204.322 107.39 204.465 106.917 204.722 106.506C204.899 106.25 205.163 106.066 205.464 105.989C205.761 105.917 206.072 105.94 206.355 106.055L205.951 106.06C206.26 105.908 206.6 105.829 206.945 105.83C207.325 105.843 207.688 105.987 207.975 106.238C208.426 106.676 208.749 107.23 208.906 107.839C209.067 108.377 209.181 108.927 209.246 109.485C209.315 110.034 209.352 110.586 209.357 111.139L208.888 110.584C211.119 111.049 213.213 112.019 215.011 113.42C216.79 114.842 218.202 116.67 219.13 118.75C220.005 120.827 220.494 123.046 220.574 125.298C220.624 127.506 220.501 129.715 220.206 131.903C219.691 136.251 218.879 140.537 217.985 144.802C217.082 149.065 216.081 153.304 214.984 157.519C213.884 161.732 212.718 165.931 211.375 170.077C210.707 172.152 209.992 174.211 209.228 176.257C208.477 178.313 207.617 180.328 206.652 182.294C206.174 183.306 205.578 184.258 204.875 185.13C204.677 185.355 204.46 185.563 204.225 185.751C203.971 185.92 203.695 186.055 203.405 186.152C202.84 186.337 202.24 186.393 201.65 186.314C200.535 186.148 199.459 185.784 198.472 185.239C197.5 184.725 196.565 184.144 195.675 183.498C193.911 182.214 192.233 180.815 190.654 179.309C189.065 177.822 187.555 176.253 186.111 174.628Z" fill="#005655"/>
<path d="M211.122 122.007C210.911 121.493 210.786 121.118 210.786 121.118C210.704 121.201 210.598 121.256 210.483 121.276L210.786 114.147L211.122 122.007Z" fill="#005655"/>
<path d="M208.464 110.938L207.571 112.54L208.256 112.923L209.15 111.32L208.464 110.938Z" fill="#005655"/>
<path d="M214.206 124.626C214.009 124.238 213.89 123.942 213.89 123.942C213.82 124.159 213.716 124.363 213.581 124.547L213.89 117.629L214.206 124.626Z" fill="#005655"/>
<path d="M204.21 117.63C204.449 118.325 204.638 119.022 204.829 119.713L205.118 120.738C205.201 121.043 205.313 121.339 205.453 121.622L206.01 122.551L204.999 122.198C204.574 122.05 204.155 121.884 203.736 121.718C203.315 121.558 202.905 121.37 202.489 121.195C202.078 121.009 201.668 120.821 201.262 120.619L200.05 119.997C200.507 120.035 200.959 120.113 201.403 120.228C201.846 120.333 202.282 120.456 202.716 120.582C203.146 120.721 203.581 120.848 204.004 121.005C204.429 121.156 204.854 121.308 205.272 121.48L204.818 122.055C204.627 121.697 204.497 121.31 204.435 120.908C204.361 120.548 204.306 120.184 204.27 119.819C204.189 119.092 204.169 118.36 204.21 117.63Z" fill="#005655"/>
<path d="M196.303 119.42C197.115 120.487 197.992 121.504 198.928 122.464C199.853 123.417 200.841 124.306 201.886 125.126C202.927 125.92 204.042 126.611 205.215 127.192C206.379 127.727 207.615 128.089 208.883 128.269L209.528 128.354L209.402 128.996C208.934 131.392 208.382 133.758 207.793 136.122C207.187 138.48 206.543 140.83 205.79 143.15C205.423 144.313 205.024 145.466 204.592 146.61C204.165 147.754 203.706 148.889 203.183 149.999C202.679 151.123 202.074 152.199 201.376 153.215C201.024 153.732 200.594 154.192 200.103 154.579C199.853 154.779 199.557 154.912 199.242 154.968C198.929 155.015 198.611 154.936 198.355 154.749C198.618 154.893 198.928 154.926 199.216 154.843C199.492 154.75 199.742 154.594 199.947 154.388C200.362 153.967 200.716 153.49 200.997 152.969C201.569 151.917 202.063 150.824 202.473 149.699C203.315 147.446 204.008 145.133 204.674 142.812C205.322 140.486 205.946 138.151 206.525 135.802C207.117 133.459 207.674 131.099 208.213 128.749L208.732 129.475C207.339 129.244 205.992 128.795 204.739 128.145C203.53 127.476 202.396 126.677 201.359 125.763C200.345 124.851 199.41 123.855 198.562 122.786C197.714 121.731 196.958 120.605 196.303 119.42Z" fill="#005655"/>
<path d="M205.268 121.47L209.655 123.471L205.001 122.208L205.268 121.47Z" fill="#005655"/>
<path d="M208.93 128.225C209.318 128.345 209.714 128.437 210.115 128.499C210.529 128.566 210.947 128.607 211.366 128.622C212.222 128.66 213.079 128.543 213.893 128.276C213.139 128.755 212.305 129.094 211.431 129.277C210.987 129.375 210.538 129.445 210.086 129.486C209.621 129.531 209.153 129.542 208.686 129.519L208.93 128.225Z" fill="#005655"/>
<path d="M180.558 105.666C180.894 106.093 181.221 106.499 181.56 106.881C181.886 107.258 182.252 107.6 182.65 107.9C183.035 108.187 183.471 108.399 183.934 108.524C184.435 108.626 184.948 108.648 185.455 108.586C184.987 108.905 184.428 109.061 183.862 109.032C183.283 108.985 182.728 108.776 182.26 108.43C181.813 108.091 181.435 107.668 181.148 107.185C180.856 106.721 180.656 106.205 180.558 105.666Z" fill="#005655"/>
<path d="M202.217 110.282C202.193 109.952 202.295 109.626 202.502 109.369C202.702 109.118 202.975 108.935 203.284 108.847C203.617 108.751 203.975 108.78 204.289 108.929C204.446 109.002 204.583 109.112 204.687 109.25C204.792 109.388 204.861 109.55 204.889 109.721C204.626 109.78 204.367 109.857 204.114 109.949C203.959 110.013 203.8 110.068 203.639 110.115C203.452 110.166 203.262 110.204 203.071 110.229C202.788 110.268 202.503 110.285 202.217 110.282Z" fill="#005655"/>
<path d="M337.274 226.461L334.47 240.535L331.529 254.896C330.514 259.718 329.488 264.561 328.406 269.407C327.343 274.252 326.24 279.103 325.065 283.918L324.86 284.759L324.017 284.753C319.806 284.721 315.596 284.583 311.385 284.497L298.752 284.197C294.541 284.113 290.331 284.068 286.12 284.059C281.909 284.054 277.698 284.076 273.487 284.126L273.138 284.13L273.05 283.777L269.496 269.554C268.299 264.816 267.076 260.083 265.926 255.334C264.755 250.59 263.592 245.844 262.467 241.089L259.058 226.832L258.681 225.254L260.328 225.235C263.573 225.198 266.821 225.206 270.071 225.207C273.321 225.203 276.57 225.219 279.817 225.255L289.548 225.363L299.239 225.529L308.874 225.733L318.426 225.974L337.274 226.461ZM337.078 226.617L317.502 227.104L307.843 227.345L298.265 227.549L288.744 227.715L279.263 227.823C276.103 227.864 272.948 227.88 269.797 227.871C266.643 227.872 263.487 227.88 260.328 227.843L261.598 226.246L264.769 240.558C265.837 245.326 266.866 250.103 267.889 254.882C268.932 259.655 269.903 264.446 270.898 269.231L273.925 283.576L273.487 283.227C277.698 283.281 281.909 283.303 286.12 283.294C290.33 283.284 294.541 283.238 298.752 283.156L311.385 282.856C315.596 282.771 319.806 282.632 324.017 282.6L322.969 283.435C323.987 278.727 325.077 274.055 326.208 269.377C327.32 264.7 328.486 260.021 329.665 255.319L333.303 241.112L337.078 226.617Z" fill="#005655"/>
<path d="M302.964 158.252C299.588 169.271 297.519 180.648 296.8 192.15L296.641 194.297L296.58 196.448C296.551 197.882 296.488 199.317 296.485 200.751C296.537 203.62 296.521 206.495 296.751 209.36C296.997 215.113 297.892 220.8 298.753 226.541C297.014 220.988 295.83 215.276 295.217 209.489C294.8 206.599 294.779 203.68 294.616 200.767C294.577 199.31 294.644 197.852 294.652 196.394L294.691 194.206L294.831 192.024L294.993 189.842C295.042 189.115 295.1 188.388 295.198 187.666L295.726 183.325L296.468 179.017C296.718 177.582 297.068 176.165 297.377 174.743C298.64 169.061 300.514 163.532 302.964 158.252Z" fill="#005655"/>
<path d="M295.47 205.514C295.406 204.833 295.453 204.147 295.61 203.483C295.735 202.941 295.935 202.419 296.205 201.933C296.446 201.489 296.746 201.08 297.099 200.719C297.433 200.343 297.872 200.076 298.359 199.952C299.395 199.687 300.804 199.946 301.693 199.54C302.617 199.069 303.317 198.25 303.638 197.263C303.856 196.738 304.115 196.23 304.412 195.745C304.713 195.312 305.062 194.914 305.454 194.561C306.16 193.768 307.031 193.138 308.004 192.714C309.091 192.325 310.253 192.192 311.399 192.326C312.043 192.393 312.674 192.554 313.271 192.804C313.934 193.073 314.522 193.5 314.984 194.048L314.946 194.705C314.031 195.792 313.543 196.591 312.941 197.293C312.666 197.632 312.368 197.952 312.05 198.251C311.754 198.549 311.427 198.814 311.075 199.043C309.853 199.588 308.57 199.982 307.253 200.216C306.755 200.269 306.197 200.248 305.648 200.254C305.151 200.206 304.651 200.271 304.183 200.443C303.715 200.615 303.291 200.89 302.944 201.249C302.306 201.966 302.206 203.371 301.75 204.276C301.538 204.7 301.203 205.051 300.788 205.281C300.381 205.534 299.943 205.732 299.485 205.871C298.974 206.033 298.444 206.13 297.909 206.158C297.239 206.199 296.567 206.146 295.912 206.001L295.47 205.514Z" fill="#005655"/>
<path d="M295.209 190.36C294.222 190.007 293.298 189.498 292.473 188.851C292.188 188.622 291.935 188.356 291.718 188.062C291.497 187.778 291.384 187.426 291.399 187.066C291.406 186.84 291.436 186.615 291.487 186.395L291.605 185.66C291.711 185.207 291.686 184.732 291.531 184.292C291.379 183.918 291.096 183.612 290.735 183.432C290.327 183.242 289.889 183.127 289.441 183.094C288.948 183.065 288.456 183.069 288.044 183.002C287.662 182.93 287.284 182.833 286.914 182.713C286.206 182.566 285.531 182.292 284.921 181.903C284.312 181.392 283.794 180.782 283.391 180.096C283.121 179.691 282.882 179.266 282.674 178.826C282.402 178.278 282.182 177.707 282.015 177.12L282.226 176.497C282.741 176.148 283.303 175.876 283.895 175.689C284.411 175.503 284.949 175.385 285.495 175.34C285.998 175.311 286.504 175.334 287.003 175.407C287.49 175.453 287.966 175.584 288.408 175.793C288.844 176 289.249 176.269 289.609 176.591C289.964 176.936 290.294 177.306 290.596 177.698C290.938 178.064 291.222 178.481 291.436 178.934C291.64 179.435 291.802 179.953 291.921 180.481C292.01 181.441 292.462 182.332 293.185 182.971C293.624 183.247 294.099 183.461 294.597 183.604C295.147 183.75 295.668 183.986 296.141 184.302C296.352 184.447 296.535 184.628 296.684 184.836C296.815 185.046 296.921 185.27 296.998 185.505C297.168 185.984 297.253 186.489 297.25 186.998C297.252 187.552 297.152 188.102 296.955 188.621C296.721 189.25 296.347 189.819 295.862 190.283L295.209 190.36Z" fill="#005655"/>
<path d="M334.586 237.783H263.297V239.422V241.074H263.679H333.829L334.586 237.783Z" fill="#005655"/>
<path d="M307.148 283.388H290.857V283.965H307.148V283.388Z" fill="#005655"/>
<path d="M324.018 283.388H307.727V283.965H324.018V283.388Z" fill="#005655"/>
<path d="M290.279 283.388H273.989V283.965H290.279V283.388Z" fill="#005655"/>
<path d="M328.878 260.927H268.627V264.218H328.878V260.927Z" fill="#005655"/>
<path d="M263.089 233.472H261.773C261.686 233.473 261.601 233.456 261.521 233.423C261.441 233.39 261.368 233.341 261.306 233.28C261.245 233.219 261.196 233.146 261.163 233.066C261.13 232.986 261.113 232.901 261.113 232.814C261.113 232.727 261.13 232.642 261.163 232.562C261.196 232.481 261.245 232.409 261.306 232.348C261.368 232.286 261.441 232.238 261.521 232.205C261.601 232.172 261.686 232.155 261.773 232.156H263.089C263.263 232.156 263.43 232.226 263.553 232.349C263.676 232.473 263.745 232.64 263.745 232.814C263.745 232.988 263.676 233.155 263.553 233.279C263.43 233.402 263.263 233.472 263.089 233.472Z" fill="#005655"/>
<path d="M331.088 233.472H328.473C328.299 233.472 328.132 233.402 328.009 233.279C327.886 233.155 327.817 232.988 327.817 232.814C327.817 232.64 327.886 232.473 328.009 232.349C328.132 232.226 328.299 232.156 328.473 232.156H331.088C331.262 232.156 331.429 232.226 331.552 232.349C331.675 232.473 331.744 232.64 331.744 232.814C331.744 232.988 331.675 233.155 331.552 233.279C331.429 233.402 331.262 233.472 331.088 233.472ZM325.857 233.472H323.242C323.155 233.473 323.069 233.456 322.989 233.423C322.909 233.39 322.836 233.341 322.775 233.28C322.714 233.219 322.665 233.146 322.632 233.066C322.599 232.986 322.581 232.901 322.581 232.814C322.581 232.727 322.599 232.642 322.632 232.562C322.665 232.481 322.714 232.409 322.775 232.348C322.836 232.286 322.909 232.238 322.989 232.205C323.069 232.172 323.155 232.155 323.242 232.156H325.857C326.031 232.156 326.198 232.226 326.321 232.349C326.444 232.473 326.513 232.64 326.513 232.814C326.513 232.988 326.444 233.155 326.321 233.279C326.198 233.402 326.031 233.472 325.857 233.472ZM320.626 233.472H318.011C317.837 233.472 317.67 233.402 317.547 233.279C317.424 233.155 317.355 232.988 317.355 232.814C317.355 232.64 317.424 232.473 317.547 232.349C317.67 232.226 317.837 232.156 318.011 232.156H320.626C320.801 232.156 320.967 232.226 321.09 232.349C321.213 232.473 321.282 232.64 321.282 232.814C321.282 232.988 321.213 233.155 321.09 233.279C320.967 233.402 320.801 233.472 320.626 233.472ZM315.396 233.472H312.781C312.606 233.472 312.44 233.402 312.317 233.279C312.194 233.155 312.125 232.988 312.125 232.814C312.125 232.64 312.194 232.473 312.317 232.349C312.44 232.226 312.606 232.156 312.781 232.156H315.396C315.482 232.155 315.568 232.172 315.648 232.205C315.728 232.238 315.801 232.286 315.863 232.348C315.924 232.409 315.973 232.481 316.006 232.562C316.039 232.642 316.056 232.727 316.056 232.814C316.056 232.901 316.039 232.986 316.006 233.066C315.973 233.146 315.924 233.219 315.863 233.28C315.801 233.341 315.728 233.39 315.648 233.423C315.568 233.456 315.482 233.473 315.396 233.472ZM310.165 233.472H307.55C307.463 233.473 307.378 233.456 307.298 233.423C307.217 233.39 307.145 233.341 307.083 233.28C307.022 233.219 306.973 233.146 306.94 233.066C306.907 232.986 306.89 232.901 306.89 232.814C306.89 232.727 306.907 232.642 306.94 232.562C306.973 232.481 307.022 232.409 307.083 232.348C307.145 232.286 307.217 232.238 307.298 232.205C307.378 232.172 307.463 232.155 307.55 232.156H310.165C310.339 232.156 310.506 232.226 310.629 232.349C310.752 232.473 310.821 232.64 310.821 232.814C310.821 232.988 310.752 233.155 310.629 233.279C310.506 233.402 310.339 233.472 310.165 233.472ZM304.935 233.472H302.319C302.145 233.472 301.978 233.402 301.855 233.279C301.732 233.155 301.663 232.988 301.663 232.814C301.663 232.64 301.732 232.473 301.855 232.349C301.978 232.226 302.145 232.156 302.319 232.156H304.935C305.109 232.156 305.276 232.226 305.399 232.349C305.522 232.473 305.591 232.64 305.591 232.814C305.591 232.988 305.522 233.155 305.399 233.279C305.276 233.402 305.109 233.472 304.935 233.472ZM299.704 233.472H297.089C296.915 233.472 296.748 233.402 296.625 233.279C296.502 233.155 296.433 232.988 296.433 232.814C296.433 232.64 296.502 232.473 296.625 232.349C296.748 232.226 296.915 232.156 297.089 232.156H299.704C299.791 232.155 299.877 232.172 299.957 232.205C300.037 232.238 300.11 232.286 300.171 232.348C300.232 232.409 300.281 232.481 300.314 232.562C300.347 232.642 300.364 232.727 300.364 232.814C300.364 232.901 300.347 232.986 300.314 233.066C300.281 233.146 300.232 233.219 300.171 233.28C300.11 233.341 300.037 233.39 299.957 233.423C299.877 233.456 299.791 233.473 299.704 233.472ZM294.474 233.472H291.858C291.772 233.473 291.686 233.456 291.606 233.423C291.526 233.39 291.453 233.341 291.392 233.28C291.33 233.219 291.282 233.146 291.249 233.066C291.215 232.986 291.198 232.901 291.198 232.814C291.198 232.727 291.215 232.642 291.249 232.562C291.282 232.481 291.33 232.409 291.392 232.348C291.453 232.286 291.526 232.238 291.606 232.205C291.686 232.172 291.772 232.155 291.858 232.156H294.474C294.648 232.156 294.815 232.226 294.938 232.349C295.061 232.473 295.13 232.64 295.13 232.814C295.13 232.988 295.061 233.155 294.938 233.279C294.815 233.402 294.648 233.472 294.474 233.472ZM289.243 233.472H286.628C286.454 233.472 286.287 233.402 286.164 233.279C286.041 233.155 285.972 232.988 285.972 232.814C285.972 232.64 286.041 232.473 286.164 232.349C286.287 232.226 286.454 232.156 286.628 232.156H289.243C289.417 232.156 289.584 232.226 289.707 232.349C289.83 232.473 289.899 232.64 289.899 232.814C289.899 232.988 289.83 233.155 289.707 233.279C289.584 233.402 289.417 233.472 289.243 233.472ZM284.012 233.472H281.397C281.31 233.473 281.224 233.456 281.144 233.423C281.064 233.39 280.991 233.341 280.93 233.28C280.869 233.219 280.82 233.146 280.787 233.066C280.754 232.986 280.737 232.901 280.737 232.814C280.737 232.727 280.754 232.642 280.787 232.562C280.82 232.481 280.869 232.409 280.93 232.348C280.991 232.286 281.064 232.238 281.144 232.205C281.224 232.172 281.31 232.155 281.397 232.156H284.012C284.186 232.156 284.353 232.226 284.476 232.349C284.599 232.473 284.668 232.64 284.668 232.814C284.668 232.988 284.599 233.155 284.476 233.279C284.353 233.402 284.186 233.472 284.012 233.472ZM278.781 233.472H276.166C275.992 233.472 275.825 233.402 275.702 233.279C275.579 233.155 275.51 232.988 275.51 232.814C275.51 232.64 275.579 232.473 275.702 232.349C275.825 232.226 275.992 232.156 276.166 232.156H278.781C278.956 232.156 279.122 232.226 279.245 232.349C279.368 232.473 279.437 232.64 279.437 232.814C279.437 232.988 279.368 233.155 279.245 233.279C279.122 233.402 278.956 233.472 278.781 233.472ZM273.551 233.472H270.936C270.761 233.472 270.595 233.402 270.472 233.279C270.349 233.155 270.28 232.988 270.28 232.814C270.28 232.64 270.349 232.473 270.472 232.349C270.595 232.226 270.761 232.156 270.936 232.156H273.551C273.637 232.155 273.723 232.172 273.803 232.205C273.883 232.238 273.956 232.286 274.018 232.348C274.079 232.409 274.128 232.481 274.161 232.562C274.194 232.642 274.211 232.727 274.211 232.814C274.211 232.901 274.194 232.986 274.161 233.066C274.128 233.146 274.079 233.219 274.018 233.28C273.956 233.341 273.883 233.39 273.803 233.423C273.723 233.456 273.637 233.473 273.551 233.472ZM268.32 233.472H265.705C265.618 233.473 265.533 233.456 265.453 233.423C265.373 233.39 265.3 233.341 265.238 233.28C265.177 233.219 265.128 233.146 265.095 233.066C265.062 232.986 265.045 232.901 265.045 232.814C265.045 232.727 265.062 232.642 265.095 232.562C265.128 232.481 265.177 232.409 265.238 232.348C265.3 232.286 265.373 232.238 265.453 232.205C265.533 232.172 265.618 232.155 265.705 232.156H268.32C268.407 232.155 268.493 232.172 268.573 232.205C268.653 232.238 268.726 232.286 268.787 232.348C268.848 232.409 268.897 232.481 268.93 232.562C268.963 232.642 268.981 232.727 268.981 232.814C268.981 232.901 268.963 232.986 268.93 233.066C268.897 233.146 268.848 233.219 268.787 233.28C268.726 233.341 268.653 233.39 268.573 233.423C268.493 233.456 268.407 233.473 268.32 233.472Z" fill="#C9F001"/>
<path d="M335.018 233.472H333.702C333.528 233.472 333.361 233.402 333.238 233.279C333.115 233.155 333.046 232.988 333.046 232.814C333.046 232.64 333.115 232.473 333.238 232.349C333.361 232.226 333.528 232.156 333.702 232.156H335.018C335.105 232.155 335.191 232.172 335.271 232.205C335.351 232.238 335.424 232.286 335.485 232.348C335.546 232.409 335.595 232.481 335.628 232.562C335.661 232.642 335.678 232.727 335.678 232.814C335.678 232.901 335.661 232.986 335.628 233.066C335.595 233.146 335.546 233.219 335.485 233.28C335.424 233.341 335.351 233.39 335.271 233.423C335.191 233.456 335.105 233.473 335.018 233.472Z" fill="#005655"/>
<path d="M266.523 251.242H265.865C265.691 251.241 265.524 251.172 265.401 251.048C265.278 250.925 265.209 250.758 265.209 250.583C265.209 250.409 265.278 250.242 265.401 250.119C265.524 249.995 265.691 249.926 265.865 249.925H266.523C266.698 249.926 266.864 249.995 266.987 250.119C267.11 250.242 267.179 250.409 267.179 250.583C267.179 250.758 267.11 250.925 266.987 251.048C266.864 251.172 266.698 251.241 266.523 251.242Z" fill="#005655"/>
<path d="M328.195 251.242H326.91C326.735 251.241 326.569 251.172 326.446 251.048C326.323 250.925 326.254 250.758 326.254 250.583C326.254 250.409 326.323 250.242 326.446 250.119C326.569 249.995 326.735 249.926 326.91 249.925H328.195C328.281 249.925 328.367 249.942 328.447 249.975C328.527 250.008 328.6 250.056 328.661 250.117C328.723 250.178 328.771 250.251 328.805 250.331C328.838 250.411 328.855 250.497 328.855 250.583C328.855 250.67 328.838 250.756 328.805 250.836C328.771 250.916 328.723 250.989 328.661 251.05C328.6 251.111 328.527 251.159 328.447 251.192C328.367 251.225 328.281 251.242 328.195 251.242ZM324.34 251.242H323.055C322.881 251.241 322.714 251.172 322.591 251.048C322.468 250.925 322.399 250.758 322.399 250.583C322.399 250.409 322.468 250.242 322.591 250.119C322.714 249.995 322.881 249.926 323.055 249.925H324.34C324.514 249.926 324.681 249.995 324.804 250.119C324.927 250.242 324.996 250.409 324.996 250.583C324.996 250.758 324.927 250.925 324.804 251.048C324.681 251.172 324.514 251.241 324.34 251.242ZM320.486 251.242H319.201C319.114 251.242 319.029 251.225 318.948 251.192C318.868 251.159 318.796 251.111 318.734 251.05C318.673 250.989 318.624 250.916 318.591 250.836C318.558 250.756 318.541 250.67 318.541 250.583C318.541 250.497 318.558 250.411 318.591 250.331C318.624 250.251 318.673 250.178 318.734 250.117C318.796 250.056 318.868 250.008 318.948 249.975C319.029 249.942 319.114 249.925 319.201 249.925H320.486C320.66 249.926 320.827 249.995 320.95 250.119C321.073 250.242 321.142 250.409 321.142 250.583C321.142 250.758 321.073 250.925 320.95 251.048C320.827 251.172 320.66 251.241 320.486 251.242ZM316.631 251.242H315.346C315.259 251.242 315.174 251.225 315.093 251.192C315.013 251.159 314.941 251.111 314.879 251.05C314.818 250.989 314.769 250.916 314.736 250.836C314.703 250.756 314.686 250.67 314.686 250.583C314.686 250.497 314.703 250.411 314.736 250.331C314.769 250.251 314.818 250.178 314.879 250.117C314.941 250.056 315.013 250.008 315.093 249.975C315.174 249.942 315.259 249.925 315.346 249.925H316.631C316.805 249.926 316.972 249.995 317.095 250.119C317.218 250.242 317.287 250.409 317.287 250.583C317.287 250.758 317.218 250.925 317.095 251.048C316.972 251.172 316.805 251.241 316.631 251.242ZM312.777 251.242H311.492C311.317 251.241 311.151 251.172 311.028 251.048C310.905 250.925 310.836 250.758 310.836 250.583C310.836 250.409 310.905 250.242 311.028 250.119C311.151 249.995 311.317 249.926 311.492 249.925H312.777C312.863 249.925 312.949 249.942 313.029 249.975C313.109 250.008 313.182 250.056 313.243 250.117C313.305 250.178 313.353 250.251 313.387 250.331C313.42 250.411 313.437 250.497 313.437 250.583C313.437 250.67 313.42 250.756 313.387 250.836C313.353 250.916 313.305 250.989 313.243 251.05C313.182 251.111 313.109 251.159 313.029 251.192C312.949 251.225 312.863 251.242 312.777 251.242ZM308.922 251.242H307.637C307.551 251.242 307.465 251.225 307.385 251.192C307.305 251.159 307.232 251.111 307.171 251.05C307.109 250.989 307.061 250.916 307.027 250.836C306.994 250.756 306.977 250.67 306.977 250.583C306.977 250.497 306.994 250.411 307.027 250.331C307.061 250.251 307.109 250.178 307.171 250.117C307.232 250.056 307.305 250.008 307.385 249.975C307.465 249.942 307.551 249.925 307.637 249.925H308.922C309.097 249.926 309.263 249.995 309.386 250.119C309.509 250.242 309.578 250.409 309.578 250.583C309.578 250.758 309.509 250.925 309.386 251.048C309.263 251.172 309.097 251.241 308.922 251.242ZM305.067 251.242H303.783C303.609 251.241 303.442 251.172 303.319 251.048C303.196 250.925 303.127 250.758 303.127 250.583C303.127 250.409 303.196 250.242 303.319 250.119C303.442 249.995 303.609 249.926 303.783 249.925H305.067C305.242 249.926 305.408 249.995 305.531 250.119C305.654 250.242 305.723 250.409 305.723 250.583C305.723 250.758 305.654 250.925 305.531 251.048C305.408 251.172 305.242 251.241 305.067 251.242ZM301.213 251.242H299.928C299.841 251.242 299.756 251.225 299.676 251.192C299.595 251.159 299.523 251.111 299.461 251.05C299.4 250.989 299.351 250.916 299.318 250.836C299.285 250.756 299.268 250.67 299.268 250.583C299.268 250.497 299.285 250.411 299.318 250.331C299.351 250.251 299.4 250.178 299.461 250.117C299.523 250.056 299.595 250.008 299.676 249.975C299.756 249.942 299.841 249.925 299.928 249.925H301.213C301.3 249.925 301.385 249.942 301.466 249.975C301.546 250.008 301.618 250.056 301.68 250.117C301.741 250.178 301.79 250.251 301.823 250.331C301.856 250.411 301.873 250.497 301.873 250.583C301.873 250.67 301.856 250.756 301.823 250.836C301.79 250.916 301.741 250.989 301.68 251.05C301.618 251.111 301.546 251.159 301.466 251.192C301.385 251.225 301.3 251.242 301.213 251.242ZM297.359 251.242H296.074C295.899 251.241 295.733 251.172 295.61 251.048C295.487 250.925 295.418 250.758 295.418 250.583C295.418 250.409 295.487 250.242 295.61 250.119C295.733 249.995 295.899 249.926 296.074 249.925H297.359C297.445 249.925 297.531 249.942 297.611 249.975C297.691 250.008 297.764 250.056 297.825 250.117C297.887 250.178 297.935 250.251 297.969 250.331C298.002 250.411 298.019 250.497 298.019 250.583C298.019 250.67 298.002 250.756 297.969 250.836C297.935 250.916 297.887 250.989 297.825 251.05C297.764 251.111 297.691 251.159 297.611 251.192C297.531 251.225 297.445 251.242 297.359 251.242ZM293.504 251.242H292.219C292.133 251.242 292.047 251.225 291.967 251.192C291.887 251.159 291.814 251.111 291.753 251.05C291.691 250.989 291.643 250.916 291.609 250.836C291.576 250.756 291.559 250.67 291.559 250.583C291.559 250.497 291.576 250.411 291.609 250.331C291.643 250.251 291.691 250.178 291.753 250.117C291.814 250.056 291.887 250.008 291.967 249.975C292.047 249.942 292.133 249.925 292.219 249.925H293.504C293.679 249.926 293.845 249.995 293.968 250.119C294.091 250.242 294.16 250.409 294.16 250.583C294.16 250.758 294.091 250.925 293.968 251.048C293.845 251.172 293.679 251.241 293.504 251.242ZM289.649 251.242H288.364C288.278 251.242 288.192 251.225 288.112 251.192C288.032 251.159 287.959 251.111 287.898 251.05C287.836 250.989 287.788 250.916 287.754 250.836C287.721 250.756 287.704 250.67 287.704 250.583C287.704 250.497 287.721 250.411 287.754 250.331C287.788 250.251 287.836 250.178 287.898 250.117C287.959 250.056 288.032 250.008 288.112 249.975C288.192 249.942 288.278 249.925 288.364 249.925H289.649C289.824 249.926 289.99 249.995 290.113 250.119C290.236 250.242 290.305 250.409 290.305 250.583C290.305 250.758 290.236 250.925 290.113 251.048C289.99 251.172 289.824 251.241 289.649 251.242ZM285.795 251.242H284.51C284.336 251.241 284.169 251.172 284.046 251.048C283.923 250.925 283.854 250.758 283.854 250.583C283.854 250.409 283.923 250.242 284.046 250.119C284.169 249.995 284.336 249.926 284.51 249.925H285.795C285.882 249.925 285.967 249.942 286.048 249.975C286.128 250.008 286.2 250.056 286.262 250.117C286.323 250.178 286.372 250.251 286.405 250.331C286.438 250.411 286.455 250.497 286.455 250.583C286.455 250.67 286.438 250.756 286.405 250.836C286.372 250.916 286.323 250.989 286.262 251.05C286.2 251.111 286.128 251.159 286.048 251.192C285.967 251.225 285.882 251.242 285.795 251.242ZM281.941 251.242H280.656C280.482 251.241 280.315 251.172 280.192 251.048C280.069 250.925 280 250.758 280 250.583C280 250.409 280.069 250.242 280.192 250.119C280.315 249.995 280.482 249.926 280.656 249.925H281.941C282.115 249.926 282.282 249.995 282.405 250.119C282.528 250.242 282.597 250.409 282.597 250.583C282.597 250.758 282.528 250.925 282.405 251.048C282.282 251.172 282.115 251.241 281.941 251.242ZM278.086 251.242H276.801C276.715 251.242 276.629 251.225 276.549 251.192C276.469 251.159 276.396 251.111 276.335 251.05C276.273 250.989 276.225 250.916 276.192 250.836C276.158 250.756 276.141 250.67 276.141 250.583C276.141 250.497 276.158 250.411 276.192 250.331C276.225 250.251 276.273 250.178 276.335 250.117C276.396 250.056 276.469 250.008 276.549 249.975C276.629 249.942 276.715 249.925 276.801 249.925H278.086C278.26 249.926 278.427 249.995 278.55 250.119C278.673 250.242 278.742 250.409 278.742 250.583C278.742 250.758 278.673 250.925 278.55 251.048C278.427 251.172 278.26 251.241 278.086 251.242ZM274.231 251.242H272.946C272.86 251.242 272.774 251.225 272.694 251.192C272.614 251.159 272.541 251.111 272.48 251.05C272.418 250.989 272.37 250.916 272.337 250.836C272.303 250.756 272.286 250.67 272.286 250.583C272.286 250.497 272.303 250.411 272.337 250.331C272.37 250.251 272.418 250.178 272.48 250.117C272.541 250.056 272.614 250.008 272.694 249.975C272.774 249.942 272.86 249.925 272.946 249.925H274.231C274.406 249.926 274.572 249.995 274.695 250.119C274.818 250.242 274.887 250.409 274.887 250.583C274.887 250.758 274.818 250.925 274.695 251.048C274.572 251.172 274.406 251.241 274.231 251.242ZM270.377 251.242H269.092C268.918 251.241 268.751 251.172 268.628 251.048C268.505 250.925 268.436 250.758 268.436 250.583C268.436 250.409 268.505 250.242 268.628 250.119C268.751 249.995 268.918 249.926 269.092 249.925H270.377C270.464 249.925 270.549 249.942 270.63 249.975C270.71 250.008 270.782 250.056 270.844 250.117C270.905 250.178 270.954 250.251 270.987 250.331C271.02 250.411 271.037 250.497 271.037 250.583C271.037 250.67 271.02 250.756 270.987 250.836C270.954 250.916 270.905 250.989 270.844 251.05C270.782 251.111 270.71 251.159 270.63 251.192C270.549 251.225 270.464 251.242 270.377 251.242Z" fill="#C9F001"/>
<path d="M331.425 251.242H330.767C330.592 251.242 330.425 251.173 330.301 251.049C330.178 250.926 330.109 250.758 330.109 250.583C330.109 250.409 330.178 250.241 330.301 250.118C330.425 249.994 330.592 249.925 330.767 249.925H331.425C331.599 249.926 331.766 249.995 331.889 250.119C332.012 250.242 332.081 250.409 332.081 250.583C332.081 250.758 332.012 250.925 331.889 251.048C331.766 251.172 331.599 251.241 331.425 251.242Z" fill="#005655"/>
<path d="M271.102 271.113H270.444C270.358 271.113 270.272 271.096 270.192 271.063C270.112 271.03 270.039 270.982 269.978 270.921C269.916 270.859 269.868 270.787 269.834 270.707C269.801 270.627 269.784 270.541 269.784 270.454C269.784 270.368 269.801 270.282 269.834 270.202C269.868 270.122 269.916 270.049 269.978 269.988C270.039 269.927 270.112 269.878 270.192 269.845C270.272 269.812 270.358 269.796 270.444 269.796H271.102C271.276 269.796 271.443 269.866 271.566 269.989C271.689 270.113 271.758 270.28 271.758 270.454C271.758 270.628 271.689 270.796 271.566 270.919C271.443 271.042 271.276 271.112 271.102 271.113Z" fill="#005655"/>
<path d="M323.709 271.113H322.361C322.274 271.113 322.188 271.096 322.108 271.063C322.028 271.03 321.955 270.982 321.894 270.921C321.833 270.859 321.784 270.787 321.751 270.707C321.718 270.627 321.701 270.541 321.701 270.454C321.701 270.368 321.718 270.282 321.751 270.202C321.784 270.122 321.833 270.049 321.894 269.988C321.955 269.927 322.028 269.878 322.108 269.845C322.188 269.812 322.274 269.796 322.361 269.796H323.709C323.884 269.796 324.05 269.866 324.173 269.989C324.296 270.113 324.365 270.28 324.365 270.454C324.365 270.628 324.296 270.796 324.173 270.919C324.05 271.042 323.884 271.112 323.709 271.113ZM319.663 271.113H318.314C318.139 271.112 317.972 271.042 317.85 270.919C317.727 270.796 317.657 270.628 317.657 270.454C317.657 270.28 317.727 270.113 317.85 269.989C317.972 269.866 318.139 269.796 318.314 269.796H319.663C319.837 269.796 320.004 269.866 320.127 269.989C320.25 270.113 320.319 270.28 320.319 270.454C320.319 270.628 320.25 270.796 320.127 270.919C320.004 271.042 319.837 271.112 319.663 271.113ZM315.616 271.113H314.267C314.093 271.112 313.926 271.042 313.803 270.919C313.68 270.796 313.611 270.628 313.611 270.454C313.611 270.28 313.68 270.113 313.803 269.989C313.926 269.866 314.093 269.796 314.267 269.796H315.616C315.703 269.796 315.789 269.812 315.869 269.845C315.949 269.878 316.022 269.927 316.083 269.988C316.144 270.049 316.193 270.122 316.226 270.202C316.259 270.282 316.276 270.368 316.276 270.454C316.276 270.541 316.259 270.627 316.226 270.707C316.193 270.787 316.144 270.859 316.083 270.921C316.022 270.982 315.949 271.03 315.869 271.063C315.789 271.096 315.703 271.113 315.616 271.113ZM311.569 271.113H310.22C310.134 271.113 310.048 271.096 309.968 271.063C309.888 271.03 309.815 270.982 309.754 270.921C309.692 270.859 309.644 270.787 309.61 270.707C309.577 270.627 309.56 270.541 309.56 270.454C309.56 270.368 309.577 270.282 309.61 270.202C309.644 270.122 309.692 270.049 309.754 269.988C309.815 269.927 309.888 269.878 309.968 269.845C310.048 269.812 310.134 269.796 310.22 269.796H311.569C311.743 269.796 311.91 269.866 312.033 269.989C312.156 270.113 312.225 270.28 312.225 270.454C312.225 270.628 312.156 270.796 312.033 270.919C311.91 271.042 311.743 271.112 311.569 271.113ZM307.522 271.113H306.174C306.087 271.113 306.001 271.096 305.921 271.063C305.841 271.03 305.768 270.982 305.707 270.921C305.646 270.859 305.597 270.787 305.564 270.707C305.531 270.627 305.514 270.541 305.514 270.454C305.514 270.368 305.531 270.282 305.564 270.202C305.597 270.122 305.646 270.049 305.707 269.988C305.768 269.927 305.841 269.878 305.921 269.845C306.001 269.812 306.087 269.796 306.174 269.796H307.522C307.697 269.796 307.863 269.866 307.986 269.989C308.109 270.113 308.178 270.28 308.178 270.454C308.178 270.628 308.109 270.796 307.986 270.919C307.863 271.042 307.697 271.112 307.522 271.113ZM303.476 271.113H302.127C302.041 271.113 301.955 271.096 301.875 271.063C301.795 271.03 301.722 270.982 301.661 270.921C301.599 270.859 301.551 270.787 301.517 270.707C301.484 270.627 301.467 270.541 301.467 270.454C301.467 270.368 301.484 270.282 301.517 270.202C301.551 270.122 301.599 270.049 301.661 269.988C301.722 269.927 301.795 269.878 301.875 269.845C301.955 269.812 302.041 269.796 302.127 269.796H303.476C303.65 269.796 303.817 269.866 303.94 269.989C304.063 270.113 304.132 270.28 304.132 270.454C304.132 270.628 304.063 270.796 303.94 270.919C303.817 271.042 303.65 271.112 303.476 271.113ZM299.429 271.113H298.08C297.906 271.112 297.739 271.042 297.616 270.919C297.493 270.796 297.424 270.628 297.424 270.454C297.424 270.28 297.493 270.113 297.616 269.989C297.739 269.866 297.906 269.796 298.08 269.796H299.429C299.516 269.796 299.602 269.812 299.682 269.845C299.762 269.878 299.835 269.927 299.896 269.988C299.957 270.049 300.006 270.122 300.039 270.202C300.072 270.282 300.09 270.368 300.09 270.454C300.09 270.541 300.072 270.627 300.039 270.707C300.006 270.787 299.957 270.859 299.896 270.921C299.835 270.982 299.762 271.03 299.682 271.063C299.602 271.096 299.516 271.113 299.429 271.113ZM295.382 271.113H294.034C293.947 271.113 293.861 271.096 293.781 271.063C293.701 271.03 293.628 270.982 293.567 270.921C293.506 270.859 293.457 270.787 293.424 270.707C293.39 270.627 293.373 270.541 293.373 270.454C293.373 270.368 293.39 270.282 293.424 270.202C293.457 270.122 293.506 270.049 293.567 269.988C293.628 269.927 293.701 269.878 293.781 269.845C293.861 269.812 293.947 269.796 294.034 269.796H295.382C295.556 269.796 295.723 269.866 295.846 269.989C295.969 270.113 296.038 270.28 296.038 270.454C296.038 270.628 295.969 270.796 295.846 270.919C295.723 271.042 295.556 271.112 295.382 271.113ZM291.336 271.113H289.987C289.9 271.113 289.815 271.096 289.734 271.063C289.654 271.03 289.582 270.982 289.52 270.921C289.459 270.859 289.41 270.787 289.377 270.707C289.344 270.627 289.327 270.541 289.327 270.454C289.327 270.368 289.344 270.282 289.377 270.202C289.41 270.122 289.459 270.049 289.52 269.988C289.582 269.927 289.654 269.878 289.734 269.845C289.815 269.812 289.9 269.796 289.987 269.796H291.336C291.51 269.796 291.677 269.866 291.8 269.989C291.923 270.113 291.992 270.28 291.992 270.454C291.992 270.628 291.923 270.796 291.8 270.919C291.677 271.042 291.51 271.112 291.336 271.113ZM287.289 271.113H285.94C285.854 271.113 285.768 271.096 285.688 271.063C285.608 271.03 285.535 270.982 285.474 270.921C285.412 270.859 285.364 270.787 285.33 270.707C285.297 270.627 285.28 270.541 285.28 270.454C285.28 270.368 285.297 270.282 285.33 270.202C285.364 270.122 285.412 270.049 285.474 269.988C285.535 269.927 285.608 269.878 285.688 269.845C285.768 269.812 285.854 269.796 285.94 269.796H287.289C287.463 269.796 287.63 269.866 287.753 269.989C287.876 270.113 287.945 270.28 287.945 270.454C287.945 270.628 287.876 270.796 287.753 270.919C287.63 271.042 287.463 271.112 287.289 271.113ZM283.242 271.113H281.893C281.719 271.112 281.552 271.042 281.429 270.919C281.306 270.796 281.237 270.628 281.237 270.454C281.237 270.28 281.306 270.113 281.429 269.989C281.552 269.866 281.719 269.796 281.893 269.796H283.242C283.329 269.796 283.415 269.812 283.495 269.845C283.575 269.878 283.648 269.927 283.709 269.988C283.77 270.049 283.819 270.122 283.852 270.202C283.886 270.282 283.903 270.368 283.903 270.454C283.903 270.541 283.886 270.627 283.852 270.707C283.819 270.787 283.77 270.859 283.709 270.921C283.648 270.982 283.575 271.03 283.495 271.063C283.415 271.096 283.329 271.113 283.242 271.113ZM279.196 271.113H277.847C277.76 271.113 277.674 271.096 277.594 271.063C277.514 271.03 277.441 270.982 277.38 270.921C277.319 270.859 277.27 270.787 277.237 270.707C277.204 270.627 277.186 270.541 277.186 270.454C277.186 270.368 277.204 270.282 277.237 270.202C277.27 270.122 277.319 270.049 277.38 269.988C277.441 269.927 277.514 269.878 277.594 269.845C277.674 269.812 277.76 269.796 277.847 269.796H279.196C279.282 269.796 279.368 269.812 279.448 269.845C279.528 269.878 279.601 269.927 279.663 269.988C279.724 270.049 279.773 270.122 279.806 270.202C279.839 270.282 279.856 270.368 279.856 270.454C279.856 270.541 279.839 270.627 279.806 270.707C279.773 270.787 279.724 270.859 279.663 270.921C279.601 270.982 279.528 271.03 279.448 271.063C279.368 271.096 279.282 271.113 279.196 271.113ZM275.149 271.113H273.8C273.713 271.113 273.628 271.096 273.548 271.063C273.467 271.03 273.395 270.982 273.333 270.921C273.272 270.859 273.223 270.787 273.19 270.707C273.157 270.627 273.14 270.541 273.14 270.454C273.14 270.368 273.157 270.282 273.19 270.202C273.223 270.122 273.272 270.049 273.333 269.988C273.395 269.927 273.467 269.878 273.548 269.845C273.628 269.812 273.713 269.796 273.8 269.796H275.149C275.323 269.796 275.49 269.866 275.613 269.989C275.736 270.113 275.805 270.28 275.805 270.454C275.805 270.628 275.736 270.796 275.613 270.919C275.49 271.042 275.323 271.112 275.149 271.113Z" fill="#C9F001"/>
<path d="M327.061 271.113H326.404C326.317 271.113 326.231 271.096 326.151 271.063C326.071 271.03 325.999 270.982 325.937 270.921C325.876 270.859 325.827 270.787 325.794 270.707C325.761 270.627 325.744 270.541 325.744 270.454C325.744 270.368 325.761 270.282 325.794 270.202C325.827 270.122 325.876 270.049 325.937 269.988C325.999 269.927 326.071 269.878 326.151 269.845C326.231 269.812 326.317 269.796 326.404 269.796H327.061C327.236 269.796 327.402 269.866 327.525 269.989C327.648 270.113 327.717 270.28 327.717 270.454C327.717 270.628 327.648 270.796 327.525 270.919C327.402 271.042 327.236 271.112 327.061 271.113Z" fill="#005655"/>
<path d="M174.432 72.9523C174.43 73.0676 174.4 73.1808 174.346 73.2824C174.291 73.384 174.213 73.4711 174.118 73.5366C173.929 73.6669 173.718 73.7646 173.497 73.8258C173.055 73.949 172.591 74.0637 172.151 74.1756C171.936 74.243 171.709 74.264 171.486 74.2373C171.262 74.2106 171.047 74.1368 170.854 74.0207C170.668 73.8942 170.522 73.7179 170.432 73.512C170.342 73.306 170.311 73.0788 170.345 72.8565C170.396 72.6677 170.58 72.5696 170.788 72.4864C170.995 72.4049 171.225 72.344 171.452 72.2626C171.686 72.1844 171.914 72.0876 172.133 71.9733C172.244 71.9136 172.352 71.8458 172.454 71.7706C172.547 71.7148 172.632 71.6464 172.726 71.6026C172.901 71.5005 173.104 71.4587 173.305 71.4838C173.506 71.509 173.694 71.5996 173.838 71.7417C174.188 72.0511 174.402 72.4862 174.432 72.9523ZM174.469 72.9523C174.455 72.4597 174.298 71.9819 174.015 71.5782C173.856 71.3557 173.622 71.198 173.356 71.1345C173.082 71.0813 172.798 71.1233 172.551 71.2533C172.436 71.3139 172.325 71.3824 172.219 71.4584C172.13 71.5216 172.04 71.5846 171.944 71.6419C171.748 71.7574 171.543 71.8572 171.331 71.9403C171.115 72.0272 170.892 72.1091 170.667 72.2224C170.548 72.2787 170.438 72.3534 170.342 72.4438C170.238 72.5444 170.171 72.6757 170.148 72.8181C170.142 73.0697 170.197 73.319 170.307 73.545C170.418 73.771 170.581 73.967 170.784 74.1165C170.985 74.2669 171.214 74.376 171.457 74.4377C171.701 74.4994 171.954 74.5123 172.203 74.4758C172.685 74.4078 173.152 74.2597 173.585 74.0378C173.806 73.9275 174.008 73.7822 174.182 73.6077C174.36 73.4352 174.463 73.1999 174.469 72.9523Z" fill="#005655"/>
<path d="M173.16 64.0956C173.153 64.4446 173.066 64.7873 172.906 65.0976C172.747 65.4079 172.518 65.6776 172.238 65.8861C171.68 66.3028 171.058 66.6242 170.395 66.8371C169.077 67.2708 167.695 67.6243 166.349 67.9368C165.686 68.1192 164.991 68.1611 164.311 68.0598C163.631 67.9585 162.979 67.7161 162.397 67.3483C161.833 66.955 161.386 66.4159 161.105 65.7885C160.823 65.1611 160.717 64.4689 160.798 63.7859C160.878 63.4832 161.055 63.2148 161.301 63.021C161.569 62.8249 161.86 62.6637 162.168 62.5411C162.8 62.278 163.483 62.0831 164.154 61.8361C164.841 61.5991 165.507 61.3081 166.147 60.9659C166.47 60.7884 166.781 60.5899 167.079 60.3716C167.352 60.1814 167.636 60.0062 167.929 59.8468C168.487 59.5295 169.134 59.4027 169.771 59.4855C170.415 59.6021 171.008 59.913 171.469 60.3763C171.966 60.8602 172.367 61.4333 172.651 62.0656C172.956 62.7012 173.129 63.3916 173.16 64.0956ZM173.225 64.0956C173.198 63.3797 173.061 62.6723 172.817 61.9984C172.59 61.3045 172.239 60.6573 171.781 60.0882C171.309 59.4755 170.637 59.0463 169.883 58.8742C169.11 58.7346 168.313 58.8603 167.621 59.231C167.29 59.4065 166.971 59.6037 166.666 59.8212C166.389 60.0165 166.111 60.2105 165.814 60.3815C165.214 60.7259 164.588 61.0223 163.941 61.2679C163.289 61.5246 162.617 61.7565 161.955 62.0757C161.611 62.2316 161.292 62.439 161.01 62.6905C160.718 62.9636 160.521 63.3242 160.451 63.7182C160.415 64.4531 160.563 65.1854 160.881 65.8487C161.199 66.512 161.678 67.0855 162.274 67.5172C162.87 67.9454 163.546 68.25 164.261 68.413C164.977 68.5759 165.718 68.594 166.44 68.466C167.861 68.236 169.244 67.8138 170.551 67.2108C171.212 66.9111 171.82 66.506 172.351 66.0113C172.619 65.7677 172.834 65.4723 172.984 65.1431C173.134 64.8138 173.216 64.4575 173.225 64.0956Z" fill="#005655"/>
<path d="M184.616 35.6991C185.02 36.7162 185.214 37.8045 185.187 38.8985C185.132 39.9906 184.779 41.0468 184.167 41.9523C182.881 43.7315 181.185 45.1744 179.222 46.1587C175.303 48.1571 171.211 49.7956 166.996 51.0538C162.8 52.3981 158.593 53.7346 154.411 55.1786C150.19 56.548 146.196 58.5097 142.028 59.7863C137.897 61.2195 133.567 62.0011 129.195 62.1031C124.806 62.3098 120.499 60.8517 117.138 58.0202C115.528 56.544 114.242 54.7501 113.36 52.7517C112.488 50.7432 111.9 48.6229 111.613 46.4521C111.045 42.1034 111.184 37.6914 112.025 33.3871C113.131 29.157 114.917 25.1345 117.312 21.4766C119.661 17.7959 122.462 14.4234 125.648 11.4377C131.98 5.51654 140.337 1.50844 149.011 1.79244C153.341 1.8669 157.599 2.90733 161.475 4.83779C165.336 6.84646 168.777 9.57532 171.612 12.8772C177.415 19.466 181.281 27.5691 184.616 35.6991ZM184.739 35.6497C183.128 31.5404 181.364 27.488 179.37 23.5415C177.416 19.554 175.038 15.7892 172.276 12.3127C169.482 8.78679 166.004 5.86274 162.051 3.71675C158.032 1.62859 153.582 0.502887 149.054 0.428427C144.527 0.294105 140.029 1.18127 135.892 3.02403C131.793 4.87438 128.041 7.41223 124.798 10.5278C121.563 13.6106 118.755 17.1128 116.449 20.941C114.083 24.7332 112.35 28.8848 111.317 33.2332C110.582 37.6279 110.526 42.1096 111.153 46.5212C111.654 50.9947 113.655 55.1668 116.829 58.3584C120.268 61.2994 124.659 62.8918 129.184 62.8397C133.652 62.8723 138.098 62.195 142.354 60.8331C144.487 60.2002 146.569 59.3959 148.627 58.5889C150.666 57.7744 152.732 57.023 154.795 56.259C158.928 54.7443 163.125 53.3824 167.268 51.8386C171.464 50.4113 175.523 48.6104 179.397 46.4574C181.359 45.3883 183.053 43.8876 184.351 42.0685C184.97 41.1266 185.319 40.0333 185.361 38.907C185.376 37.7904 185.164 36.6824 184.739 35.6497Z" fill="#005655"/>
<path d="M125.882 16.6682C126.122 19.1646 126.247 21.661 126.332 24.1573C126.417 26.6537 126.46 29.1501 126.461 31.6465C126.464 34.1429 126.422 36.6392 126.334 39.1356C126.249 41.632 126.123 44.1284 125.882 46.6248C125.641 44.1284 125.515 41.632 125.43 39.1356C125.346 36.6392 125.304 34.1429 125.303 31.6465C125.302 29.1501 125.345 26.6537 125.432 24.1573C125.517 21.661 125.642 19.1646 125.882 16.6682Z" fill="#005655"/>
<path d="M168.098 42.7441C164.268 42.9838 160.438 43.1092 156.608 43.1944C154.693 43.2478 152.778 43.2596 150.863 43.291L145.117 43.323L139.372 43.2926C137.457 43.2603 135.542 43.25 133.627 43.1961C129.797 43.1113 125.967 42.9852 122.136 42.7441C125.967 42.5029 129.797 42.3768 133.627 42.292C135.542 42.2381 137.457 42.2278 139.372 42.1955L145.117 42.165L150.863 42.197C152.778 42.2284 154.693 42.2403 156.608 42.2937C160.438 42.3789 164.268 42.5043 168.098 42.7441Z" fill="#005655"/>
<path d="M125.835 41.8109C126.363 40.9221 126.915 40.0498 127.468 39.1793C128.027 38.3123 128.585 37.4452 129.159 36.5895C129.727 35.729 130.307 34.8771 130.889 34.027C131.465 33.1726 132.063 32.3338 132.652 31.4881L133.015 30.9663L133.453 31.4466C133.938 31.978 134.411 32.5202 134.885 33.0618C135.363 33.599 135.819 34.1563 136.287 34.7033C136.745 35.2586 137.205 35.8119 137.657 36.3729L139.019 38.0503L138.532 38.0815L139.68 36.5284C140.053 36.0039 140.432 35.4842 140.799 34.9557C141.535 33.9001 142.256 32.8344 142.962 31.7586C143.671 30.6851 144.35 29.5909 145.039 28.5037L147.089 25.2305L147.408 24.7207L147.807 25.2111C148.391 25.9277 148.968 26.6488 149.539 27.3744L151.249 29.5541L152.957 31.7356C153.528 32.4614 154.096 33.1897 154.653 33.9264L153.658 33.9418C154.548 32.6733 155.465 31.424 156.38 30.1729C157.297 28.9238 158.224 27.6812 159.159 26.4451C160.094 25.2081 161.038 23.9783 161.993 22.7558C162.47 22.1443 162.952 21.5361 163.438 20.9313C163.924 20.3259 164.406 19.7185 164.904 19.1216L164.998 19.1888C164.597 19.854 164.18 20.5086 163.767 21.1653C163.355 21.8237 162.938 22.4777 162.514 23.1271C161.671 24.4291 160.817 25.7235 159.953 27.0104C159.09 28.2985 158.219 29.5801 157.337 30.855C156.454 32.1281 155.573 33.403 154.664 34.6586L154.175 35.335L153.67 34.674C153.109 33.9405 152.559 33.1986 152.012 32.4542L150.367 30.225L148.724 27.9941C148.178 27.2492 147.638 26.5001 147.103 25.7467L147.821 25.7273L145.538 28.8421C144.782 29.8842 144.016 30.9193 143.281 31.9752C142.542 33.0287 141.818 34.0923 141.109 35.166C140.754 35.7022 140.411 36.2471 140.062 36.7873L139.043 38.4282L138.84 38.7548L138.556 38.4594L137.058 36.9024C136.557 36.3853 136.064 35.8604 135.569 35.3377C135.084 34.8065 134.587 34.2858 134.112 33.7448C133.633 33.2083 133.153 32.6724 132.685 32.1257L133.486 32.0842C132.877 32.9148 132.277 33.7525 131.655 34.5744C131.04 35.4008 130.422 36.2253 129.792 37.0412C129.169 37.8619 128.529 38.6712 127.89 39.4806C127.246 40.2866 126.599 41.0907 125.93 41.8783L125.835 41.8109Z" fill="#005655"/>
</svg>
