<svg width="32" height="32" viewBox="0 0 32 32" fill="none" xmlns="http://www.w3.org/2000/svg">
<path fill-rule="evenodd" clip-rule="evenodd" d="M23.0241 13.2876C23.0241 14.8333 23.4326 15.7444 24.3317 16.7943C25.013 17.5679 25.2308 18.5608 25.2308 19.638C25.2308 20.7139 24.8773 21.7353 24.169 22.5646C23.2418 23.5588 21.9342 24.1934 20.5997 24.3038C18.6658 24.4686 16.7307 24.6074 14.7698 24.6074C12.8078 24.6074 10.8739 24.5244 8.94 24.3038C7.60425 24.1934 6.29664 23.5588 5.37067 22.5646C4.66242 21.7353 4.30769 20.7139 4.30769 19.638C4.30769 18.5608 4.52665 17.5679 5.20675 16.7943C6.13395 15.7444 6.51559 14.8333 6.51559 13.2876V12.7632C6.51559 10.6931 7.03179 9.33949 8.09476 8.01437C9.67516 6.08186 12.2084 4.92285 14.7148 4.92285H14.8249C17.3851 4.92285 20.0003 6.13764 21.5538 8.15321C22.5617 9.45105 23.0241 10.7477 23.0241 12.7632V13.2876ZM11.1676 27.1514C11.1676 26.5316 11.7364 26.2477 12.2624 26.1262C12.8776 25.9961 16.6268 25.9961 17.2421 26.1262C17.7681 26.2477 18.3369 26.5316 18.3369 27.1514C18.3063 27.7414 17.9601 28.2645 17.4818 28.5967C16.8617 29.0802 16.1338 29.3863 15.373 29.4967C14.9522 29.5512 14.5388 29.5525 14.1327 29.4967C13.3706 29.3863 12.6428 29.0802 12.0238 28.5955C11.5443 28.2645 11.1982 27.7414 11.1676 27.1514Z" fill="#C9F001"/>
<path fill-rule="evenodd" clip-rule="evenodd" d="M6.77062 16.9682V16.6986C6.81016 15.9012 7.06573 15.1286 7.51097 14.4605C8.25207 13.6578 8.7594 12.6742 8.97972 11.6129C8.97972 10.7926 8.97972 9.96063 9.05136 9.14035C9.42154 5.1913 13.3263 2.46094 17.1832 2.46094H17.2787C21.1357 2.46094 25.0404 5.1913 25.4225 9.14035C25.4942 9.96063 25.4225 10.7926 25.4822 11.6129C25.7055 12.6767 26.2123 13.6633 26.951 14.4722C27.3996 15.1344 27.6555 15.9042 27.6913 16.6986V16.9564C27.718 18.0278 27.349 19.0724 26.6525 19.8977C25.732 20.8628 24.483 21.4631 23.1418 21.5852C19.209 22.007 15.241 22.007 11.3082 21.5852C9.96855 21.4579 8.72131 20.8584 7.79755 19.8977C7.11176 19.0718 6.74775 18.0333 6.77062 16.9682Z" stroke="#005655" stroke-width="1.84615" stroke-linecap="round" stroke-linejoin="round"/>
<path d="M14.2218 25.6631C14.8363 26.4344 15.7387 26.9335 16.7293 27.0501C17.7198 27.1667 18.7169 26.891 19.4998 26.2842C19.7406 26.1047 19.9572 25.896 20.1446 25.6631" stroke="#005655" stroke-width="1.84615" stroke-linecap="round" stroke-linejoin="round"/>
</svg>
