<svg width="77" height="78" viewBox="0 0 77 78" fill="none" xmlns="http://www.w3.org/2000/svg">
<path d="M59.3528 26.4834C63.8012 26.4834 67.4074 22.8772 67.4074 18.4287C67.4074 13.9802 63.8012 10.374 59.3528 10.374C54.9043 10.374 51.2981 13.9802 51.2981 18.4287C51.2981 22.8772 54.9043 26.4834 59.3528 26.4834Z" fill="#C9F001"/>
<path d="M56.541 30.584C51.9425 29.5881 48.1934 25.839 47.1976 21.2406C46.8168 19.4539 46.7875 17.7258 47.1097 16.0856C47.4905 14.2696 46.1432 12.5708 44.2686 12.5708H21.2762C13.1922 12.5708 6.63135 19.1317 6.63135 27.2157V47.572C6.63135 55.656 13.1922 62.2169 21.2762 62.2169H25.6697C26.4898 62.2169 27.5442 62.7441 28.0128 63.3885L32.4063 69.2171C34.3394 71.7946 37.5027 71.7946 39.4358 69.2171L43.8293 63.3885C44.3858 62.6562 45.2352 62.2169 46.1725 62.2169H50.5952C58.6792 62.2169 65.2108 55.6853 65.2108 47.6013V33.5129C65.2108 31.6677 63.512 30.3204 61.696 30.6718C60.0558 30.9647 58.3277 30.9647 56.541 30.584ZM24.2052 41.8605C22.5649 41.8605 21.2762 40.5425 21.2762 38.9315C21.2762 37.3206 22.5649 36.0026 24.2052 36.0026C25.8161 36.0026 27.1341 37.3206 27.1341 38.9315C27.1341 40.5425 25.8454 41.8605 24.2052 41.8605ZM35.9211 41.8605C34.2808 41.8605 32.9921 40.5425 32.9921 38.9315C32.9921 37.3206 34.2808 36.0026 35.9211 36.0026C37.532 36.0026 38.85 37.3206 38.85 38.9315C38.85 40.5425 37.5613 41.8605 35.9211 41.8605ZM47.6369 41.8605C45.9967 41.8605 44.708 40.5425 44.708 38.9315C44.708 37.3206 45.9967 36.0026 47.6369 36.0026C49.2479 36.0026 50.5659 37.3206 50.5659 38.9315C50.5659 40.5425 49.2772 41.8605 47.6369 41.8605Z" fill="#C9F001"/>
<path d="M70.3807 29.7999V38.5868C70.3807 50.3027 64.5227 56.1607 52.8069 56.1607H51.3424C50.4344 56.1607 49.5557 56.6 48.9992 57.3323L44.6057 63.1902C42.6726 65.7677 39.5093 65.7677 37.5762 63.1902L33.1828 57.3323C32.7141 56.6879 31.6304 56.1607 30.8396 56.1607H29.3751C17.6592 56.1607 11.8013 53.2317 11.8013 38.5868V23.942C11.8013 12.2261 17.6592 6.36816 29.3751 6.36816H46.9489" stroke="#005655" stroke-width="3" stroke-miterlimit="10" stroke-linecap="round" stroke-linejoin="round"/>
<path d="M63.0583 21.013C67.1023 21.013 70.3807 17.7347 70.3807 13.6906C70.3807 9.64653 67.1023 6.36816 63.0583 6.36816C59.0142 6.36816 55.7358 9.64653 55.7358 13.6906C55.7358 17.7347 59.0142 21.013 63.0583 21.013Z" stroke="#005655" stroke-width="3" stroke-linecap="round" stroke-linejoin="round"/>
<path d="M52.7965 32.7289H52.8229" stroke="#005655" stroke-width="5" stroke-linecap="round" stroke-linejoin="round"/>
<path d="M41.0778 32.7289H41.1041" stroke="#005655" stroke-width="5" stroke-linecap="round" stroke-linejoin="round"/>
<path d="M29.359 32.7289H29.3854" stroke="#005655" stroke-width="5" stroke-linecap="round" stroke-linejoin="round"/>
</svg>
