<svg width="428" height="337" viewBox="0 0 428 337" fill="none" xmlns="http://www.w3.org/2000/svg">
<path d="M157.759 71.1772C164.38 71.3692 175.668 73.0705 176.606 82.3537C173.227 85.2697 169.168 87.2878 164.803 88.2218C164.803 88.2218 160.069 83.554 159.002 89.8222C157.935 96.0904 162.203 97.0239 162.203 97.0239C162.203 97.0239 162.336 106.093 165.803 111.961C167.88 115.505 168.811 119.604 168.471 123.697C168.471 123.697 159.802 114.095 143.798 116.896C127.794 119.696 136.063 109.827 135.796 106.626C135.529 103.426 136.73 100.091 139.13 95.2902C141.531 90.489 138.92 82.4038 144.331 76.6189C144.493 76.4467 144.655 76.2795 144.819 76.1173C146.531 74.4626 148.56 73.1717 150.784 72.3227C153.008 71.4736 155.381 71.084 157.759 71.1772Z" fill="#000D0D"/>
<path d="M176.664 82.3451C177.014 83.7296 177.204 85.1495 177.231 86.5772C177.248 87.2977 177.219 88.0185 177.147 88.7354L177.079 89.2694L177.045 89.7273L177.086 90.1692C177.131 90.3078 177.151 90.4525 177.2 90.5894C177.446 91.1649 177.814 91.6801 178.278 92.0994C178.829 92.5819 179.328 93.1202 179.767 93.7057C179.995 94.0554 180.094 94.4735 180.047 94.8883C180.014 95.2884 179.856 95.6679 179.595 95.9728C179.044 96.5035 178.308 96.7987 177.543 96.7957L177.715 96.6192C177.754 98.3245 177.828 100.026 177.791 101.743C177.789 103.495 177.524 105.236 177.004 106.908C176.847 107.376 176.61 107.813 176.303 108.199C176.212 108.311 176.108 108.41 175.992 108.496L175.808 108.63L175.586 108.735C175.466 108.787 175.341 108.827 175.212 108.855L174.871 108.942C173.997 109.103 173.109 109.171 172.22 109.144C170.497 109.105 168.78 108.912 167.092 108.566L167.318 108.52C166.823 108.787 166.357 109.105 165.927 109.468C165.716 109.644 165.531 109.85 165.379 110.079C165.3 110.186 165.248 110.311 165.228 110.442C165.207 110.573 165.218 110.708 165.261 110.834L165.163 110.886C165.078 110.747 165.03 110.589 165.022 110.426C165.015 110.263 165.048 110.101 165.119 109.954C165.242 109.667 165.407 109.399 165.608 109.159C166.006 108.696 166.461 108.284 166.962 107.933L167.037 107.878L167.189 107.886C168.865 107.982 170.555 108.068 172.212 108.017C173.022 108.001 173.83 107.922 174.628 107.78L174.903 107.711C174.983 107.696 175.06 107.673 175.135 107.641C175.157 107.63 175.179 107.621 175.203 107.614L175.274 107.558C175.329 107.518 175.38 107.472 175.426 107.421C175.656 107.148 175.838 106.838 175.963 106.504C176.487 104.94 176.833 103.322 176.996 101.68C177.24 100.007 177.365 98.3186 177.37 96.6277L177.369 96.4545L177.543 96.451C177.869 96.4606 178.194 96.4007 178.496 96.2751C178.798 96.1496 179.069 95.9613 179.293 95.7227C179.48 95.4755 179.573 95.1695 179.555 94.8599C179.552 94.5656 179.444 94.282 179.25 94.0609C178.771 93.5798 178.248 93.1451 177.687 92.7624C177.054 92.2917 176.561 91.6568 176.262 90.9264C176.197 90.7303 176.145 90.5301 176.106 90.327C176.088 90.1235 176.078 89.919 176.069 89.7159L176.131 89.122L176.212 88.6103C176.326 87.9358 176.388 87.2488 176.444 86.5579C176.534 85.1753 176.573 83.7728 176.554 82.3613L176.664 82.3451Z" fill="#014140"/>
<path d="M173.807 92.2557C174.023 92.2482 174.228 92.1571 174.378 92.0016C174.528 91.8461 174.612 91.6384 174.612 91.4222C174.612 91.206 174.528 90.9982 174.378 90.8427C174.228 90.6872 174.023 90.5961 173.807 90.5886C173.591 90.5961 173.386 90.6872 173.236 90.8427C173.086 90.9982 173.002 91.206 173.002 91.4222C173.002 91.6384 173.086 91.8461 173.236 92.0016C173.386 92.1571 173.591 92.2482 173.807 92.2557Z" fill="#014140"/>
<path d="M176.606 94.4895C176.665 94.6815 176.709 94.878 176.736 95.0771C176.751 95.1812 176.756 95.2865 176.752 95.3916C176.748 95.4601 176.711 95.4748 176.659 95.56C176.593 95.7285 176.575 95.9118 176.606 96.0899C176.491 96.1489 176.359 96.1699 176.231 96.1499C176.103 96.1299 175.984 96.0699 175.892 95.9785C175.764 95.8503 175.679 95.6855 175.648 95.5069C175.618 95.3282 175.644 95.1446 175.722 94.9812C175.8 94.8178 175.927 94.6828 176.086 94.5947C176.244 94.5066 176.426 94.4699 176.606 94.4895Z" fill="#014140"/>
<path d="M170.206 88.8881C170.42 88.4707 170.765 88.1355 171.188 87.9346C171.607 87.7221 172.072 87.6157 172.541 87.6247C173.008 87.6298 173.467 87.7464 173.88 87.9646C174.29 88.1744 174.635 88.4941 174.874 88.8881C174.396 88.8871 174.005 88.8209 173.619 88.7987C173.24 88.7515 172.88 88.7525 172.526 88.7356C171.75 88.734 170.975 88.785 170.206 88.8881Z" fill="#014140"/>
<path d="M173.806 99.5578C174.14 99.4927 174.481 99.4679 174.821 99.484C175.123 99.4989 175.423 99.5381 175.719 99.6013C176.013 99.6653 176.302 99.7531 176.583 99.864C176.901 99.9884 177.201 100.153 177.477 100.355C177.186 100.545 176.858 100.673 176.514 100.73C176.171 100.787 175.82 100.772 175.482 100.687C175.154 100.616 174.839 100.49 174.554 100.313C174.244 100.128 173.987 99.8687 173.806 99.5578Z" fill="#014140"/>
<path d="M162.072 95.5904C162.288 95.5829 162.493 95.4918 162.643 95.3363C162.793 95.1808 162.877 94.9731 162.877 94.7569C162.877 94.5407 162.793 94.3329 162.643 94.1774C162.493 94.0219 162.288 93.9308 162.072 93.9233C161.856 93.9308 161.651 94.0219 161.501 94.1774C161.351 94.3329 161.267 94.5407 161.267 94.7569C161.267 94.9731 161.351 95.1808 161.501 95.3363C161.651 95.4918 161.856 95.5829 162.072 95.5904Z" fill="#014140"/>
<path d="M154.201 151.038L163.031 160.819L162.176 161.528L154.201 151.038Z" fill="#014140"/>
<path d="M211.37 184.346C213.562 180.603 215.236 176.58 216.346 172.387C217.462 168.202 218.258 163.939 218.727 159.633C218.986 157.482 219.171 155.324 219.367 153.154C219.437 152.043 219.608 150.94 219.879 149.859C220.177 148.788 220.558 147.742 221.018 146.73C222.806 142.713 225.167 139.042 226.42 134.933C226.746 133.914 227.016 132.879 227.229 131.831C227.328 131.307 227.419 130.781 227.477 130.253C227.545 129.742 227.569 129.226 227.547 128.71C227.382 127.666 227.107 126.642 226.725 125.656C226.361 124.645 225.953 123.642 225.502 122.667C225.389 122.419 225.271 122.193 225.148 121.944C225.078 121.789 225.034 121.623 225.018 121.454C224.997 121.304 224.992 121.152 225.004 121.001C225.043 120.441 225.131 119.886 225.268 119.341C225.515 118.27 225.817 117.228 226.077 116.177C226.352 115.136 226.544 114.075 226.652 113.004C226.702 112.476 226.704 111.928 226.702 111.395C226.71 110.87 226.646 110.346 226.513 109.838C226.45 109.6 226.329 109.382 226.161 109.204C225.992 109.026 225.781 108.893 225.547 108.817C225.426 108.772 225.303 108.727 225.175 108.688C225.153 108.683 225.091 108.659 225.101 108.668C225.105 108.665 225.097 108.668 225.087 108.67C225.048 108.687 225.011 108.711 224.98 108.74C224.804 108.923 224.653 109.128 224.532 109.351C224.015 110.298 223.564 111.28 223.183 112.29C222.381 114.305 221.649 116.352 220.902 118.394C220.146 120.433 219.42 122.482 218.566 124.497C218.351 125.007 218.11 125.505 217.844 125.989C217.573 126.527 217.139 126.965 216.604 127.241C216.042 127.497 215.405 127.536 214.815 127.35C214.257 127.177 213.737 126.898 213.285 126.527L213.173 126.44L213.172 126.29V126.285L213.285 126.523C212.609 125.99 212.07 125.304 211.713 124.521C211.624 124.315 211.556 124.101 211.509 123.882C211.465 123.65 211.451 123.461 211.427 123.251L211.328 122.04C211.283 121.252 211.188 120.468 211.044 119.692C210.952 118.97 210.648 118.292 210.171 117.743C210.116 117.687 210.053 117.639 209.984 117.602C209.925 117.553 209.856 117.517 209.782 117.494C209.712 117.472 209.633 117.435 209.573 117.42C209.53 117.412 209.486 117.412 209.443 117.421C209.299 117.44 209.081 117.708 208.952 118.039C208.69 118.757 208.524 119.506 208.457 120.267C208.296 121.843 208.244 123.43 208.303 125.013L208.307 125.143L208.229 125.288C207.665 126.237 207.232 127.258 206.943 128.324C206.663 129.392 206.537 130.495 206.57 131.599C206.61 132.71 206.779 133.811 207.074 134.882C207.359 135.949 207.768 136.979 208.293 137.951L208.405 138.153L208.355 138.359C207.906 140.218 207.434 142.072 206.871 143.898C206.329 145.732 205.711 147.541 205.043 149.33C204.382 151.122 203.669 152.894 202.903 154.645C202.139 156.399 201.341 158.124 200.446 159.838L200.234 160.245L199.802 160.118C198.783 159.769 197.834 159.24 197.001 158.557C196.204 157.916 195.446 157.228 194.729 156.499C193.306 155.051 192.006 153.512 190.74 151.953C188.221 148.825 185.862 145.59 183.474 142.388L181.683 139.988L179.812 137.651L176.064 132.978C173.611 129.824 170.994 126.802 168.431 123.732L168.514 123.658C171.182 126.635 173.928 129.549 176.477 132.635L180.351 137.223L182.286 139.52L184.141 141.882C186.583 145.051 188.986 148.243 191.532 151.304C192.807 152.829 194.119 154.324 195.516 155.712C196.202 156.407 196.928 157.061 197.69 157.672C198.407 158.256 199.22 158.714 200.092 159.023L199.448 159.303C200.306 157.646 201.1 155.918 201.847 154.187C202.595 152.453 203.294 150.699 203.945 148.924C204.595 147.151 205.201 145.363 205.763 143.56C206.336 141.76 206.816 139.934 207.276 138.105L207.338 138.513C206.77 137.453 206.332 136.328 206.032 135.163C205.725 134.007 205.553 132.82 205.521 131.624C205.465 129.205 206.119 126.821 207.402 124.77L207.328 125.044C207.297 123.41 207.381 121.777 207.579 120.155C207.67 119.313 207.873 118.488 208.183 117.7C208.278 117.481 208.401 117.275 208.549 117.088C208.731 116.854 208.988 116.689 209.277 116.622C209.431 116.591 209.591 116.593 209.745 116.627C209.867 116.663 209.986 116.706 210.103 116.755C210.219 116.798 210.328 116.859 210.426 116.935C210.531 116.999 210.628 117.075 210.713 117.163C211.304 117.831 211.676 118.663 211.779 119.548C211.914 120.357 211.998 121.174 212.03 121.993L212.105 123.189C212.113 123.558 212.186 123.922 212.32 124.266C212.623 124.958 213.086 125.568 213.671 126.046L213.786 126.142L213.785 126.285L213.784 126.29L213.672 126.053C214.437 126.698 215.5 127.152 216.373 126.745C217.248 126.351 217.656 125.25 218.125 124.301C219.016 122.333 219.773 120.292 220.534 118.258C221.296 116.222 222.044 114.179 222.864 112.161C223.263 111.14 223.718 110.143 224.229 109.174C224.366 108.918 224.538 108.682 224.74 108.473C224.807 108.41 224.887 108.36 224.974 108.327C225.034 108.306 225.098 108.3 225.16 108.31C225.202 108.317 225.243 108.327 225.283 108.342C225.415 108.38 225.548 108.427 225.681 108.476C225.964 108.576 226.221 108.736 226.435 108.945C226.641 109.166 226.792 109.431 226.878 109.72C227.375 111.943 227.008 114.157 226.518 116.281C226.282 117.346 226.006 118.4 225.79 119.454C225.674 119.967 225.604 120.489 225.579 121.014C225.562 121.237 225.595 121.46 225.675 121.668C225.799 121.902 225.938 122.156 226.056 122.4C226.543 123.386 226.98 124.388 227.377 125.413C227.806 126.446 228.121 127.523 228.316 128.625C228.359 129.195 228.349 129.767 228.286 130.335C228.239 130.89 228.158 131.438 228.067 131.985C227.878 133.073 227.622 134.149 227.299 135.206C226.633 137.303 225.793 139.34 224.788 141.297C223.832 143.259 222.806 145.179 221.91 147.127C221.46 148.091 221.086 149.088 220.791 150.109C220.524 151.136 220.352 152.185 220.277 153.243C220.062 155.402 219.854 157.575 219.574 159.738C219.287 161.901 218.952 164.06 218.499 166.197C218.301 167.27 218.018 168.327 217.782 169.393C217.493 170.446 217.234 171.507 216.906 172.549C215.681 176.747 213.848 180.742 211.463 184.407L211.37 184.346Z" fill="#014140"/>
<path d="M203.282 161.973L199.623 160.023L200.273 159.122L203.282 161.973Z" fill="#014140"/>
<path d="M183.697 142.018C184.382 140.914 185.127 139.851 185.894 138.8C186.66 137.739 187.495 136.731 188.396 135.782C188.858 135.282 189.379 134.839 189.947 134.463C190.102 134.381 190.297 134.273 190.426 134.218C190.564 134.16 190.699 134.095 190.831 134.023C191.097 133.885 191.351 133.723 191.589 133.541C192.558 132.713 193.477 131.83 194.344 130.896C195.258 129.973 196.18 129.053 197.135 128.17C198.082 127.278 199.087 126.44 200.017 125.578C200.96 124.727 201.826 123.795 202.605 122.792C202.984 122.296 203.312 121.763 203.583 121.201C203.859 120.673 203.985 120.08 203.947 119.486L203.942 119.452L203.943 119.438L203.943 119.433L203.947 119.482C203.927 119.329 203.874 119.183 203.791 119.053C203.755 118.997 203.71 118.948 203.657 118.908C203.643 118.897 203.628 118.889 203.612 118.883C203.591 118.878 203.57 118.877 203.549 118.881C203.212 118.972 202.894 119.123 202.611 119.328C201.98 119.748 201.372 120.203 200.79 120.69L199.034 122.167C198.887 122.291 198.74 122.415 198.584 122.536C198.497 122.617 198.396 122.68 198.285 122.72C198.174 122.761 198.056 122.78 197.937 122.774C197.813 122.752 197.697 122.699 197.599 122.619C197.501 122.54 197.425 122.437 197.378 122.32C197.295 122.123 197.248 121.913 197.238 121.699C197.23 120.906 197.374 120.118 197.663 119.379C197.916 118.646 198.218 117.929 198.564 117.235C199.258 115.851 200.057 114.536 200.836 113.219C201.638 111.944 202.358 110.619 202.994 109.252C203.127 108.952 203.211 108.632 203.242 108.304C203.257 108.223 203.241 108.139 203.196 108.069C203.158 108.039 203.112 108.02 203.064 108.016C202.782 108.059 202.512 108.163 202.273 108.321C201.967 108.506 201.673 108.713 201.396 108.94C200.245 109.906 199.167 110.956 198.171 112.08C197.152 113.2 196.164 114.365 195.206 115.532L195.008 115.773L194.688 115.749C192.587 115.666 190.512 116.238 188.75 117.385C186.921 118.55 185.251 119.948 183.783 121.545C182.298 123.17 180.917 124.887 179.648 126.686C178.935 127.586 178.032 128.318 177.003 128.829C176.003 129.342 174.927 129.693 173.816 129.868L173.797 129.758C175.931 129.275 177.828 128.062 179.161 126.328C180.332 124.428 181.649 122.622 183.101 120.928C184.571 119.202 186.272 117.687 188.157 116.426C190.111 115.102 192.444 114.451 194.802 114.57L194.284 114.788C195.263 113.584 196.283 112.437 197.346 111.313C198.403 110.167 199.543 109.099 200.757 108.121C201.077 107.87 201.415 107.642 201.768 107.439C202.174 107.179 202.645 107.037 203.127 107.028C203.294 107.041 203.456 107.089 203.602 107.169C203.749 107.249 203.877 107.36 203.978 107.493C204.149 107.744 204.226 108.048 204.192 108.35C204.145 108.785 204.025 109.209 203.837 109.604C203.146 110.998 202.347 112.335 201.448 113.604C200.6 114.879 199.747 116.145 199.012 117.469C198.642 118.127 198.321 118.812 198.051 119.517C197.769 120.202 197.62 120.934 197.611 121.674C197.618 122.018 197.75 122.399 197.982 122.422C198.205 122.462 198.529 122.127 198.818 121.908L200.562 120.415C201.153 119.925 201.736 119.424 202.378 118.978C202.709 118.724 203.085 118.534 203.485 118.417C203.558 118.403 203.633 118.403 203.707 118.416C203.784 118.431 203.857 118.461 203.923 118.504C204.028 118.572 204.121 118.658 204.196 118.759C204.332 118.945 204.426 119.158 204.47 119.384L204.474 119.401L204.474 119.433L204.475 119.438L204.47 119.391C204.565 120.092 204.461 120.806 204.17 121.452C203.913 122.073 203.592 122.666 203.212 123.22C202.464 124.311 201.611 125.326 200.665 126.25C199.728 127.184 198.75 128.016 197.813 128.901C196.868 129.778 195.923 130.654 195 131.557C194.085 132.503 193.114 133.393 192.094 134.225C191.814 134.431 191.515 134.611 191.202 134.762C191.046 134.838 190.885 134.905 190.722 134.964C190.549 135.028 190.463 135.084 190.327 135.142C189.8 135.459 189.311 135.836 188.871 136.266C187.053 138.093 185.355 140.035 183.788 142.081L183.697 142.018Z" fill="#014140"/>
<path d="M192.212 117.829L194.343 114.779L195.149 115.544L192.212 117.829Z" fill="#014140"/>
<path d="M202.215 119.35C202.762 117.75 203.383 116.186 204 114.619L204.955 112.284L205.946 109.966C206.608 108.422 207.304 106.893 207.994 105.361C208.71 103.843 209.4 102.311 210.138 100.803L210.48 100.105L211.189 100.391C213.586 101.355 215.969 102.355 218.338 103.391C219.517 103.922 220.704 104.433 221.874 104.988C223.049 105.528 224.216 106.09 225.379 106.661L225.618 106.778L225.519 106.982C225.142 107.763 224.753 108.54 224.353 109.313C224.575 108.471 224.81 107.635 225.055 106.803L225.195 107.124C223.958 106.739 222.724 106.346 221.499 105.929C220.268 105.529 219.055 105.084 217.833 104.659C215.4 103.785 212.982 102.873 210.578 101.925L211.629 101.513C210.923 103.037 210.168 104.537 209.439 106.05C208.684 107.55 207.935 109.054 207.153 110.541L205.976 112.771L204.765 114.984C203.937 116.449 203.113 117.917 202.215 119.35Z" fill="#014140"/>
<path d="M200.072 126.041L199.819 126.536L206.048 129.712L206.301 129.217L200.072 126.041Z" fill="#014140"/>
<path d="M221.687 108.486L213.479 126.284C212.639 125.643 212.05 124.726 211.818 123.695C211.551 121.694 211.818 117.56 209.684 117.027C207.55 116.493 207.817 125.029 207.817 125.029C207.562 125.434 207.334 125.855 207.133 126.29L202.393 123.695C204.044 121.622 204.355 120.233 204.21 119.438V119.433L204.244 119.349L211.818 104.224L221.687 108.486Z" fill="#C9F001"/>
<path d="M192.188 184.459C189.084 183.655 186.111 182.409 183.362 180.757C180.603 179.129 177.969 177.299 175.48 175.283C172.975 173.287 170.587 171.149 168.329 168.879C167.761 168.312 167.203 167.739 166.651 167.149C166.095 166.538 165.585 165.952 165.06 165.343L163.507 163.516C162.991 162.885 162.494 162.314 161.982 161.561L162.577 161.904C161.173 161.783 159.799 161.431 158.51 160.861C157.24 160.315 156.051 159.597 154.977 158.728C152.852 156.991 151.149 154.793 149.998 152.302L149.574 151.378L149.364 150.917C149.304 150.76 149.254 150.598 149.199 150.439L148.556 148.524C148.355 147.884 148.242 147.221 148.081 146.571C147.913 145.925 147.784 145.268 147.695 144.606C147.532 143.281 147.292 141.971 147.245 140.632C147.177 139.298 147.202 137.961 147.32 136.631C147.551 133.972 148.181 131.362 149.19 128.891C149.691 127.655 150.307 126.469 151.03 125.349C151.767 124.227 152.657 123.212 153.674 122.335C154.728 121.479 155.952 120.857 157.265 120.509L158.262 120.305C158.598 120.268 158.938 120.263 159.275 120.242L159.783 120.219L160.287 120.263L161.296 120.354C163.925 120.886 166.432 121.907 168.685 123.364L168.177 123.963C166.046 121.946 163.556 120.349 160.836 119.252C158.131 118.124 155.266 117.431 152.345 117.197C149.423 117 146.487 117.169 143.606 117.699C142.095 117.979 140.563 118.14 139.027 118.179C138.225 118.194 137.423 118.13 136.634 117.988C135.749 117.841 134.919 117.464 134.225 116.896L133.208 116.01L134.487 115.522L134.489 115.521L136.028 114.933L135.554 116.545C134.725 119.445 134.114 122.403 133.725 125.393C133.606 126.141 133.523 126.894 133.442 127.647C133.364 128.401 133.262 129.152 133.203 129.907L133.048 132.175L132.974 133.308L132.949 134.445C132.749 140.508 133.206 146.576 134.312 152.541C134.615 154.026 134.843 155.531 135.278 156.986L135.862 159.187C136.06 159.919 136.231 160.661 136.5 161.371L137.974 165.684C138.545 167.089 139.148 168.484 139.734 169.887C140.326 171.291 140.989 172.664 141.719 174.001C142.427 175.355 143.159 176.695 143.904 178.028C144.655 179.357 145.43 180.674 146.276 181.94C146.699 182.573 147.141 183.193 147.619 183.782C147.854 184.077 148.108 184.356 148.38 184.618C148.634 184.886 148.943 185.095 149.286 185.231L149.246 185.393C148.864 185.273 148.515 185.069 148.221 184.797C147.924 184.546 147.644 184.275 147.383 183.987C146.865 183.414 146.376 182.815 145.92 182.192C144.999 180.956 144.151 179.671 143.327 178.373C142.501 177.075 141.722 175.75 140.959 174.417C140.17 173.093 139.448 171.731 138.796 170.334C138.148 168.935 137.482 167.54 136.847 166.13L135.234 161.786C134.944 161.068 134.753 160.318 134.533 159.578L133.887 157.35C133.411 155.876 133.142 154.351 132.798 152.842C131.526 146.777 130.978 140.582 131.166 134.388L131.194 133.227L131.271 132.068L131.433 129.751C131.495 128.98 131.6 128.212 131.681 127.442C131.762 126.672 131.853 125.903 131.987 125.14C132.428 122.057 133.1 119.012 133.999 116.031L135.064 117.055L135.062 117.056L135.324 115.681C135.797 116.058 136.359 116.31 136.955 116.411C137.636 116.54 138.328 116.603 139.022 116.599C140.474 116.578 141.923 116.444 143.355 116.196C146.367 115.693 149.431 115.582 152.472 115.865C155.518 116.168 158.491 116.979 161.27 118.263C164.067 119.506 166.608 121.259 168.765 123.432L171.11 125.873L168.257 124.03C166.132 122.545 163.733 121.497 161.2 120.946L160.245 120.851L159.768 120.802L159.29 120.82C158.972 120.837 158.652 120.837 158.335 120.868L157.398 121.05C156.159 121.365 155 121.939 153.998 122.734C152.061 124.466 150.587 126.654 149.711 129.101C148.77 131.526 148.227 134.088 148.103 136.687C148.036 137.981 148.06 139.278 148.173 140.569C148.265 141.86 148.551 143.135 148.752 144.414C148.86 145.052 149.007 145.683 149.193 146.302C149.371 146.922 149.501 147.558 149.716 148.164L150.394 149.966C150.451 150.116 150.503 150.268 150.565 150.415L150.781 150.843L151.211 151.698C152.333 153.967 153.932 155.968 155.898 157.563C156.872 158.347 157.95 158.992 159.101 159.482C160.218 159.988 161.409 160.312 162.629 160.441L163.019 160.477L163.223 160.785C163.6 161.352 164.133 161.997 164.619 162.598L166.139 164.42L167.674 166.217C168.196 166.799 168.737 167.376 169.284 167.943C170.377 169.081 171.5 170.191 172.653 171.273C173.226 171.817 173.797 172.362 174.389 172.886C174.973 173.418 175.561 173.946 176.167 174.453C178.559 176.517 181.089 178.416 183.739 180.137C186.372 181.896 189.228 183.296 192.232 184.298L192.188 184.459Z" fill="#014140"/>
<path d="M218.735 162.412C220.198 161.625 221.683 160.893 223.18 160.189C223.925 159.828 224.681 159.496 225.432 159.149C226.181 158.8 226.943 158.48 227.698 158.144L228.03 157.996L228.348 158.222C229.141 158.79 229.901 159.404 230.623 160.059C231.361 160.684 232.032 161.375 232.714 162.056C234.028 163.461 235.234 164.962 236.324 166.547C238.481 169.72 240.509 172.938 242.343 176.291C242.847 177.106 243.252 177.971 243.68 178.828L244.327 180.113L244.648 180.758L244.926 181.421C245.288 182.309 245.655 183.198 246 184.096C246.358 184.99 246.58 185.928 246.872 186.844C247.431 188.687 247.888 190.56 248.24 192.453C248.614 194.343 248.727 196.274 248.937 198.185L249.016 198.903L248.293 199.073C247.068 199.362 245.833 199.61 244.604 199.879L240.902 200.632C239.666 200.873 238.427 201.104 237.186 201.325C235.94 201.529 234.7 201.755 233.448 201.931L233.408 201.769C234.599 201.344 235.803 200.97 237.001 200.574C238.204 200.193 239.408 199.824 240.616 199.467L244.245 198.418C245.46 198.088 246.669 197.735 247.888 197.424L247.244 198.313L246.876 195.53C246.796 194.599 246.668 193.672 246.493 192.754C246.145 190.919 245.892 189.058 245.361 187.26L245.011 185.9C244.891 185.447 244.795 184.987 244.633 184.547C244.336 183.659 244.06 182.762 243.779 181.864L243.575 181.188L243.326 180.529L242.823 179.21C242.484 178.33 242.156 177.443 241.733 176.599C240.181 173.147 238.087 169.965 235.531 167.173C234.279 165.765 232.96 164.43 231.654 163.092C230.977 162.448 230.327 161.774 229.641 161.144C228.97 160.501 228.243 159.893 227.556 159.322L228.206 159.401C227.43 159.684 226.661 159.984 225.879 160.254C225.098 160.526 224.324 160.813 223.537 161.072C221.972 161.607 220.396 162.113 218.797 162.566L218.735 162.412Z" fill="#014140"/>
<path d="M133.961 119.433C126.14 120.178 118.335 121.058 110.547 122.071C106.656 122.582 102.773 123.149 98.9099 123.812C95.0514 124.485 91.2005 125.236 87.4483 126.253C85.5947 126.717 83.7997 127.39 82.0978 128.259C81.7206 128.465 81.3725 128.721 81.0626 129.019C80.9448 129.141 80.8447 129.278 80.765 129.428C80.7452 129.494 80.7264 129.54 80.7098 129.612L80.6948 129.868C80.7504 130.809 80.8703 131.745 81.0535 132.67C81.7642 136.494 82.7041 140.314 83.6405 144.12C85.5506 151.731 87.4896 159.343 89.515 166.933L95.5242 189.724L98.5794 201.108L101.726 212.467C102.787 216.25 103.826 220.039 104.916 223.813L108.194 235.135C110.367 242.687 112.645 250.208 114.894 257.736L114.45 257.41L141.252 256.684L168.057 256.058L194.862 255.475L208.265 255.221L221.669 255.01L221.17 255.183L239.449 241.479C245.551 236.922 251.633 232.34 257.758 227.814L257.544 228.18C257.953 225.211 258.2 222.189 258.312 219.179C258.437 216.169 258.349 213.153 258.049 210.156C257.898 208.662 257.643 207.18 257.285 205.722C256.942 204.268 256.398 202.868 255.668 201.564C254.962 200.252 253.85 199.204 252.499 198.576C251.099 198.032 249.563 197.945 248.111 198.33L248.071 198.168C249.561 197.676 251.176 197.723 252.634 198.302C254.092 198.881 255.3 199.954 256.046 201.333C256.84 202.655 257.446 204.082 257.845 205.571C258.256 207.047 258.562 208.549 258.762 210.068C259.142 213.097 259.299 216.15 259.232 219.202C259.181 222.253 258.999 225.286 258.644 228.332L258.618 228.551L258.429 228.698C252.418 233.375 246.364 237.994 240.329 242.64L222.2 256.542L221.982 256.709L221.701 256.715L208.298 257.005L194.895 257.25L168.087 257.669L141.278 258.042L114.467 258.317L114.116 258.32L114.023 257.99L107.632 235.296L104.423 223.954L101.168 212.625L94.6256 189.974C92.4479 182.422 90.2767 174.868 88.1802 167.292L85.1229 155.902C84.1167 152.102 83.1288 148.295 82.2199 144.467C81.3097 140.637 80.3988 136.814 79.7037 132.906C79.5123 131.901 79.3932 130.884 79.3474 129.863C79.353 129.709 79.3693 129.543 79.3849 129.384C79.4221 129.207 79.476 129.034 79.5459 128.867C79.6907 128.58 79.8796 128.316 80.1059 128.087C80.504 127.702 80.9525 127.373 81.4392 127.11C83.2434 126.198 85.1468 125.497 87.1116 125.02C90.9417 124.048 94.8213 123.283 98.7336 122.727C102.628 122.136 106.533 121.642 110.442 121.204C114.35 120.757 118.267 120.404 122.185 120.081C126.103 119.76 130.023 119.473 133.95 119.267L133.961 119.433Z" fill="#014140"/>
<path d="M221.686 255.863C221.686 255.863 220.886 204.65 218.768 196.648C216.651 188.646 154.724 196.186 136.065 193.848C130.208 193.114 125.868 189.608 122.918 186.112C120.344 183.019 118.4 179.453 117.196 175.614C108.214 147.635 104.347 136.087 100.856 131.432C97.2555 126.631 80.0513 129.465 80.0513 129.465C78.851 135.833 114.46 257.863 114.46 257.863L221.686 255.863Z" fill="#005655"/>
<path d="M99.6535 126.206C102.085 126.205 104.485 126.755 106.673 127.816C108.861 128.877 110.78 130.42 112.285 132.33C113.045 133.284 113.721 134.302 114.307 135.372C114.864 136.453 115.343 137.574 115.739 138.724C116.164 139.872 116.496 141.024 116.8 142.18C117.118 143.334 117.394 144.496 117.677 145.655C118.801 150.293 119.813 154.939 121.053 159.512C122.213 164.083 123.785 168.54 125.75 172.827C126.742 174.938 127.98 176.923 129.44 178.741C130.879 180.552 132.71 182.013 134.796 183.014C135.051 183.146 135.317 183.257 135.59 183.346L136.401 183.643C136.966 183.767 137.506 183.952 138.094 184.03C139.264 184.193 140.422 184.421 141.604 184.532C142.785 184.646 143.966 184.764 145.15 184.857L148.709 185.066C153.461 185.271 158.222 185.319 162.981 185.262C167.741 185.25 172.499 185.058 177.256 184.894C182.013 184.713 186.767 184.454 191.521 184.238L198.651 183.866L202.214 183.669C203.378 183.619 204.569 183.484 205.767 183.415C210.556 183.057 215.362 183.006 220.156 183.262C222.621 183.362 225.061 183.789 227.413 184.532C228.05 184.753 228.656 185.057 229.213 185.437C229.895 185.877 230.396 186.548 230.625 187.327C230.884 188.633 231.023 189.767 231.162 190.977C232.172 200.497 232.709 209.996 233.202 219.525L233.28 221.316C233.293 221.611 233.303 221.917 233.305 222.229L233.308 222.457C233.316 222.489 233.308 222.524 233.317 222.554C233.327 222.615 233.351 222.673 233.388 222.724C233.534 222.865 233.709 222.972 233.902 223.037C234.094 223.103 234.299 223.124 234.501 223.101C235.041 223.083 235.575 222.989 236.089 222.822C237.18 222.456 238.225 221.965 239.203 221.359C240.208 220.753 241.177 220.088 242.106 219.37C245.818 216.411 249.272 213.141 252.431 209.597L252.557 209.706C251.054 211.556 249.484 213.353 247.847 215.095C246.213 216.848 244.47 218.497 242.629 220.032C241.699 220.803 240.726 221.521 239.713 222.181C238.687 222.865 237.585 223.428 236.43 223.858C235.816 224.08 235.174 224.213 234.524 224.253C234.163 224.271 233.801 224.23 233.454 224.132C233.042 224.019 232.676 223.779 232.411 223.444C232.267 223.257 232.166 223.04 232.114 222.81C232.091 222.696 232.076 222.58 232.071 222.464L232.06 222.246L232.015 221.375L231.901 219.599C231.57 214.856 231.194 210.113 230.772 205.37C230.344 200.634 229.964 195.885 229.397 191.186C229.332 190.596 229.242 190.019 229.17 189.434C229.135 189.14 229.089 188.856 229.04 188.574L228.969 188.15L228.934 187.937L228.916 187.831L228.899 187.771C228.773 187.401 228.519 187.089 228.184 186.889C227.754 186.6 227.289 186.368 226.799 186.2C224.6 185.521 222.326 185.116 220.028 184.995C215.312 184.688 210.581 184.683 205.864 184.98C204.684 185.034 203.505 185.154 202.29 185.193L198.717 185.335L191.572 185.56C186.809 185.703 182.043 185.76 177.278 185.807C167.748 185.883 158.218 185.91 148.687 185.606L145.112 185.46L141.537 185.214C140.344 185.143 139.155 184.952 137.961 184.826C137.365 184.768 136.762 184.59 136.162 184.476L135.284 184.19C134.989 184.104 134.7 183.995 134.422 183.863C132.161 182.873 130.154 181.381 128.555 179.501C126.964 177.657 125.604 175.624 124.509 173.448C122.406 169.115 120.77 164.571 119.627 159.893C118.402 155.264 117.438 150.589 116.419 145.947L115.623 142.478C115.358 141.321 115.066 140.174 114.696 139.075C114.352 137.962 113.929 136.876 113.429 135.824C112.903 134.788 112.29 133.799 111.596 132.867C110.2 130.994 108.424 129.439 106.383 128.304C106.132 128.153 105.871 128.02 105.601 127.906L104.802 127.538C104.249 127.347 103.707 127.11 103.135 126.97C102.006 126.627 100.838 126.427 99.6598 126.372L99.6535 126.206Z" fill="#014140"/>
<path d="M233.522 222.454L232.689 242.259L231.855 222.454H233.522Z" fill="#014140"/>
<path d="M223.634 255.862H219.744V292.672H223.634V255.862Z" fill="#014140"/>
<path d="M259.798 221.822H255.908V258.631H259.798V221.822Z" fill="#014140"/>
<path d="M118.119 255.862H114.229V292.672H118.119V255.862Z" fill="#014140"/>
<path d="M289.407 235.813L291.301 246.794L292.908 265.281C292.908 265.281 282.471 267.228 278.467 266.43C278.467 266.43 269.566 252.247 261.962 238.504C256.901 229.339 253.115 219.525 250.71 209.335L248.095 198.247C247.826 194.637 247.223 191.059 246.296 187.559C248.101 185.911 249.831 184.199 251.537 182.464C253.249 180.734 254.914 178.958 256.585 177.193C257.318 176.401 258.045 175.604 258.778 174.806C262.102 174.149 265.535 174.294 268.792 175.229C270.538 175.747 272.171 176.588 273.606 177.709C275.022 178.838 276.211 180.225 277.112 181.795C277.961 183.41 278.658 185.1 279.194 186.844C279.78 188.591 280.284 190.367 280.759 192.161C281.697 195.738 282.512 199.356 283.269 202.985C284.852 210.226 286.165 217.537 287.484 224.843C288.153 228.495 288.786 232.154 289.407 235.813Z" fill="#014140"/>
<path d="M302.955 256.481L291.3 246.795C290.924 243.095 290.438 239.413 289.974 235.725C289.464 232.043 288.931 228.365 288.374 224.691C287.828 221.015 287.172 217.356 286.527 213.697C285.864 210.039 285.173 206.38 284.41 202.739C283.619 199.104 282.769 195.481 281.784 191.881C281.291 190.081 280.763 188.292 280.154 186.522C279.582 184.717 278.822 182.978 277.885 181.333C276.882 179.703 275.583 178.275 274.056 177.123C272.525 175.99 270.792 175.16 268.949 174.678C267.124 174.216 265.242 174.022 263.362 174.103C261.845 174.152 260.338 174.358 258.865 174.719C259.75 173.758 260.641 172.802 261.515 171.834C263.168 170.052 264.745 168.205 266.498 166.511L265.73 167.009C265.472 167.185 265.238 167.378 264.991 167.566C264.505 167.935 264.042 168.334 263.573 168.727C262.646 169.524 261.743 170.347 260.864 171.195C259.087 172.866 257.399 174.625 255.728 176.396C254.068 178.178 252.439 179.99 250.861 181.849C249.284 183.701 247.742 185.589 246.294 187.559C241.193 168.311 227.954 158.771 227.954 158.771C227.954 158.771 257.428 142.237 266.762 149.707C276.096 157.171 280.365 160.642 292.9 196.383C305.441 232.125 312.301 246.156 312.301 246.156L302.955 256.481Z" fill="#014140"/>
<path d="M278.549 262.317C278.662 264.867 278.47 267.421 277.976 269.925C277.824 270.557 277.614 271.172 277.349 271.765C277.122 272.336 276.929 272.919 276.769 273.512C276.439 274.667 276.381 275.884 276.601 277.065C276.859 278.211 277.473 279.245 278.355 280.021C278.576 280.219 278.807 280.404 279.048 280.577L279.421 280.826C279.562 280.918 279.705 281.011 279.836 281.11C280.298 281.498 280.8 281.835 281.334 282.117C282.464 282.565 283.663 282.815 284.878 282.855C286.123 282.943 287.383 282.96 288.643 282.946C293.694 282.787 298.731 282.323 303.726 281.559L318.735 279.388L318.276 279.852C318.262 279.756 318.241 279.661 318.213 279.568C318.168 279.438 318.111 279.312 318.042 279.192C317.894 278.93 317.714 278.688 317.505 278.471C317.059 278.008 316.557 277.601 316.012 277.259C314.874 276.551 313.669 275.958 312.414 275.489C311.14 275.005 309.859 274.602 308.521 274.209C307.192 273.806 305.875 273.36 304.569 272.882C301.929 271.97 299.397 270.771 297.018 269.307C295.818 268.568 294.735 267.655 293.802 266.599C292.837 265.547 292.295 264.175 292.28 262.748C292.281 262.735 292.287 262.721 292.297 262.712C292.307 262.702 292.32 262.697 292.334 262.697C292.347 262.697 292.361 262.702 292.371 262.711C292.381 262.721 292.387 262.734 292.388 262.747C292.513 264.108 293.124 265.377 294.11 266.323C295.074 267.28 296.165 268.1 297.351 268.761C299.755 270.07 302.277 271.147 304.885 271.978C307.478 272.872 310.159 273.454 312.821 274.422C314.156 274.916 315.436 275.548 316.64 276.308C317.264 276.704 317.832 277.182 318.33 277.728C318.594 278.015 318.82 278.335 319.004 278.679C319.236 279.075 319.352 279.528 319.338 279.986C319.335 280.099 319.291 280.207 319.215 280.291C319.139 280.375 319.036 280.429 318.923 280.444L318.88 280.449C313.862 281.092 308.835 281.685 303.793 282.131C298.749 282.561 293.723 283.109 288.662 283.438C287.396 283.52 286.125 283.573 284.845 283.55C283.526 283.575 282.213 283.363 280.969 282.926C280.373 282.638 279.81 282.286 279.29 281.878L278.501 281.357C278.226 281.164 277.963 280.955 277.712 280.733C276.68 279.822 275.979 278.597 275.715 277.247C275.494 275.928 275.582 274.575 275.974 273.296C276.15 272.669 276.376 272.058 276.65 271.467C276.932 270.919 277.162 270.347 277.336 269.756C277.924 267.313 278.295 264.824 278.442 262.316C278.443 262.309 278.444 262.302 278.447 262.296C278.45 262.289 278.454 262.283 278.46 262.279C278.465 262.274 278.471 262.27 278.478 262.268C278.484 262.266 278.491 262.264 278.498 262.265C278.512 262.266 278.524 262.272 278.534 262.282C278.543 262.291 278.549 262.304 278.549 262.317Z" fill="#014140"/>
<path d="M282.426 269.156C282.418 270.001 282.606 270.836 282.975 271.596C283.162 271.956 283.414 272.278 283.717 272.548C284.04 272.835 284.386 273.095 284.751 273.325C284.293 273.28 283.851 273.128 283.462 272.88C283.056 272.627 282.725 272.271 282.503 271.848C282.285 271.435 282.165 270.977 282.152 270.511C282.139 270.044 282.233 269.581 282.426 269.156Z" fill="white"/>
<path d="M285.873 273.754L284.713 273.6C284.21 273.551 283.727 273.383 283.303 273.109C282.86 272.833 282.498 272.444 282.256 271.981C282.019 271.529 281.889 271.029 281.874 270.519C281.86 270.009 281.962 269.502 282.173 269.038L282.659 268.003L282.702 269.145C282.689 269.947 282.865 270.741 283.217 271.462C283.389 271.794 283.62 272.092 283.899 272.34C284.173 272.588 284.468 272.811 284.779 273.009L285.873 273.754Z" fill="#014140"/>
<path d="M277.586 280.353C277.586 280.353 274.577 281.51 276.442 286.981C276.442 286.981 276.263 289.046 283.576 288.418L320.464 287.246C320.464 287.246 322.995 281.121 317.285 280.125L308.054 281.288C308.054 281.288 310.175 275.701 309.473 273.923C308.433 272.346 306.899 271.158 305.112 270.546C303.325 269.934 301.385 269.931 299.596 270.539C299.596 270.539 300.269 279.369 293.553 282.617C293.553 282.617 283.511 282.444 277.586 280.353Z" fill="#000D0D"/>
<path d="M301.622 254.971C303.391 256.811 304.933 258.856 306.215 261.063C306.518 261.637 306.767 262.238 306.959 262.859C307.166 263.436 307.406 264.002 307.677 264.553C308.192 265.639 308.952 266.59 309.897 267.333C310.847 268.022 311.991 268.394 313.166 268.395C313.462 268.397 313.759 268.384 314.054 268.354L314.498 268.294C314.665 268.271 314.834 268.246 314.997 268.234C315.6 268.22 316.2 268.142 316.787 268.001C317.931 267.592 318.997 266.988 319.936 266.216C320.929 265.459 321.887 264.64 322.824 263.798C326.512 260.342 329.989 256.669 333.236 252.796L343.073 241.256L343.035 241.907C342.961 241.844 342.883 241.787 342.8 241.736C342.68 241.667 342.554 241.61 342.424 241.566C342.14 241.467 341.844 241.404 341.544 241.379C340.903 241.326 340.257 241.351 339.622 241.455C338.3 241.675 337.004 242.025 335.751 242.501C334.475 242.978 333.247 243.522 331.983 244.11C330.719 244.685 329.435 245.22 328.139 245.724C325.553 246.782 322.86 247.553 320.107 248.025C318.718 248.262 317.301 248.292 315.903 248.114C314.484 247.961 313.172 247.289 312.219 246.227C312.21 246.217 312.206 246.203 312.207 246.189C312.208 246.176 312.214 246.163 312.224 246.153C312.235 246.144 312.248 246.139 312.262 246.14C312.276 246.14 312.289 246.146 312.298 246.156C313.291 247.095 314.588 247.644 315.953 247.704C317.309 247.786 318.669 247.682 319.997 247.394C322.666 246.791 325.272 245.934 327.779 244.836C330.317 243.795 332.714 242.462 335.353 241.432C336.681 240.92 338.06 240.55 339.466 240.326C340.196 240.211 340.938 240.195 341.673 240.276C342.061 240.318 342.442 240.408 342.807 240.545C343.242 240.689 343.628 240.953 343.921 241.306C343.993 241.393 344.032 241.503 344.03 241.617C344.029 241.73 343.987 241.839 343.912 241.924L343.883 241.957C340.538 245.753 337.155 249.517 333.663 253.182C330.159 256.836 326.747 260.565 323.163 264.154C322.266 265.052 321.347 265.931 320.37 266.759C319.396 267.648 318.271 268.357 317.048 268.85C316.41 269.027 315.755 269.134 315.094 269.171L314.158 269.301C313.824 269.337 313.489 269.355 313.153 269.354C311.777 269.351 310.441 268.894 309.352 268.054C308.314 267.209 307.488 266.135 306.937 264.916C306.656 264.329 306.421 263.72 306.237 263.096C306.088 262.498 305.882 261.916 305.622 261.358C304.452 259.135 303.086 257.021 301.541 255.04C301.532 255.029 301.528 255.015 301.529 255.001C301.531 254.987 301.538 254.974 301.549 254.965C301.56 254.957 301.573 254.953 301.587 254.954C301.6 254.955 301.613 254.961 301.622 254.971Z" fill="#014140"/>
<path d="M309.049 257.548C309.6 258.188 310.293 258.691 311.072 259.018C311.45 259.165 311.852 259.241 312.258 259.243C312.69 259.246 313.121 259.212 313.548 259.144C313.174 259.413 312.741 259.59 312.286 259.661C311.814 259.739 311.33 259.69 310.884 259.519C310.448 259.353 310.056 259.088 309.738 258.747C309.419 258.405 309.184 257.995 309.049 257.548Z" fill="white"/>
<path d="M311.862 259.978C311.496 259.974 311.133 259.907 310.79 259.779C310.313 259.597 309.885 259.308 309.537 258.934C309.189 258.561 308.931 258.113 308.783 257.624L308.465 256.528L309.251 257.356C309.771 257.967 310.428 258.446 311.168 258.756C311.516 258.891 311.886 258.962 312.26 258.964C312.629 258.97 312.997 258.943 313.362 258.886L314.675 258.723L313.704 259.374C313.294 259.668 312.819 259.861 312.32 259.936C312.169 259.964 312.016 259.978 311.862 259.978Z" fill="#014140"/>
<path d="M312.808 269.151C312.808 269.151 311.313 272.007 316.326 274.884C316.326 274.884 317.555 276.552 322.632 271.252L349.561 246.014C349.561 246.014 347.417 239.743 342.471 242.765L336.307 249.735C336.307 249.735 334.211 244.138 332.51 243.266C330.687 242.769 328.751 242.889 327.005 243.61C325.258 244.33 323.8 245.609 322.858 247.247C322.858 247.247 329.194 253.434 326.295 260.308C326.295 260.308 318.639 266.809 312.808 269.151Z" fill="#000D0D"/>
<path d="M290.737 72.0897V47.1184C290.735 46.2655 290.395 45.4482 289.792 44.845C289.189 44.2419 288.371 43.902 287.518 43.8995H243.04C242.188 43.9019 241.37 44.2419 240.767 44.845C240.164 45.4481 239.824 46.2655 239.822 47.1184V127.491C239.822 128.345 240.161 129.164 240.764 129.769C241.368 130.373 242.186 130.714 243.04 130.715H287.518C288.373 130.714 289.191 130.373 289.795 129.769C290.398 129.164 290.737 128.345 290.737 127.491V105.815H285.279V122.507C285.278 123.214 284.997 123.893 284.497 124.393C283.997 124.893 283.318 125.174 282.611 125.175H247.948C247.241 125.174 246.564 124.892 246.065 124.392C245.565 123.892 245.285 123.214 245.286 122.507V52.108C245.285 51.7579 245.353 51.4111 245.487 51.0874C245.62 50.7637 245.816 50.4696 246.063 50.2218C246.311 49.9739 246.604 49.7773 246.928 49.6432C247.251 49.5091 247.598 49.4402 247.948 49.4402H282.611C282.961 49.44 283.308 49.5089 283.632 49.6429C283.956 49.7769 284.25 49.9734 284.498 50.2211C284.746 50.4689 284.942 50.7631 285.076 51.0868C285.21 51.4106 285.279 51.7576 285.279 52.108V72.0897H290.737Z" fill="#014140"/>
<path d="M257.983 112.432H249.224C249.136 112.432 249.049 112.415 248.967 112.382C248.886 112.348 248.812 112.299 248.749 112.237C248.687 112.175 248.638 112.101 248.604 112.019C248.57 111.938 248.553 111.851 248.553 111.763C248.553 111.675 248.57 111.588 248.604 111.506C248.638 111.425 248.687 111.351 248.749 111.289C248.812 111.227 248.886 111.177 248.967 111.144C249.049 111.11 249.136 111.093 249.224 111.094H257.983C258.071 111.093 258.158 111.11 258.239 111.144C258.321 111.177 258.395 111.227 258.457 111.289C258.52 111.351 258.569 111.425 258.603 111.506C258.637 111.588 258.654 111.675 258.654 111.763C258.654 111.851 258.637 111.938 258.603 112.019C258.569 112.101 258.52 112.175 258.457 112.237C258.395 112.299 258.321 112.348 258.239 112.382C258.158 112.415 258.071 112.432 257.983 112.432Z" fill="#014140"/>
<path d="M257.983 118.379H249.224C249.136 118.38 249.049 118.363 248.967 118.329C248.886 118.296 248.812 118.246 248.749 118.184C248.687 118.122 248.638 118.048 248.604 117.967C248.57 117.885 248.553 117.798 248.553 117.71C248.553 117.622 248.57 117.535 248.604 117.454C248.638 117.372 248.687 117.298 248.749 117.236C248.812 117.174 248.886 117.125 248.967 117.091C249.049 117.058 249.136 117.041 249.224 117.041H257.983C258.071 117.041 258.158 117.058 258.239 117.091C258.321 117.125 258.395 117.174 258.457 117.236C258.52 117.298 258.569 117.372 258.603 117.454C258.637 117.535 258.654 117.622 258.654 117.71C258.654 117.798 258.637 117.885 258.603 117.967C258.569 118.048 258.52 118.122 258.457 118.184C258.395 118.246 258.321 118.296 258.239 118.329C258.158 118.363 258.071 118.38 257.983 118.379Z" fill="#014140"/>
<path d="M269.793 112.432H261.033C260.945 112.432 260.858 112.415 260.777 112.382C260.695 112.348 260.621 112.299 260.559 112.237C260.497 112.175 260.447 112.101 260.413 112.019C260.38 111.938 260.362 111.851 260.362 111.763C260.362 111.675 260.38 111.588 260.413 111.506C260.447 111.425 260.497 111.351 260.559 111.289C260.621 111.227 260.695 111.177 260.777 111.144C260.858 111.11 260.945 111.093 261.033 111.094H269.793C269.881 111.093 269.968 111.11 270.05 111.144C270.131 111.177 270.205 111.227 270.267 111.289C270.33 111.351 270.379 111.425 270.413 111.506C270.447 111.588 270.464 111.675 270.464 111.763C270.464 111.851 270.447 111.938 270.413 112.019C270.379 112.101 270.33 112.175 270.267 112.237C270.205 112.299 270.131 112.348 270.05 112.382C269.968 112.415 269.881 112.432 269.793 112.432Z" fill="#014140"/>
<path d="M281.431 98.3387H272.671C272.583 98.3389 272.496 98.3218 272.415 98.2883C272.333 98.2548 272.259 98.2055 272.197 98.1434C272.134 98.0812 272.085 98.0073 272.051 97.926C272.017 97.8446 272 97.7574 272 97.6693C272 97.5813 272.017 97.4941 272.051 97.4127C272.085 97.3314 272.134 97.2575 272.197 97.1953C272.259 97.1331 272.333 97.0839 272.415 97.0504C272.496 97.0169 272.583 96.9997 272.671 97H281.431C281.519 96.9997 281.606 97.0169 281.687 97.0504C281.769 97.0839 281.843 97.1331 281.905 97.1953C281.968 97.2575 282.017 97.3314 282.051 97.4127C282.085 97.4941 282.102 97.5813 282.102 97.6693C282.102 97.7574 282.085 97.8446 282.051 97.926C282.017 98.0073 281.968 98.0812 281.905 98.1434C281.843 98.2055 281.769 98.2548 281.687 98.2883C281.606 98.3218 281.519 98.3389 281.431 98.3387Z" fill="#014140"/>
<path d="M281.431 102.339H272.671C272.583 102.339 272.496 102.322 272.415 102.288C272.333 102.255 272.259 102.206 272.197 102.143C272.134 102.081 272.085 102.007 272.051 101.926C272.017 101.845 272 101.757 272 101.669C272 101.581 272.017 101.494 272.051 101.413C272.085 101.331 272.134 101.258 272.197 101.195C272.259 101.133 272.333 101.084 272.415 101.05C272.496 101.017 272.583 101 272.671 101H281.431C281.519 101 281.606 101.017 281.687 101.05C281.769 101.084 281.843 101.133 281.905 101.195C281.968 101.258 282.017 101.331 282.051 101.413C282.085 101.494 282.102 101.581 282.102 101.669C282.102 101.757 282.085 101.845 282.051 101.926C282.017 102.007 281.968 102.081 281.905 102.143C281.843 102.206 281.769 102.255 281.687 102.288C281.606 102.322 281.519 102.339 281.431 102.339Z" fill="#014140"/>
<path d="M301.431 98.3387H292.671C292.583 98.3389 292.496 98.3218 292.415 98.2883C292.333 98.2548 292.259 98.2055 292.197 98.1434C292.134 98.0812 292.085 98.0073 292.051 97.926C292.017 97.8446 292 97.7574 292 97.6693C292 97.5813 292.017 97.4941 292.051 97.4127C292.085 97.3314 292.134 97.2575 292.197 97.1953C292.259 97.1331 292.333 97.0839 292.415 97.0504C292.496 97.0169 292.583 96.9997 292.671 97H301.431C301.519 96.9997 301.606 97.0169 301.687 97.0504C301.769 97.0839 301.843 97.1331 301.905 97.1953C301.968 97.2575 302.017 97.3314 302.051 97.4127C302.085 97.4941 302.102 97.5813 302.102 97.6693C302.102 97.7574 302.085 97.8446 302.051 97.926C302.017 98.0073 301.968 98.0812 301.905 98.1434C301.843 98.2055 301.769 98.2548 301.687 98.2883C301.606 98.3218 301.519 98.3389 301.431 98.3387Z" fill="#014140"/>
<path d="M301.431 102.339H292.671C292.583 102.339 292.496 102.322 292.415 102.288C292.333 102.255 292.259 102.206 292.197 102.143C292.134 102.081 292.085 102.007 292.051 101.926C292.017 101.845 292 101.757 292 101.669C292 101.581 292.017 101.494 292.051 101.413C292.085 101.331 292.134 101.258 292.197 101.195C292.259 101.133 292.333 101.084 292.415 101.05C292.496 101.017 292.583 101 292.671 101H301.431C301.519 101 301.606 101.017 301.687 101.05C301.769 101.084 301.843 101.133 301.905 101.195C301.968 101.258 302.017 101.331 302.051 101.413C302.085 101.494 302.102 101.581 302.102 101.669C302.102 101.757 302.085 101.845 302.051 101.926C302.017 102.007 301.968 102.081 301.905 102.143C301.843 102.206 301.769 102.255 301.687 102.288C301.606 102.322 301.519 102.339 301.431 102.339Z" fill="#014140"/>
<path d="M321.431 98.3387H312.671C312.583 98.3389 312.496 98.3218 312.415 98.2883C312.333 98.2548 312.259 98.2055 312.197 98.1434C312.134 98.0812 312.085 98.0073 312.051 97.926C312.017 97.8446 312 97.7574 312 97.6693C312 97.5813 312.017 97.4941 312.051 97.4127C312.085 97.3314 312.134 97.2575 312.197 97.1953C312.259 97.1331 312.333 97.0839 312.415 97.0504C312.496 97.0169 312.583 96.9997 312.671 97H321.431C321.519 96.9997 321.606 97.0169 321.687 97.0504C321.769 97.0839 321.843 97.1331 321.905 97.1953C321.968 97.2575 322.017 97.3314 322.051 97.4127C322.085 97.4941 322.102 97.5813 322.102 97.6693C322.102 97.7574 322.085 97.8446 322.051 97.926C322.017 98.0073 321.968 98.0812 321.905 98.1434C321.843 98.2055 321.769 98.2548 321.687 98.2883C321.606 98.3218 321.519 98.3389 321.431 98.3387Z" fill="#014140"/>
<path d="M321.431 102.339H312.671C312.583 102.339 312.496 102.322 312.415 102.288C312.333 102.255 312.259 102.206 312.197 102.143C312.134 102.081 312.085 102.007 312.051 101.926C312.017 101.845 312 101.757 312 101.669C312 101.581 312.017 101.494 312.051 101.413C312.085 101.331 312.134 101.258 312.197 101.195C312.259 101.133 312.333 101.084 312.415 101.05C312.496 101.017 312.583 101 312.671 101H321.431C321.519 101 321.606 101.017 321.687 101.05C321.769 101.084 321.843 101.133 321.905 101.195C321.968 101.258 322.017 101.331 322.051 101.413C322.085 101.494 322.102 101.581 322.102 101.669C322.102 101.757 322.085 101.845 322.051 101.926C322.017 102.007 321.968 102.081 321.905 102.143C321.843 102.206 321.769 102.255 321.687 102.288C321.606 102.322 321.519 102.339 321.431 102.339Z" fill="#014140"/>
<path d="M281.335 112.432H272.576C272.488 112.432 272.401 112.415 272.319 112.382C272.238 112.348 272.164 112.299 272.102 112.237C272.039 112.175 271.99 112.101 271.956 112.019C271.922 111.938 271.905 111.851 271.905 111.763C271.905 111.675 271.922 111.588 271.956 111.506C271.99 111.425 272.039 111.351 272.102 111.289C272.164 111.227 272.238 111.177 272.319 111.144C272.401 111.11 272.488 111.093 272.576 111.094H281.335C281.424 111.093 281.511 111.11 281.592 111.144C281.674 111.177 281.748 111.227 281.81 111.289C281.872 111.351 281.922 111.425 281.956 111.506C281.989 111.588 282.007 111.675 282.007 111.763C282.007 111.851 281.989 111.938 281.956 112.019C281.922 112.101 281.872 112.175 281.81 112.237C281.748 112.299 281.674 112.348 281.592 112.382C281.511 112.415 281.423 112.432 281.335 112.432Z" fill="#014140"/>
<path d="M281.335 118.379H272.576C272.488 118.38 272.401 118.363 272.319 118.329C272.238 118.296 272.164 118.246 272.102 118.184C272.039 118.122 271.99 118.048 271.956 117.967C271.922 117.885 271.905 117.798 271.905 117.71C271.905 117.622 271.922 117.535 271.956 117.454C271.99 117.372 272.039 117.298 272.102 117.236C272.164 117.174 272.238 117.125 272.319 117.091C272.401 117.058 272.488 117.041 272.576 117.041H281.335C281.424 117.041 281.511 117.058 281.592 117.091C281.674 117.125 281.748 117.174 281.81 117.236C281.872 117.298 281.922 117.372 281.956 117.454C281.989 117.535 282.007 117.622 282.007 117.71C282.007 117.798 281.989 117.885 281.956 117.967C281.922 118.048 281.872 118.122 281.81 118.184C281.748 118.246 281.674 118.296 281.592 118.329C281.511 118.363 281.423 118.38 281.335 118.379Z" fill="#014140"/>
<path d="M269.431 118.339H260.671C260.583 118.339 260.496 118.322 260.415 118.288C260.333 118.255 260.259 118.206 260.197 118.143C260.134 118.081 260.085 118.007 260.051 117.926C260.017 117.845 260 117.757 260 117.669C260 117.581 260.017 117.494 260.051 117.413C260.085 117.331 260.134 117.258 260.197 117.195C260.259 117.133 260.333 117.084 260.415 117.05C260.496 117.017 260.583 117 260.671 117H269.431C269.519 117 269.606 117.017 269.687 117.05C269.769 117.084 269.843 117.133 269.905 117.195C269.968 117.258 270.017 117.331 270.051 117.413C270.085 117.494 270.102 117.581 270.102 117.669C270.102 117.757 270.085 117.845 270.051 117.926C270.017 118.007 269.968 118.081 269.905 118.143C269.843 118.206 269.769 118.255 269.687 118.288C269.606 118.322 269.519 118.339 269.431 118.339Z" fill="#014140"/>
<path d="M324.546 72.0317C325.048 72.0327 325.534 72.2155 325.913 72.5464C326.291 72.8773 326.537 73.3339 326.606 73.832C326.647 74.8131 326.618 75.7678 326.637 76.737C326.661 78.6685 326.668 80.6001 326.71 82.5316L326.925 94.1208L327.022 99.9154L327.057 102.813L327.061 103.537C327.074 103.816 327.053 104.096 327 104.371C326.866 104.969 326.517 105.497 326.02 105.855C325.773 106.033 325.496 106.166 325.203 106.246C324.925 106.317 324.637 106.349 324.35 106.338L322.902 106.34L320.004 106.327L314.21 106.301L302.62 106.142L296.826 106.056L291.031 106.018C283.305 105.958 275.579 106.041 267.853 106.136C267.282 106.14 266.73 105.937 266.298 105.564C265.866 105.192 265.584 104.675 265.504 104.11C265.48 103.855 265.47 103.598 265.473 103.342L265.463 102.617L265.444 101.169L265.379 95.374L265.292 83.7848L265.262 77.9902L265.248 75.0929L265.244 74.3685C265.231 74.0822 265.252 73.7954 265.307 73.5141C265.411 73.0506 265.64 72.6243 265.969 72.2812C266.297 71.938 266.713 71.6909 267.172 71.5665C267.324 71.5246 267.48 71.4969 267.637 71.4839L267.867 71.4728L268.048 71.4718L269.497 71.4685L272.394 71.4742L278.189 71.4857C285.915 71.4841 293.641 71.541 301.367 71.7044C309.093 71.8569 316.82 72.0361 324.546 72.0317ZM324.546 72.149C316.82 72.1446 309.093 72.3238 301.367 72.4762C293.641 72.6397 285.915 72.6965 278.189 72.695L272.394 72.7064L269.497 72.7122L268.048 72.7088L267.867 72.7079L267.736 72.7132C267.652 72.7191 267.57 72.7329 267.489 72.7544C267.244 72.8182 267.021 72.9476 266.844 73.1287C266.667 73.3098 266.542 73.5358 266.484 73.7822C266.447 73.9754 266.434 74.1722 266.444 74.3685L266.44 75.0929L266.425 77.9902L266.395 83.7848L266.309 95.374L266.244 101.169L266.224 102.617L266.214 103.342C266.213 103.58 266.2 103.841 266.219 104.02C266.267 104.422 266.459 104.793 266.759 105.064C267.06 105.335 267.448 105.488 267.853 105.494C275.579 105.589 283.305 105.672 291.031 105.612L296.826 105.574L302.62 105.489L314.21 105.33L320.004 105.303L322.902 105.29L324.35 105.292C324.546 105.306 324.743 105.289 324.933 105.243C325.107 105.197 325.271 105.121 325.418 105.017C325.716 104.809 325.926 104.498 326.009 104.144C326.048 103.944 326.062 103.74 326.052 103.537L326.056 102.813L326.091 99.9155L326.189 94.1209L326.403 82.5317C326.446 80.6001 326.453 78.6686 326.477 76.737C326.48 75.7755 326.502 74.7961 326.472 73.8491C326.41 73.381 326.181 72.9511 325.827 72.6387C325.473 72.3262 325.018 72.1523 324.546 72.149Z" fill="#014140"/>
<path d="M283.43 76.2584C283.543 76.2589 283.653 76.3427 283.739 76.4946C283.825 76.6464 283.881 76.8559 283.896 77.0844C283.905 77.5346 283.899 77.9726 283.903 78.4173C283.909 79.3035 283.91 80.1898 283.92 81.076L283.968 86.3934L283.99 89.0521L283.998 90.3815L283.999 90.7138C284.002 90.842 283.997 90.9704 283.985 91.0963C283.955 91.3707 283.876 91.6129 283.763 91.7772C283.707 91.859 283.645 91.9198 283.578 91.9567C283.515 91.9895 283.45 92.0038 283.385 91.9991L283.057 92L282.401 91.994L281.089 91.982L278.465 91.9089L277.152 91.8697L275.84 91.8522C274.091 91.8247 272.341 91.8629 270.592 91.9064C270.462 91.9082 270.337 91.8149 270.24 91.644C270.142 91.4731 270.078 91.236 270.06 90.9769C270.054 90.8596 270.052 90.7419 270.053 90.6241L270.051 90.2918L270.046 89.6271L270.031 86.9684L270.012 81.651L270.005 78.9923L270.002 77.663L270.001 77.3306C269.998 77.1992 270.003 77.0676 270.015 76.9386C270.039 76.7259 270.091 76.5303 270.165 76.3729C270.239 76.2154 270.334 76.102 270.437 76.0449C270.472 76.0257 270.507 76.013 270.543 76.007L270.595 76.002L270.636 76.0015L270.964 76L271.62 76.0026L272.932 76.0079C274.682 76.0072 276.431 76.0332 278.181 76.1083C279.93 76.1782 281.68 76.2604 283.43 76.2584ZM283.43 76.3122C281.68 76.3102 279.93 76.3924 278.181 76.4624C276.431 76.5374 274.682 76.5634 272.932 76.5627L271.62 76.568L270.964 76.5706L270.636 76.5691L270.595 76.5687L270.565 76.5711C270.546 76.5738 270.527 76.5801 270.509 76.59C270.454 76.6193 270.403 76.6787 270.363 76.7618C270.323 76.8448 270.295 76.9485 270.282 77.0616C270.273 77.1502 270.27 77.2405 270.272 77.3306L270.272 77.663L270.268 78.9923L270.262 81.651L270.242 86.9684L270.227 89.6271L270.223 90.2918L270.221 90.6241C270.22 90.7337 270.217 90.8532 270.222 90.9352C270.233 91.1196 270.276 91.2898 270.344 91.4143C270.412 91.5387 270.5 91.6089 270.592 91.6118C272.341 91.6553 274.091 91.6935 275.84 91.6659L277.152 91.6485L278.465 91.6093L281.089 91.5362L282.401 91.5242L283.057 91.5182L283.385 91.5191C283.43 91.5252 283.474 91.5176 283.517 91.4964C283.557 91.4755 283.594 91.4405 283.627 91.393C283.694 91.2973 283.742 91.1547 283.761 90.9923C283.77 90.9006 283.773 90.8071 283.771 90.7138L283.772 90.3815L283.78 89.0521L283.802 86.3934L283.85 81.076C283.86 80.1898 283.861 79.3036 283.867 78.4173C283.868 77.9761 283.873 77.5268 283.866 77.0923C283.852 76.8775 283.8 76.6803 283.72 76.5369C283.64 76.3935 283.536 76.3137 283.43 76.3122Z" fill="#014140"/>
<path d="M303.43 76.2584C303.543 76.2589 303.653 76.3427 303.739 76.4946C303.825 76.6464 303.881 76.8559 303.896 77.0844C303.905 77.5346 303.899 77.9726 303.903 78.4173C303.909 79.3035 303.91 80.1898 303.92 81.076L303.968 86.3934L303.99 89.0521L303.998 90.3815L303.999 90.7138C304.002 90.842 303.997 90.9704 303.985 91.0963C303.955 91.3707 303.876 91.6129 303.763 91.7772C303.707 91.859 303.645 91.9198 303.578 91.9567C303.515 91.9895 303.45 92.0038 303.385 91.9991L303.057 92L302.401 91.994L301.089 91.982L298.465 91.9089L297.152 91.8697L295.84 91.8522C294.091 91.8247 292.341 91.8629 290.592 91.9064C290.462 91.9082 290.337 91.8149 290.24 91.644C290.142 91.4731 290.078 91.236 290.06 90.9769C290.054 90.8596 290.052 90.7419 290.053 90.6241L290.051 90.2918L290.046 89.6271L290.031 86.9684L290.012 81.651L290.005 78.9923L290.002 77.663L290.001 77.3306C289.998 77.1992 290.003 77.0676 290.015 76.9386C290.039 76.7259 290.091 76.5303 290.165 76.3729C290.239 76.2154 290.334 76.102 290.437 76.0449C290.472 76.0257 290.507 76.013 290.543 76.007L290.595 76.002L290.636 76.0015L290.964 76L291.62 76.0026L292.932 76.0079C294.682 76.0072 296.431 76.0332 298.181 76.1083C299.93 76.1782 301.68 76.2604 303.43 76.2584ZM303.43 76.3122C301.68 76.3102 299.93 76.3924 298.181 76.4624C296.431 76.5374 294.682 76.5634 292.932 76.5627L291.62 76.568L290.964 76.5706L290.636 76.5691L290.595 76.5687L290.565 76.5711C290.546 76.5738 290.527 76.5801 290.509 76.59C290.454 76.6193 290.403 76.6787 290.363 76.7618C290.323 76.8448 290.295 76.9485 290.282 77.0616C290.273 77.1502 290.27 77.2405 290.272 77.3306L290.272 77.663L290.268 78.9923L290.262 81.651L290.242 86.9684L290.227 89.6271L290.223 90.2918L290.221 90.6241C290.22 90.7337 290.217 90.8532 290.222 90.9352C290.233 91.1196 290.276 91.2898 290.344 91.4143C290.412 91.5387 290.5 91.6089 290.592 91.6118C292.341 91.6553 294.091 91.6935 295.84 91.6659L297.152 91.6485L298.465 91.6093L301.089 91.5362L302.401 91.5242L303.057 91.5182L303.385 91.5191C303.43 91.5252 303.474 91.5176 303.517 91.4964C303.557 91.4755 303.594 91.4405 303.627 91.393C303.694 91.2973 303.742 91.1547 303.761 90.9923C303.77 90.9006 303.773 90.8071 303.771 90.7138L303.772 90.3815L303.78 89.0521L303.802 86.3934L303.85 81.076C303.86 80.1898 303.861 79.3036 303.867 78.4173C303.868 77.9761 303.873 77.5268 303.866 77.0923C303.852 76.8775 303.8 76.6803 303.72 76.5369C303.64 76.3935 303.536 76.3137 303.43 76.3122Z" fill="#014140"/>
<path d="M323.43 76.2584C323.543 76.2589 323.653 76.3427 323.739 76.4946C323.825 76.6464 323.881 76.8559 323.896 77.0844C323.905 77.5346 323.899 77.9726 323.903 78.4173C323.909 79.3035 323.91 80.1898 323.92 81.076L323.968 86.3934L323.99 89.0521L323.998 90.3815L323.999 90.7138C324.002 90.842 323.997 90.9704 323.985 91.0963C323.955 91.3707 323.876 91.6129 323.763 91.7772C323.707 91.859 323.645 91.9198 323.578 91.9567C323.515 91.9895 323.45 92.0038 323.385 91.9991L323.057 92L322.401 91.994L321.089 91.982L318.465 91.9089L317.152 91.8697L315.84 91.8522C314.091 91.8247 312.341 91.8629 310.592 91.9064C310.462 91.9082 310.337 91.8149 310.24 91.644C310.142 91.4731 310.078 91.236 310.06 90.9769C310.054 90.8596 310.052 90.7419 310.053 90.6241L310.051 90.2918L310.046 89.6271L310.031 86.9684L310.012 81.651L310.005 78.9923L310.002 77.663L310.001 77.3306C309.998 77.1992 310.003 77.0676 310.015 76.9386C310.039 76.7259 310.091 76.5303 310.165 76.3729C310.239 76.2154 310.334 76.102 310.437 76.0449C310.472 76.0257 310.507 76.013 310.543 76.007L310.595 76.002L310.636 76.0015L310.964 76L311.62 76.0026L312.932 76.0079C314.682 76.0072 316.431 76.0332 318.181 76.1083C319.93 76.1782 321.68 76.2604 323.43 76.2584ZM323.43 76.3122C321.68 76.3102 319.93 76.3924 318.181 76.4624C316.431 76.5374 314.682 76.5634 312.932 76.5627L311.62 76.568L310.964 76.5706L310.636 76.5691L310.595 76.5687L310.565 76.5711C310.546 76.5738 310.527 76.5801 310.509 76.59C310.454 76.6193 310.403 76.6787 310.363 76.7618C310.323 76.8448 310.295 76.9485 310.282 77.0616C310.273 77.1502 310.27 77.2405 310.272 77.3306L310.272 77.663L310.268 78.9923L310.262 81.651L310.242 86.9684L310.227 89.6271L310.223 90.2918L310.221 90.6241C310.22 90.7337 310.217 90.8532 310.222 90.9352C310.233 91.1196 310.276 91.2898 310.344 91.4143C310.412 91.5387 310.5 91.6089 310.592 91.6118C312.341 91.6553 314.091 91.6935 315.84 91.6659L317.152 91.6485L318.465 91.6093L321.089 91.5362L322.401 91.5242L323.057 91.5182L323.385 91.5191C323.43 91.5252 323.474 91.5176 323.517 91.4964C323.557 91.4755 323.594 91.4405 323.627 91.393C323.694 91.2973 323.742 91.1547 323.761 90.9923C323.77 90.9006 323.773 90.8071 323.771 90.7138L323.772 90.3815L323.78 89.0521L323.802 86.3934L323.85 81.076C323.86 80.1898 323.861 79.3036 323.867 78.4173C323.868 77.9761 323.873 77.5268 323.866 77.0923C323.852 76.8775 323.8 76.6803 323.72 76.5369C323.64 76.3935 323.536 76.3137 323.43 76.3122Z" fill="#014140"/>
<path d="M277.252 85.5047C279.049 85.5047 280.505 84.0486 280.505 82.2523C280.505 80.4561 279.049 79 277.252 79C275.456 79 274 80.4561 274 82.2523C274 84.0486 275.456 85.5047 277.252 85.5047Z" fill="#C9F001"/>
<path d="M297.252 85.5047C299.049 85.5047 300.505 84.0486 300.505 82.2523C300.505 80.4561 299.049 79 297.252 79C295.456 79 294 80.4561 294 82.2523C294 84.0486 295.456 85.5047 297.252 85.5047Z" fill="#C9F001"/>
<path d="M317.252 85.5047C319.049 85.5047 320.505 84.0486 320.505 82.2523C320.505 80.4561 319.049 79 317.252 79C315.456 79 314 80.4561 314 82.2523C314 84.0486 315.456 85.5047 317.252 85.5047Z" fill="#C9F001"/>
<path d="M274.939 50.7806H255.618C255.442 50.7809 255.267 50.7466 255.104 50.6795C254.942 50.6124 254.794 50.5139 254.669 50.3896C254.545 50.2652 254.446 50.1176 254.378 49.955C254.311 49.7924 254.276 49.6182 254.276 49.4422C254.276 49.2662 254.311 49.0919 254.378 48.9293C254.446 48.7667 254.545 48.6191 254.669 48.4948C254.794 48.3704 254.942 48.2719 255.104 48.2048C255.267 48.1377 255.442 48.1034 255.618 48.1038H274.939C275.115 48.1034 275.289 48.1377 275.452 48.2048C275.615 48.2719 275.763 48.3704 275.887 48.4948C276.012 48.6191 276.111 48.7667 276.178 48.9293C276.246 49.0919 276.28 49.2662 276.28 49.4422C276.28 49.6182 276.246 49.7924 276.178 49.955C276.111 50.1176 276.012 50.2652 275.887 50.3896C275.763 50.5139 275.615 50.6124 275.452 50.6795C275.289 50.7466 275.115 50.7809 274.939 50.7806Z" fill="#014140"/>
<path d="M265.842 85.9871V97.5777C264.332 97.5371 262.897 96.9087 261.844 95.8263C260.79 94.7439 260.2 93.293 260.2 91.7824C260.2 90.2718 260.79 88.8209 261.844 87.7385C262.897 86.6561 264.332 86.0277 265.842 85.9871Z" fill="#014140"/>
<path d="M285.275 56.1481H245.283V58.1555H285.275V56.1481Z" fill="#014140"/>
<path d="M222.506 144.764C223.125 145.088 223.697 145.496 224.205 145.977C224.474 146.23 224.707 146.519 224.896 146.836C225.129 147.201 225.229 147.635 225.18 148.066C225.137 148.304 225.04 148.53 224.897 148.725C224.76 148.902 224.592 149.054 224.402 149.173C224.064 149.376 223.693 149.52 223.306 149.599C222.6 149.743 221.876 149.779 221.159 149.705C219.789 149.516 218.436 149.217 217.114 148.81C215.797 148.451 214.474 148.118 213.156 147.736C211.827 147.371 210.533 146.891 209.289 146.3C208.017 145.726 206.813 145.015 205.696 144.179C205.124 143.739 204.606 143.235 204.15 142.677C203.907 142.375 203.706 142.042 203.553 141.686C203.365 141.272 203.335 140.804 203.466 140.368C203.545 140.158 203.666 139.967 203.823 139.806C203.979 139.646 204.167 139.52 204.375 139.436C204.72 139.287 205.087 139.196 205.461 139.167C206.159 139.113 206.86 139.154 207.546 139.29L207.541 139.401C206.874 139.447 206.213 139.556 205.566 139.726C205.27 139.805 204.986 139.926 204.724 140.085C204.621 140.141 204.53 140.217 204.458 140.309C204.386 140.401 204.334 140.507 204.304 140.62C204.225 140.995 204.562 141.543 204.975 141.984C205.414 142.447 205.897 142.867 206.416 143.238C207.48 144.024 208.598 144.736 209.761 145.367C210.94 145.992 212.139 146.598 213.366 147.165C215.803 148.339 218.493 148.894 221.196 148.78C221.835 148.783 222.473 148.734 223.105 148.636C223.703 148.526 224.25 148.274 224.334 147.905C224.375 147.656 224.339 147.4 224.229 147.172C224.101 146.888 223.943 146.617 223.759 146.366C223.351 145.834 222.911 145.329 222.439 144.853L222.506 144.764Z" fill="#005655"/>
<path d="M220.935 148.663C221.569 148.973 222.165 149.358 222.709 149.808C222.992 150.04 223.25 150.301 223.478 150.587C223.739 150.894 223.929 151.256 224.033 151.645C224.094 151.88 224.098 152.125 224.046 152.361C223.994 152.597 223.887 152.818 223.733 153.005C223.44 153.325 223.068 153.56 222.653 153.687C221.941 153.906 221.195 153.989 220.452 153.931C219.053 153.781 217.671 153.505 216.323 153.105C214.98 152.758 213.636 152.428 212.294 152.05C210.943 151.69 209.625 151.211 208.358 150.618C207.065 150.044 205.837 149.333 204.696 148.497C204.114 148.057 203.582 147.556 203.108 147.001C202.86 146.702 202.648 146.375 202.478 146.026C202.275 145.623 202.211 145.164 202.295 144.721C202.355 144.498 202.463 144.291 202.612 144.114C202.76 143.938 202.945 143.796 203.155 143.698C203.501 143.534 203.874 143.432 204.256 143.397C204.964 143.332 205.677 143.368 206.375 143.504L206.37 143.615C205.693 143.661 205.023 143.775 204.369 143.954C204.071 144.037 203.787 144.165 203.528 144.333C203.429 144.394 203.345 144.475 203.28 144.572C203.216 144.668 203.173 144.777 203.154 144.891C203.225 145.436 203.498 145.935 203.918 146.29C204.375 146.753 204.873 147.174 205.406 147.548C206.495 148.336 207.637 149.05 208.824 149.682C210.026 150.308 211.248 150.915 212.5 151.477C213.749 152.047 215.058 152.474 216.402 152.753C217.74 152.997 219.101 153.082 220.459 153.006C221.096 152.994 221.729 152.909 222.346 152.752C222.599 152.69 222.831 152.564 223.02 152.386C223.094 152.312 223.147 152.221 223.177 152.121C223.206 152.021 223.21 151.915 223.188 151.813C223.025 151.219 222.717 150.674 222.291 150.228C221.859 149.719 221.368 149.24 220.871 148.754L220.935 148.663Z" fill="#005655"/>
</svg>
