<svg width="32" height="32" viewBox="0 0 32 32" fill="none" xmlns="http://www.w3.org/2000/svg">
<path fill-rule="evenodd" clip-rule="evenodd" d="M14.6601 29.3921C14.7985 29.4644 14.9533 29.5012 15.1081 29.4999C15.2629 29.4987 15.4164 29.4607 15.5561 29.3872L20.016 27.0031C21.2807 26.3289 22.2711 25.5751 23.0437 24.6974C24.7237 22.7853 25.6411 20.3448 25.6248 17.8283L25.5719 9.52748C25.5669 8.57139 24.9389 7.71826 24.0102 7.40815L15.7134 4.62446C15.2138 4.4553 14.6664 4.45898 14.1756 4.63304L5.91031 7.51601C4.98662 7.83839 4.37 8.69764 4.37503 9.65496L4.42788 17.9496C4.44424 20.4698 5.39309 22.8992 7.10077 24.7918C7.881 25.6572 8.88018 26.4 10.1587 27.0631L14.6601 29.3921ZM13.4795 19.6359C13.6657 19.8148 13.9073 19.9031 14.149 19.9006C14.3906 19.8994 14.6309 19.8087 14.8147 19.6273L19.6885 14.8223C20.0547 14.4607 20.051 13.8797 19.681 13.523C19.3097 13.1663 18.712 13.1688 18.3458 13.5304L14.1351 17.6808L12.4111 16.0236C12.0398 15.6669 11.4433 15.6705 11.0759 16.0321C10.7097 16.3937 10.7135 16.9747 11.0847 17.3314L13.4795 19.6359Z" fill="#C9F001"/>
<path fill-rule="evenodd" clip-rule="evenodd" d="M25.5812 6.40367C26.1275 6.59492 26.4925 7.10992 26.4925 7.68867V16.1549C26.4925 18.5212 25.6325 20.7799 24.1137 22.5299C23.35 23.4112 22.3838 24.0974 21.3575 24.6524L16.91 27.0549L12.455 24.6512C11.4275 24.0962 10.46 23.4112 9.695 22.5287C8.175 20.7787 7.3125 18.5187 7.3125 16.1499V7.68867C7.3125 7.10992 7.6775 6.59492 8.22375 6.40367L16.4512 3.51242C16.7437 3.40992 17.0625 3.40992 17.3537 3.51242L25.5812 6.40367Z" stroke="#005655" stroke-width="1.875" stroke-linecap="round" stroke-linejoin="round"/>
<path d="M13.6531 14.8959L16.0181 17.2621L20.8906 12.3896" stroke="#005655" stroke-width="1.875" stroke-linecap="round" stroke-linejoin="round"/>
</svg>
