<svg width="32" height="32" viewBox="0 0 32 32" fill="none" xmlns="http://www.w3.org/2000/svg">
<path fill-rule="evenodd" clip-rule="evenodd" d="M21.9893 11.164V13.0882C24.1507 13.7629 25.7255 15.7195 25.7255 18.0565V24.2518C25.7255 27.1449 23.3269 29.4906 20.3698 29.4906H9.74907C6.79072 29.4906 4.39215 27.1449 4.39215 24.2518V18.0565C4.39215 15.7195 5.96824 13.7629 8.12835 13.0882V11.164C8.1411 7.4229 11.2397 4.39258 15.0397 4.39258C18.8907 4.39258 21.9893 7.4229 21.9893 11.164ZM15.0652 6.57521C17.6538 6.57521 19.7578 8.63284 19.7578 11.1643V12.8179H10.3599V11.1394C10.3726 8.62037 12.4766 6.57521 15.0652 6.57521ZM16.1746 22.5328C16.1746 23.1438 15.6773 23.6302 15.0525 23.6302C14.4404 23.6302 13.9431 23.1438 13.9431 22.5328V19.7643C13.9431 19.1657 14.4404 18.6794 15.0525 18.6794C15.6773 18.6794 16.1746 19.1657 16.1746 19.7643V22.5328Z" fill="#C9F001"/>
<path d="M22.4926 11.8566V9.16229C22.4926 6.00872 19.9351 3.45123 16.7815 3.45123C13.6279 3.43742 11.0604 5.98237 11.0466 9.13719V9.16229V11.8566" stroke="#005655" stroke-width="1.88235" stroke-linecap="round" stroke-linejoin="round"/>
<path fill-rule="evenodd" clip-rule="evenodd" d="M21.5637 26.667H11.975C9.34722 26.667 7.2164 24.5375 7.2164 21.9084V16.5262C7.2164 13.8971 9.34722 11.7676 11.975 11.7676H21.5637C24.1915 11.7676 26.3223 13.8971 26.3223 16.5262V21.9084C26.3223 24.5375 24.1915 26.667 21.5637 26.667Z" stroke="#005655" stroke-width="1.88235" stroke-linecap="round" stroke-linejoin="round"/>
<path d="M16.7696 17.8232V20.6104" stroke="#005655" stroke-width="1.88235" stroke-linecap="round" stroke-linejoin="round"/>
</svg>
