<svg width="220" height="227" viewBox="0 0 220 227" fill="none" xmlns="http://www.w3.org/2000/svg">
<path opacity="0.1" fill-rule="evenodd" clip-rule="evenodd" d="M208.959 -15.877C141.443 28.4663 107.424 136.924 194.83 200.078L193.88 225.271C151.315 203.887 123.742 192.735 65.1607 186.213C91.8851 183.808 118.964 191.965 173.612 208.427C176.478 209.29 179.42 210.177 182.442 211.085C163.192 139.526 58.6166 121.617 0.726364 201.741C31.0766 205.017 48.9132 216.333 66.2469 227.33C75.3663 233.115 84.3464 238.812 94.9363 243.204C120.922 249.209 147.539 238.439 163.766 231.873C170.081 229.318 174.823 227.399 177.34 227.355L200.893 237.719L200.893 237.718L200.893 237.718C207.845 190.152 194.131 59.8833 194.131 59.8833C205.454 114.665 210.958 145.359 212.8 199.758C239.491 179.173 263.887 141.327 250.541 98.4241C245.351 81.7429 236.135 63.1085 227.498 45.6461C213.922 18.1961 201.778 -6.35807 208.959 -15.877Z" fill="url(#paint0_linear_567_10353)"/>
<defs>
<linearGradient id="paint0_linear_567_10353" x1="254.203" y1="1.29245" x2="72.6645" y2="304.714" gradientUnits="userSpaceOnUse">
<stop offset="0.0884423" stop-color="#797A79"/>
<stop offset="1" stop-color="#DDE0DE"/>
</linearGradient>
</defs>
</svg>
