<svg width="20" height="20" viewBox="0 0 20 20" fill="none" xmlns="http://www.w3.org/2000/svg">
<path d="M20 14.19L20 5.81C20 2.17 17.83 -9.48537e-08 14.19 -2.53963e-07L5.82 -6.19827e-07C2.17 -7.79374e-07 -9.48537e-08 2.17 -2.53963e-07 5.81L-6.19827e-07 14.18C-7.78937e-07 17.82 2.17 19.99 5.81 19.99L14.19 19.99C17.83 20 20 17.83 20 14.19ZM4.85 8.93C4.75 8.93 4.66 8.91 4.56 8.87C4.38 8.79 4.23 8.65 4.15 8.46C4.11 8.37 4.09 8.27 4.09 8.17C4.09 8.07 4.11 7.98 4.15 7.88C4.19 7.79 4.24 7.71 4.31 7.64L7.35 4.6C7.64 4.31 8.12 4.31 8.41 4.6C8.7 4.89 8.7 5.37 8.41 5.66L6.65 7.42L15.15 7.42C15.56 7.42 15.9 7.76 15.9 8.17C15.9 8.58 15.56 8.92 15.15 8.92L4.85 8.92L4.85 8.93ZM11.58 15.39C11.43 15.24 11.36 15.05 11.36 14.86C11.36 14.67 11.43 14.48 11.58 14.33L13.34 12.57L4.84 12.57C4.43 12.57 4.09 12.23 4.09 11.82C4.09 11.41 4.43 11.07 4.84 11.07L15.15 11.07C15.25 11.07 15.34 11.09 15.44 11.13C15.62 11.21 15.77 11.35 15.85 11.54C15.93 11.72 15.93 11.93 15.85 12.11C15.81 12.2 15.76 12.28 15.69 12.35L12.65 15.39C12.35 15.68 11.88 15.68 11.58 15.39Z" fill="#005655"/>
</svg>
