<svg width="32" height="32" viewBox="0 0 32 32" fill="none" xmlns="http://www.w3.org/2000/svg">
<path fill-rule="evenodd" clip-rule="evenodd" d="M25.4988 13.4337L26.3991 14.3337C27.1119 15.0337 27.4995 15.9837 27.4995 16.9837C27.512 17.9837 27.1244 18.9349 26.4241 19.6462C26.4158 19.6553 26.4074 19.6634 26.3991 19.6715C26.3949 19.6755 26.3908 19.6795 26.3866 19.6837L25.4988 20.5712C25.1486 20.9212 24.9486 21.3962 24.9486 21.8974V23.1837C24.9486 25.2587 23.2605 26.9474 21.1847 26.9474H19.8967C19.3966 26.9474 18.9214 27.1462 18.5713 27.4962L17.6709 28.3962C16.9332 29.1349 15.9703 29.4962 15.0075 29.4962C14.0446 29.4962 13.0818 29.1349 12.344 28.4099L11.4312 27.4962C11.081 27.1462 10.6059 26.9474 10.1057 26.9474H8.81772C6.74197 26.9474 5.05386 25.2587 5.05386 23.1837V21.8974C5.05386 21.3962 4.85378 20.9212 4.50366 20.5587L3.60333 19.6712C2.1403 18.2099 2.1278 15.8212 3.59083 14.3474L4.50366 13.4337C4.85378 13.0837 5.05386 12.6087 5.05386 12.0962V10.8212C5.05386 8.74618 6.74197 7.05993 8.81772 7.05993H10.1057C10.6059 7.05993 11.081 6.85868 11.4312 6.50868L12.3315 5.60868C13.7945 4.13493 16.1829 4.13493 17.6584 5.59743L18.5713 6.50868C18.9214 6.85868 19.3966 7.05993 19.8967 7.05993H21.1847C23.2605 7.05993 24.9486 8.74618 24.9486 10.8212V12.1099C24.9486 12.6087 25.1486 13.0837 25.4988 13.4337ZM14.2875 20.7384L20.225 14.8009C20.65 14.3759 20.65 13.6884 20.225 13.2509C19.8 12.8259 19.1 12.8259 18.675 13.2509L13.5125 18.4134L11.325 16.2259C10.9 15.8009 10.2 15.8009 9.77502 16.2259C9.35002 16.6509 9.35002 17.3384 9.77502 17.7759L12.75 20.7384C12.9625 20.9509 13.2375 21.0509 13.5125 21.0509C13.8 21.0509 14.075 20.9509 14.2875 20.7384Z" fill="#C9F001"/>
<path d="M7.99285 8.82103C7.99285 7.25978 9.2591 5.99353 10.8191 5.99353H12.1054C12.8504 5.99353 13.5666 5.69853 14.0966 5.17228L14.9954 4.27228C16.0966 3.16603 17.8866 3.16103 18.9929 4.26228L19.0041 4.27228L19.9041 5.17228C20.4329 5.69853 21.1491 5.99353 21.8954 5.99353H23.1804C24.7416 5.99353 26.0079 7.25978 26.0079 8.82103V10.1048C26.0079 10.8523 26.3029 11.5673 26.8291 12.0973L27.7291 12.9973C28.8354 14.0985 28.8416 15.8873 27.7404 16.9948L27.7291 17.006L26.8291 17.906C26.3029 18.4335 26.0079 19.151 26.0079 19.896V21.1823C26.0079 22.7435 24.7416 24.0085 23.1804 24.0085H21.8954C21.1491 24.0085 20.4329 24.3048 19.9041 24.831L19.0041 25.7298C17.9041 26.8373 16.1141 26.8423 15.0066 25.741C15.0029 25.7373 14.9991 25.7335 14.9954 25.7298L14.0966 24.831C13.5666 24.3048 12.8504 24.0085 12.1054 24.0085H10.8191C9.2591 24.0085 7.99285 22.7435 7.99285 21.1823V19.896C7.99285 19.151 7.6966 18.4335 7.17035 17.906L6.2716 17.006C5.1641 15.9048 5.1591 14.1148 6.26035 13.0085L6.2716 12.9973L7.17035 12.0973C7.6966 11.5673 7.99285 10.8523 7.99285 10.1048V8.82103" stroke="#005655" stroke-width="1.875" stroke-linecap="round" stroke-linejoin="round"/>
<path d="M12.5498 15.0004L15.5173 17.9667L21.4498 12.0342" stroke="#005655" stroke-width="1.875" stroke-linecap="round" stroke-linejoin="round"/>
</svg>
