<svg width="24" height="24" viewBox="0 0 24 24" fill="none" xmlns="http://www.w3.org/2000/svg">
<path d="M13 8.5H7" stroke="#A7A9B7" stroke-width="1.5" stroke-linecap="round" stroke-linejoin="round"/>
<path d="M22 10.4702V12.5302C22 13.0802 21.56 13.5302 21 13.5502H19.04C17.96 13.5502 16.97 12.7602 16.88 11.6802C16.82 11.0502 17.06 10.4602 17.48 10.0502C17.85 9.67017 18.36 9.4502 18.92 9.4502H21C21.56 9.4702 22 9.92015 22 10.4702Z" stroke="#A7A9B7" stroke-width="1.5" stroke-linecap="round" stroke-linejoin="round"/>
<path d="M17.48 10.05C17.06 10.46 16.82 11.05 16.88 11.68C16.97 12.76 17.96 13.55 19.04 13.55H21V15C21 18 19 20 16 20H7C4 20 2 18 2 15V8C2 5.28 3.64 3.38 6.19 3.06C6.45 3.02 6.72 3 7 3H16C16.26 3 16.51 3.00999 16.75 3.04999C19.33 3.34999 21 5.26 21 8V9.45001H18.92C18.36 9.45001 17.85 9.66999 17.48 10.05Z" stroke="#A7A9B7" stroke-width="1.5" stroke-linecap="round" stroke-linejoin="round"/>
</svg>
